<svg version="1.1" viewBox="-10 -10 580 580">
<a xlink:title="Côtes D'Armor">
   <path
       d="m 224.95104,145.6672 c -4.78112,5.68181 -12.30354,4.7193 -18.95198,5.87511 -2.99747,9.26923 -8.70263,-3.02845 -13.34121,-2.37805 -3.48526,3.83307 -15.61143,6.15946 -8.60866,11.82126 3.85259,4.75305 -5.73393,10.28861 -7.06738,14.4698 0.60619,4.53644 -6.66683,15.03077 -0.19729,15.1336 7.97525,-1.59778 0.48109,9.49515 9.2202,10.03901 -3.38199,4.11151 -11.95457,7.92209 -6.91318,13.48893 12.46815,3.09429 -2.22057,0.91956 -0.47809,8.14995 -0.3951,6.02228 6.97307,9.41388 4.84117,16.17108 2.27132,6.33267 -1.74926,10.99908 -1.56694,15.97509 -1.36821,8.62897 9.42736,5.22585 11.32589,10.3467 1.55387,9.28283 11.32192,-3.82235 14.20209,2.76394 5.23133,1.52011 10.76726,7.5601 15.80768,2.67556 6.37595,-1.76949 6.31249,-10.19205 14.22917,-7.91519 5.3114,2.04187 8.68865,10.78983 15.52821,6.40551 5.63551,-1.35532 7.9782,8.39421 13.80926,7.58891 2.52192,8.21309 11.82203,-0.001 12.9221,1.9787 1.4414,6.2746 10.10117,9.47632 14.57379,4.24649 7.05093,-2.23943 1.32726,-11.77988 10.80498,-11.39087 7.10667,-2.70711 6.47272,7.87341 10.97698,9.85748 6.52728,1.14225 12.81997,1.74381 15.74487,-5.41684 4.56023,-5.57628 4.22936,-15.94312 12.90751,-16.75321 5.69152,-3.33628 6.68876,-9.66904 12.45638,-3.12784 8.09013,0.63051 9.75373,-4.59641 9.39213,-11.66917 0.95359,-9.36813 1.68251,-18.7788 4.78633,-27.73983 -0.85193,-7.205 -10.13231,-5.93321 -8.9613,-13.68998 -1.45976,-4.52682 -0.6826,-17.08102 -6.01076,-7.72577 -5.84925,-0.50639 -13.75793,-3.75071 -12.41354,5.30656 -9.46748,4.32198 -5.4422,-5.33884 -9.59685,-8.25499 -6.33194,-3.34006 -9.6228,8.66369 -8.21801,-3.5067 1.52839,-10.63761 -6.50234,4.50561 -12.05325,-0.35383 -8.12468,-4.43367 -6.73789,7.44666 -13.68007,8.53327 -5.82572,3.15246 -11.65146,6.30491 -17.47719,9.45737 1.99817,9.75773 -8.06748,6.04205 -4.73799,-2.0572 0.82205,-6.57506 -12.44699,-4.58151 -12.20163,-10.55146 2.69613,-7.12602 -0.91215,-11.4756 -7.15088,-14.66672 -7.33043,-1.82692 1.5862,-13.84001 -7.02873,-13.1813 -9.49061,1.63082 1.14681,-12.70899 -7.84517,-10.78215 -3.46933,-2.78858 -1.41197,-9.82532 -10.90756,-6.75422 -5.64488,2.29685 -4.35123,8.91681 -7.75648,-1.51169 l -0.3646,-0.85731 0,0 z"
       id="22" />
       </a>
        <a xlink:title="Morbihan">
    <path
       d="m 183.16193,259.00002 c -5.45334,3.42169 -11.52554,5.04143 -17.55403,5.36728 -6.25969,2.84617 -8.0984,8.45402 -4.23232,14.28425 2.85891,4.66752 2.73764,11.99369 6.00425,15.57057 7.29764,1.34857 15.34025,1.0125 20.45496,7.29762 2.37211,-4.07398 11.27976,1.1039 6.94344,6.12421 0.5308,8.12696 -2.89577,8.40383 -7.50535,12.74252 -4.83875,2.94748 -10.97014,1.83159 -10.32546,10.78118 -0.75909,5.06436 3.83916,12.6762 8.85051,14.22538 6.09896,6.62088 12.27357,-9.24207 8.77802,1.18226 1.43714,4.39725 10.85138,5.10166 13.52339,10.84537 5.39959,4.51945 10.40717,11.14957 7.48352,18.44868 -3.14371,6.02495 0.61146,13.03236 6.42313,13.04518 6.10254,-4.42812 -3.92905,-9.55689 -0.65583,-16.17512 0.70135,-4.65863 10.65812,2.21278 9.47599,-7.98735 1.20463,3.68647 8.54588,13.6181 11.03071,8.1303 5.17554,-4.05197 -5.86222,-16.76218 2.0077,-6.78325 0.53706,6.07289 14.67731,4.8218 9.70046,-0.89233 4.81781,-1.05301 10.53451,3.57743 13.36464,8.4527 -1.87891,7.85565 -9.33675,2.53834 -14.24813,0.66751 -4.48552,-6.46503 -14.61948,5.19786 -5.25093,5.08842 5.7868,1.72284 5.74567,12.34948 13.64922,8.47677 11.43011,-0.2632 23.08734,-4.19826 34.27781,-0.58727 -6.46621,1.22452 -4.29743,14.22638 1.60851,7.86747 4.31338,-8.03087 7.42497,3.63386 14.41737,0.18712 7.78686,-1.14532 14.29178,-7.28841 22.12975,-9.18752 7.82917,-0.89693 9.50146,-6.14071 8.52577,-13.25397 -1.22038,-7.40533 6.54209,-8.86972 -0.0406,-15.53611 -7.58407,-5.46622 8.1233,-8.59539 0.23766,-12.97202 -2.39534,-2.39116 11.0342,-5.84509 8.31415,-12.31808 -0.59376,-4.08817 -12.76337,-2.97539 -6.27845,-11.05385 5.15055,-3.96996 -1.03107,-11.10512 -4.86158,-13.85727 -4.37246,-4.75632 -10.74666,-1.55743 -16.00361,-3.83302 -0.16483,-6.22971 7.15578,-9.44365 6.56916,-16.62088 0.71761,-9.40563 -2.54149,-4.30479 -9.15862,-5.37355 -7.74995,2.29783 -7.6524,-7.73204 -12.1541,-10.3187 -5.62398,-0.29899 -12.68924,1.83477 -10.17829,8.81267 -5.28224,3.95249 -10.58752,7.65772 -16.67774,2.93756 -2.10286,-10.10318 -4.93521,-0.74303 -12.22402,-2.93756 -3.18853,-5.57827 -9.81106,-4.59089 -13.16688,-10.78552 -5.18386,-0.73459 -11.60427,2.6766 -15.28005,-4.31963 -4.34225,-5.01554 -12.10414,-2.22196 -13.94423,3.35143 -5.40496,4.32216 -10.94716,5.02811 -16.67506,0.84129 -5.4435,-5.97733 -8.40157,-1.14604 -14.86711,-1.16042 -1.78969,-4.64947 -8.05093,-6.01544 -12.48768,-8.77432 l 0,0 z"
       id="56" />
       </a>
        <a xlink:title="Finisère">
    <path
       d="m 136.63482,163.3873 c -3.77384,6.49371 -8.23068,7.76689 -14.54963,4.26353 -5.62323,1.10479 -13.89489,-1.34219 -14.3293,6.72127 -8.28847,6.18808 -6.83818,-4.00375 -12.00896,-4.0499 -7.91305,-1.08662 -9.67081,3.6425 -13.57147,5.75369 -6.16538,2.8924 -10.1374,-5.45415 -15.378672,-0.18029 1.346025,8.72741 -5.999728,7.49333 -12.262067,7.50093 -6.799124,-1.45582 -9.002382,6.43943 -13.228338,10.21917 8.500341,3.69144 6.366035,7.62462 -0.651849,11.66881 -2.190808,3.64686 3.392141,10.084 -0.400714,15.59837 -3.634338,6.29737 9.4772,6.81585 11.566112,2.49223 3.339619,2.25659 10.95574,0.49123 16.492045,-0.21579 9.579003,0.66617 15.870323,-6.98656 23.311893,-11.72876 -3.96195,4.56234 -10.3554,8.35037 -12.79143,13.39864 -1.20681,10.23877 10.41132,-1.79154 12.51723,0.54866 -5.20263,8.52283 2.11326,8.00852 8.93202,7.8531 6.65534,3.96678 -6.73533,3.93526 -10.54949,3.11401 -9.7122,-0.7864 -18.50429,-5.28221 -27.10484,-9.56331 -2.947739,4.37077 -12.988193,10.65764 -2.543014,11.41029 8.322418,0.18079 3.551272,9.39648 4.44645,14.70225 0.590132,6.51922 7.087794,-6.70331 9.372984,-9.52956 6.02269,3.05745 11.38723,7.85426 18.38342,8.33887 2.02165,5.30738 3.5083,13.0503 -2.23253,15.84555 -14.63894,-1.90798 -28.995496,2.60799 -43.659195,2.32189 -7.679303,0.87672 -6.102149,9.96635 1.648126,8.8548 6.544764,-2.51715 8.921184,7.43848 15.849623,3.89856 5.413944,1.53156 8.459686,8.86396 12.940366,12.68149 2.69958,5.02902 3.55806,12.06198 3.72844,17.65721 -6.17825,7.17441 -1.46491,8.96223 6.13527,9.32233 5.38016,0.0457 13.43326,1.76572 17.17492,-1.93094 6.39165,-4.11843 -9.38027,-13.7674 1.24023,-8.61269 6.27117,-1.85092 11.05642,3.52459 16.58781,4.87118 8.5169,3.79142 3.0814,-15.66936 5.57488,-8.15455 0.63934,7.56499 5.7014,13.30344 9.35968,19.62163 5.18941,-0.87714 14.45728,3.52605 16.95602,-0.83467 1.22372,-0.36976 7.13205,7.81755 13.25632,5.91964 6.9357,1.04154 11.44848,1.2955 11.29936,-6.91355 0.92213,-6.29475 10.17766,-2.58108 12.27295,-9.25832 5.76254,0.95215 3.71004,-10.66374 5.08906,-13.26088 -3.37569,-8.97794 -7.10279,2.53929 -12.06456,-5.70259 -4.76094,-3.41213 -11.48735,-2.37954 -17.05454,-3.96842 -1.37426,-8.48467 -6.58041,-15.90259 -7.29652,-24.44805 4.26444,-5.38209 9.93578,-6.03422 16.0226,-6.74463 9.2452,-1.28375 6.3239,-7.16612 7.3807,-12.77351 3.42015,-4.62275 -0.0705,-11.8871 0.63294,-17.54825 -2.1709,-4.15816 -7.33636,-10.20138 -3.55142,-14.57086 12.5875,-2.5021 -3.55255,-1.16661 -1.76595,-8.17644 -0.0523,-4.60143 13.53512,-8.69326 3.95119,-11.85051 1.43571,-7.43851 -5.52013,-6.31995 -7.5618,-9.51729 -0.35467,-5.23943 6.5454,-13.68489 -0.47715,-15.97764 -6.39519,-5.91817 -15.08169,-2.73379 -22.87522,-3.09683 0.80503,4.86839 0.29014,17.08101 -5.15847,9.88276 -0.65265,-6.63011 -11.62828,1.62048 -8.45514,-9.20246 -0.20013,-2.21672 -0.40024,-4.43344 -0.60037,-6.65017 z"
       id="29" />
       </a>
        <a xlink:title="Ille Et Vilaine">
    <path
       d="m 365.85898,184.13971 c -6.04915,4.11873 -6.03322,9.91561 -3.85853,16.30976 -1.33182,7.90728 5.57807,8.11494 8.21196,13.52855 2.49259,5.6818 -3.00956,11.88117 -2.33929,18.07521 -0.79773,7.30818 -1.59545,14.61635 -2.39318,21.92452 -5.9521,4.3913 -11.87478,-1.87931 -14.87602,-0.80938 -1.72157,7.26434 -11.72167,4.41417 -13.25511,11.27102 -1.89767,5.7154 -6.05643,10.97494 -8.32173,15.91316 1.86317,5.3516 0.64395,12.17475 -2.74354,16.48312 -7.70769,5.26319 1.26388,9.37315 7.08426,7.45957 6.86084,1.15301 10.84134,7.27725 13.5392,13.26639 -5.25062,3.26862 -6.04841,13.85133 2.07937,11.65546 4.82917,2.94798 -0.9021,11.56061 -5.85195,13.01784 -2.00201,1.7984 3.86304,7.93285 -3.14724,11.36835 3.14509,4.49388 4.50434,14.8338 11.09823,8.03798 8.92878,-6.27347 20.4355,-3.19169 30.67647,-4.70326 5.74563,-0.93502 14.42371,2.10062 14.67064,-6.27981 3.07934,-5.76838 8.88157,-8.07673 15.23289,-7.99384 7.32487,0.55674 1.91731,-11.31601 11.56329,-6.13614 5.21199,2.53429 7.51598,10.03204 15.05115,9.29439 6.90508,3.70479 6.63047,-7.2724 8.6065,-11.44153 2.68748,-7.54128 5.34134,-15.80581 9.39312,-22.43216 3.57401,-5.38173 15.21394,4.07946 13.34158,-4.65497 0.37137,-6.45408 0.65338,-12.87113 -4.16943,-17.1737 -0.12192,-7.74719 0.80443,-15.65139 -1.80044,-23.02666 -2.02199,-6.81042 2.50496,-10.90818 5.96987,-15.44586 1.68815,-6.99188 -2.14973,-11.45266 -2.80003,-17.22177 -0.68199,-5.4284 3.41635,-13.69917 -4.30695,-14.94081 -6.31693,3.81856 -11.31516,-7.29073 -15.01231,-2.43254 -2.70168,6.93059 -10.89861,3.99436 -13.38116,10.88369 -5.0968,4.32023 -10.62084,-4.61709 -14.95537,-7.49044 -3.61073,-5.67262 -4.52664,-13.16008 -6.4001,-19.72316 -9.9343,-0.34593 -20.25815,0.69364 -29.94765,-0.52291 -5.2959,-3.22262 -13.56403,-5.87501 -5.63729,-11.63448 7.2423,-6.68011 -6.94704,-3.17467 -11.14338,-4.41847 l -0.17783,-0.007 0,0 z"
       id="35" />
       </a>
</svg>

