<svg version="1.1" viewBox="-10 -10 580 580">
<a xlink:title="Oise">
  <path
       d="m 96.598597,326.73486 c -5.710265,5.23512 -10.697583,15.21635 -2.405198,14.58005 -2.895102,7.01639 -5.241262,15.3093 -4.887267,22.56782 7.784586,4.57447 -0.94256,19.39452 7.674867,19.25934 7.772261,0.18141 -5.346029,11.73611 -5.391952,17.52715 -3.597131,7.47531 9.862893,10.07491 6.493406,19.29297 -2.09623,6.61432 10.285507,17.43091 -1.529954,15.22466 -8.872217,-7.41824 -7.435154,7.46292 -3.449208,11.95566 2.451145,9.80545 12.113579,7.81879 20.045209,8.66237 9.2003,0.2366 19.79143,0.85074 26.43174,-6.68912 6.29337,-3.75556 13.69558,6.42855 19.77625,9.41005 7.2379,2.43086 14.87398,-7.74375 21.55298,-3.56053 11.7003,6.65201 24.87606,11.74115 34.28878,21.58609 6.26292,-7.24905 13.44106,-5.73738 19.51706,0.88434 8.31749,6.80728 11.43902,-10.82826 18.5084,-2.24407 7.0753,7.4423 14.89708,-6.23974 22.72243,-0.98227 5.47204,0.18014 13.82775,-7.53542 16.41938,-9.01198 3.94358,-8.02333 -3.37359,-13.74033 -9.61427,-17.43762 -6.15346,-4.82193 -11.53438,11.71864 -10.51086,-4.7056 4.31552,-1.85089 10.78744,-10.85749 2.60226,-15.02939 -12.39174,1.50574 -1.58044,-12.07065 5.52369,-10.59379 9.51352,0.0668 6.57349,-12.53987 9.85033,-18.81988 14.43607,-4.19563 -4.32266,-6.86102 -0.48962,-14.29646 2.95631,-9.40918 2.94413,-20.20745 2.29543,-30.06091 -0.69682,-8.98066 -1.8532,-17.35527 -12.74914,-12.88571 -8.90489,1.30856 -17.79726,-2.69877 -26.33736,1.77142 -11.94325,0.82625 -18.29943,11.63657 -26.76966,18.6691 -8.83255,-3.52113 -17.96036,-5.67917 -27.48041,-6.02641 -5.86846,-6.25925 -11.54046,-12.85334 -20.67676,-13.54297 -11.4984,-5.56025 -24.61806,0.86587 -36.15096,-1.10759 -5.76509,-6.55482 -15.78086,-5.27034 -23.32004,-3.1037 -8.50481,6.37103 -12.23587,-3.02892 -11.58087,-10.06976 -1.71473,-2.85141 -7.433129,-0.41401 -10.358683,-1.22326 z"
       id="60"/>
       </a>
        <a xlink:title="Pas-De-Calais">
    <path
       d="m 143.0019,50.725425 c -14.15939,3.098661 -28.97729,4.733045 -42.72639,8.74403 -10.707184,8.254265 -21.414368,16.508529 -32.121551,24.762793 -0.160185,34.909792 0.320727,69.845192 -0.241046,104.738952 8.753793,-0.53699 13.379524,5.74743 16.680586,10.77117 9.250958,1.73082 10.696607,-12.87733 19.210041,-6.6457 6.49301,2.23022 11.3859,13.61342 18.56121,9.95443 4.12126,2.70839 7.10403,12.71788 16.07325,13.08059 3.92104,4.39678 3.77981,13.72708 13.96699,12.03125 8.48684,-4.4023 18.1227,-4.17667 27.358,-5.56439 5.25212,8.91272 15.32992,-6.39047 17.54718,6.68739 -3.34898,5.06356 -14.68514,7.71203 -10.67708,17.42662 4.01695,11.68771 8.17553,-1.24202 13.22101,-4.32268 6.07512,-2.5582 12.5224,7.63685 20.34545,7.29509 10.98092,8.13723 10.65744,-6.71618 14.69508,-3.78071 8.48422,2.6882 9.2147,11.95838 2.84238,17.4328 5.89588,-1.95955 15.59423,-12.6353 18.07923,-2.29003 -1.85498,11.98753 10.21203,-4.42708 16.49992,-0.72317 8.41585,-0.0349 16.16951,2.48456 18.09166,-7.83433 -3.42847,-8.67808 -14.75232,-2.95057 -21.33349,-6.8701 6.0006,-6.27694 13.79001,-3.17971 21.33349,-4.58007 -2.1888,-9.25981 4.7527,-13.03346 5.96501,-20.44894 -2.13094,-7.34378 -12.82735,-7.13915 -19.20513,-8.60506 1.44347,-3.24851 11.34041,-10.95053 0.24056,-14.72754 -6.77544,-4.91212 -9.93042,-14.55649 0.99267,-16.12754 11.23789,-6.15727 -4.65079,-8.17128 -4.80601,-15.77684 -2.19546,-8.17017 -14.08594,-2.86329 -20.2367,-6.78621 -10.74268,0.72284 -9.55088,-8.6812 -10.19894,-16.52404 4.73483,-4.04351 14.62013,-9.36666 4.73533,-15.02345 -9.84765,-3.31731 -9.00555,13.08113 -19.46554,7.96543 -12.20123,-0.29534 -24.98856,-1.87396 -36.04532,-6.62365 -5.38307,-5.67763 -12.28739,-10.75894 -9.7281,-19.54991 11.58358,-1.54086 6.33212,-9.310032 -2.42775,-9.439516 -9.34284,1.298496 -15.87572,-1.349267 -17.1553,-11.374701 -4.12669,-13.802845 -12.55626,-25.195911 -20.0707,-37.271968 z"
       id="62"/>
       </a>
        <a xlink:title="Nord">
    <path
       d="m 206.76128,33.007789 c -12.73632,5.904826 -25.01704,13.286999 -39.42104,13.784039 -8.11098,1.321846 -16.2364,2.557848 -24.33834,3.933405 9.47515,13.87127 17.72262,28.364867 22.89482,44.417336 2.15841,8.584181 14.95165,0.624932 20.25165,5.976221 11.58899,5.66296 -9.55879,5.18848 -3.49272,15.33589 3.25522,5.44227 8.41482,13.22691 15.62791,14.08656 12.25458,4.10345 25.1257,4.1463 37.88658,4.91527 1.76182,-8.37734 13.68908,-13.07967 15.83438,-2.62053 -0.53637,5.66857 -14.03124,7.27644 -8.04291,17.04525 -1.66055,9.54452 10.50068,8.21639 16.9542,10.33539 9.76791,-1.67227 12.89681,4.55544 16.20462,11.69369 11.5214,2.56239 1.01873,11.47094 -5.75607,12.48062 -2.30754,7.62884 6.80092,13.34296 12.15338,17.58304 -2.28501,6.97931 -12.33433,11.79435 1.16234,11.21272 7.11495,-0.31372 16.80535,8.33387 8.99182,13.96624 -6.37005,3.59771 1.58617,17.56382 -10.13419,14.6094 -6.49913,-3.57893 -20.89278,6.2121 -7.29817,5.42377 7.19244,-1.54399 18.91857,2.85682 11.18154,11.03453 -3.43387,6.25245 10.16189,14.05651 14.93479,7.63242 8.60695,-6.52092 11.56761,7.72736 18.63592,0.82489 6.32738,-9.06681 12.97661,6.98951 18.99016,-0.97416 5.42387,-5.74046 14.0911,-8.04003 18.92259,-0.25667 6.0678,-2.89105 13.71872,-12.87052 20.44453,-4.96227 5.46039,4.88763 19.32315,-2.17672 19.29159,7.90755 1.9481,2.68697 13.77354,-13.9575 14.66378,-0.83837 0.94435,7.15513 13.72791,9.77438 19.0431,6.38612 -4.14773,-5.96251 3.6789,-12.5107 11.14973,-15.38741 4.57204,-2.84338 3.02449,-17.81783 -4.41938,-17.3706 -13.35713,-0.56473 -4.24558,-5.06444 -5.60318,-14.04533 -0.47891,-7.55078 17.0389,-8.2857 8.43938,-16.82751 -8.41414,-6.17631 -16.49431,-14.37757 -25.51923,-18.97819 -13.63139,0.73999 -27.26279,1.47998 -40.89418,2.21997 -2.4159,9.85832 -13.542,9.7558 -9.51498,-1.57185 -0.5648,-8.08893 3.41167,-17.7731 -4.53868,-23.26764 -3.41139,-9.75544 -11.70857,-6.13589 -17.78619,-8.80011 -4.3397,-9.54011 -13.58772,4.07779 -19.57543,1.74989 -3.67089,-8.22057 -17.16238,-1.14266 -16.78119,-12.01099 -2.51618,-10.92892 -0.9743,-22.51973 -1.83038,-33.71942 -6.86823,-4.30732 -11.70948,-6.3405 -13.15658,-13.96116 -2.49831,-6.30261 -14.40189,0.22974 -20.07301,1.32811 -8.76413,0.66028 -13.10774,7.76609 -17.99487,14.07939 -8.5759,2.44741 -15.05668,-4.42808 -16.43862,-12.45749 -2.2656,-7.561825 -9.07615,-13.956472 -17.43816,-11.648138 -6.69432,-3.049411 -6.38604,-13.062186 -6.01803,-19.829035 4.4682,-6.537461 6.06701,-13.121712 2.1695,-20.788944 -3.25423,-6.548515 -6.50869,-13.097983 -9.76278,-19.645894 z"
       id="59"/>
       </a>
        <a xlink:title="Aisne">
    <path
       d="m 371.16166,257.31065 c -6.18959,3.77475 -12.67,12.48674 -18.07921,3.01321 -7.99228,-2.98535 -12.8637,10.02139 -19.5858,7.00832 -6.37348,-7.71547 -11.93041,0.53706 -18.86268,2.03128 -1.26955,-8.20876 -14.98255,-4.86114 -16.65675,0.55103 4.42116,8.69893 -2.37394,14.07732 -8.04347,19.78892 2.72846,8.63722 -5.35355,13.64985 -6.68336,20.4156 3.91768,21.82788 11.83668,43.58492 8.30683,66.01316 -2.253,8.64649 -4.50921,14.45351 5.7207,18.5806 -10.15519,1.57026 -8.28756,13.14274 -11.25902,20.6894 -6.23841,3.00202 -15.92708,2.16542 -17.78826,11.49161 8.50016,-2.8747 14.18714,9.42038 8.20659,12.74817 -8.82247,-1.22345 -3.04868,21.04137 1.41147,7.33949 4.22809,-2.40741 13.94176,6.63709 15.49743,11.8042 -5.91113,9.71085 6.33521,10.7821 6.20386,19.03079 -0.4872,8.92001 3.9249,15.35012 10.88932,20.4831 5.2369,5.89296 11.6271,11.00751 18.20106,14.0323 0.55875,8.56844 10.53244,11.00543 16.82019,9.49917 2.29987,-8.00542 8.25647,-11.96025 15.93832,-14.42442 3.44161,-7.43654 3.97546,-17.1749 12.77598,-20.36926 -1.71396,-10.09016 -15.3915,-0.21508 -15.06601,-10.48595 10.17928,-2.17191 10.28528,-9.18697 3.40244,-13.28538 0.45493,-9.7769 12.54905,-4.98359 19.13632,-7.08387 -0.15623,-9.37577 -14.08696,-9.10425 -13.49915,-17.49739 0.74058,-7.67059 -3.15325,-17.66628 6.21696,-21.00739 5.77145,-6.92165 14.02493,-6.36334 22.22363,-5.9701 -0.66604,-3.84249 4.09185,-15.14075 12.41403,-9.21418 4.68681,5.15068 17.8166,9.94967 14.64741,-1.70564 -1.35591,-13.05333 -0.0451,-25.87466 4.60469,-38.19023 -6.93053,-1.993 -14.46936,-11.45389 -2.37611,-12.94021 12.70652,2.24589 6.04767,-9.72021 12.70655,-13.53401 7.3715,-1.78279 14.05636,-11.14848 8.1949,-17.63924 -2.4833,-6.9263 -0.58386,-15.30998 6.46081,-18.98822 -3.72375,-6.91442 -8.88915,-13.58576 -5.37983,-21.71968 2.82115,-7.92945 -13.57718,-4.80818 -17.83968,-2.26222 -6.71873,-0.5525 -17.76206,-1.00208 -17.51615,-10.54741 -3.83325,-10.40377 -14.68917,13.07391 -14.58532,0.0649 -4.23459,-5.30706 -16.23409,0.47576 -21.00218,-6.5292 -1.49179,-1.14505 -3.97014,-0.65585 -5.75651,-1.19128 z"
       id="02"/>
       </a>
        <a xlink:title="Somme">
    <path
       d="m 67.912913,188.9712 c 0.04641,8.40352 -2.932992,18.00236 -1.090995,25.69655 4.648435,5.85013 14.205827,9.52338 15.67489,16.7834 1.336603,10.47618 -11.356185,-3.6505 -16.686213,-4.86536 -7.005803,-5.22381 -10.466302,9.34559 -15.904774,12.87209 -1.720174,5.24265 -16.689045,13.77054 -8.677888,16.60015 8.436625,0.41522 13.363385,1.10116 16.841766,9.8099 10.267251,10.75374 22.426418,20.51716 31.513398,31.88872 0.399339,9.58339 4.608707,17.84072 9.546594,25.84449 -7.25475,6.81378 14.292879,-1.15568 8.557469,10.59403 0.2489,10.68074 11.15136,2.55823 17.04851,2.42299 8.91612,-3.04133 14.42343,4.71434 22.00835,4.9619 11.63319,-0.93375 23.43114,-3.61822 34.48808,1.57127 10.91774,0.23915 13.65849,15.50314 25.16661,13.44269 7.42946,-1.41427 15.59021,7.29158 21.64183,3.43402 7.75036,-6.67453 13.79971,-16.38875 24.99113,-16.91411 10.41602,-4.79063 21.36618,0.47574 32.19985,-2.33269 9.06879,0.22897 0.13522,-13.11353 0.43417,-18.78876 -1.44032,-7.09308 -5.61292,-15.52435 2.30688,-20.21307 2.4124,-7.125 1.38596,-15.52612 9.5946,-20.36105 4.79609,-6.43484 -0.41606,-14.63135 -7.42045,-16.1729 -4.90706,-8.30349 -15.1175,-3.80348 -23.00084,-4.9216 -9.08719,6.03351 -11.43627,6.73084 -13.80544,-3.81579 -3.60764,-2.2248 -20.32201,12.43806 -12.70031,2.55071 6.53732,-6.25794 -6.09991,-15.18618 -8.92952,-14.07523 2.84445,11.08538 -10.87093,4.97867 -16.55198,3.00829 -7.80885,-1.15513 -12.78133,-11.7022 -19.60646,-2.734 -1.05658,12.1247 -12.5675,3.56614 -8.91908,-4.74221 -0.79581,-7.48441 17.39684,-7.62307 7.93618,-15.89663 -5.7107,-0.0958 -12.73526,0.51065 -19.93863,-1.39535 -8.07711,0.72838 -16.08711,1.72707 -23.43283,5.4013 -11.81829,0.35839 -7.06121,-10.41798 -14.60448,-13.31677 -9.99236,1.16291 -9.03314,-14.59756 -16.10335,-11.49013 -6.79645,0.0812 -11.44926,-9.59738 -18.50512,-11.33843 -7.355508,-3.69999 -9.608733,9.61899 -18.644349,7.58017 -1.82719,-9.379 -7.292778,-9.48524 -15.427598,-11.08859 z"
       id="80"/>
       </a>
</svg>

