<svg version="1.1" viewBox="-10 -10 580 580">
        <a xlink:title="Lozère">
        <path
       d="m 350.14409,101.85082 c -6.43729,2.07259 -13.42447,3.55282 -14.56657,11.32955 -7.33329,-8.31651 -9.18331,-0.90815 -10.95585,6.72238 -1.86175,6.82248 -5.09615,13.12842 -7.81885,19.62692 3.7165,5.34809 10.75278,9.65001 8.001,17.03648 4.53608,3.95768 7.03877,9.04855 5.73409,16.23571 0.94907,6.5998 -0.23944,14.81787 8.47085,15.542 -4.43931,9.73442 12.12892,-1.23039 11.72949,5.26133 -0.49044,2.91646 9.55084,10.24097 14.43569,8.83036 10.40348,1.60905 5.7328,-8.23229 12.16107,-8.84772 3.82521,5.59784 11.70163,8.13981 17.43792,6.0027 3.89455,-4.38953 6.25236,-14.52538 4.96754,-16.49403 2.90397,-5.65652 -6.82697,-13.69687 -4.10338,-15.11119 8.60237,-1.21999 5.03372,-7.63415 5.8805,-13.21365 1.1298,-6.69308 -9.26733,-9.34377 -7.68961,-17.02852 0.0732,-9.00962 -7.00834,-14.76613 -11.89641,-21.51998 -8.02136,7.20436 -8.94918,-9.23522 -13.55621,-1.6372 -1.31034,5.3004 -13.88378,8.67436 -13.33749,-0.2625 -1.63126,-4.15755 -3.26252,-8.31509 -4.89378,-12.47264 z"
       id="48"/>
    
    </a>
        <a xlink:title="Gard">
        <path
       d="m 402.77796,161.47664 c -0.86936,7.88125 -14.6654,5.08674 -4.78761,11.6998 1.35538,7.07837 4.16789,10.38927 0.96792,16.01811 0.6132,7.01125 -5.22664,13.87678 -12.48534,10.52289 -3.97038,-0.20652 -14.44226,-11.55894 -12.28069,-1.96226 -2.00131,5.21663 -12.68762,6.92195 -16.85931,2.27895 -6.17003,-6.77157 -11.09087,-4.56153 -11.37112,2.87467 -8.98434,2.23555 2.61451,8.95096 7.7611,6.60514 7.24302,3.57706 1.09321,10.57867 -3.83778,12.49941 2.97606,3.01394 6.52534,10.98584 11.72252,7.4406 5.02088,6.60498 8.83752,1.0768 11.00584,-4.40233 5.91594,-0.15792 6.98269,-10.689 14.62679,-6.21507 -0.0692,6.37081 1.47729,15.13157 8.68322,10.80615 6.92311,1.81244 8.32257,9.39865 15.14904,11.53192 7.20683,2.93755 10.15855,11.72144 9.83271,19.03098 -2.75018,1.67242 -17.03705,8.85272 -9.38254,9.11053 5.18213,1.92495 0.85737,12.49319 11.73884,7.87236 8.59533,3.37281 5.8516,-8.99505 12.81034,-10.4825 9.312,-3.32147 7.44694,-6.64509 8.07669,-13.87518 -0.46283,-10.84962 14.25197,1.74613 14.29295,-6.59336 1.88863,-6.23506 -0.16414,-15.12405 4.39271,-19.56248 4.53745,-4.23987 15.45249,-4.77682 14.07137,-12.45309 -2.97955,-6.51718 -14.10286,-9.64823 -12.0417,-18.2613 0.0164,-6.03108 -4.47281,-12.31615 -8.79001,-16.14337 -5.34518,-2.01716 -14.3901,-11.83243 -13.48066,-0.66647 -8.01399,4.58358 -6.43644,-11.27109 -13.35712,-3.50169 1.63217,10.74347 -7.15492,4.71988 -12.0232,1.0186 -7.74521,-1.10182 -9.01193,-0.69455 -7.83145,-10.83396 -1.44953,-1.83815 -4.55697,-2.8457 -6.60351,-4.35705 z"
       id="30"/>
    
    </a>
        <a xlink:title="Aude">
        <path
       d="m 253.74577,280.46932 c 2.09137,11.0012 -5.83354,4.48387 -12.44825,5.11449 -4.17755,-2.52714 -7.97006,-3.03395 -15.4258,0.52983 -0.64549,-8.99995 -11.96543,-1.17201 -7.02098,4.06673 -8.8013,0.24601 -4.66619,10.55305 -12.62435,11.45902 5.9527,4.77142 2.15118,10.94637 11.38945,12.39649 5.46546,3.31743 14.61147,4.00284 12.91469,12.44212 1.36558,8.07932 0.48044,16.29535 2.04516,24.36404 -5.08463,-1.63311 -18.08024,1.22198 -9.7368,6.83223 5.22914,4.36042 10.21696,11.16433 16.54604,4.38696 5.22246,1.8534 7.9234,12.09476 11.14581,11.21405 3.70611,-3.64564 17.65365,-4.57472 13.58423,-10.28284 -5.37995,-6.29216 -2.05474,-13.01067 6.37003,-10.07872 9.85003,0 19.70006,0 29.55009,0 -3.49209,-5.956 7.86416,-12.67709 11.56995,-7.17615 3.67969,2.80989 14.56304,12.91707 11.90597,2.23541 -0.36237,-6.46859 0.1183,-12.93462 0.28376,-19.40161 -7.26667,3.67541 -11.43077,-9.83617 -4.89328,-10.18277 4.43808,8.00298 9.89617,3.9887 14.50718,-1.46531 6.56345,-6.73078 -5.34848,-5.77358 -5.86031,-12.06573 -6.90062,-0.3561 -7.89661,-8.87875 -15.34015,-8.60774 -4.68528,-9.85223 -1.06527,-3.79425 -6.68378,-1.60227 -1.39587,2.27435 -5.02024,14.01027 -10.78174,7.91192 -1.17109,-10.70633 -10.201,2.68456 -13.12598,-7.74094 -2.62837,-3.97085 7.05941,-13.01244 -3.15372,-12.0832 -8.43283,1.00759 -16.39239,-2.19782 -24.71722,-2.26601 z"
       id="11"/>
    
    </a>
        <a xlink:title="Hérault">
        <path
       d="m 380.63678,218.12441 c -2.67557,7.38745 -10.94247,5.23678 -10.94998,13.30277 -4.30312,2.76883 -8.4735,-3.49863 -13.97504,-1.58478 -1.18424,-8.71394 -7.87283,-2.45238 -13.53152,-1.35643 -4.17951,4.2258 0.42952,13.36401 -9.70763,8.00076 -7.83809,-6.72163 -9.07127,1.58468 -7.44927,8.26528 3.82494,10.27019 -10.13283,1.0648 -11.53255,8.31106 -4.01872,3.24556 -12.46637,7.27655 -17.5381,5.49494 -4.66644,-7.13446 -10.96551,6.58126 -7.36656,9.61589 7.0746,2.76564 4.33116,13.476 -2.95207,13.36537 -3.46543,1.87611 -4.90202,9.40758 -3.59727,14.25524 3.71888,8.74818 11.64712,-3.93603 12.8349,7.03417 6.83586,5.7076 8.45593,-6.6606 11.06383,-8.18124 4.27986,-2.42204 2.41031,-8.62183 5.73059,1.27864 7.33709,0.15742 8.88087,7.45477 15.17553,8.87771 3.33316,5.09252 6.79081,8.3303 12.22923,2.98492 7.77977,-0.16596 11.24871,-6.72724 17.43328,-7.27199 7.67983,2.20642 10.07351,-5.58963 15.72532,-8.83309 10.29296,-7.76287 20.2027,-17.2687 31.52143,-22.92024 6.77615,1.92924 9.91926,-6.56004 16.1668,-7.99358 3.12654,-4.81146 -1.48643,-12.54439 -4.35928,-16.87 -6.22824,-3.04251 -11.39408,-7.26642 -15.64509,-12.16908 -4.98412,-4.63165 -12.93629,2.85033 -12.08029,-7.76864 0.60673,-6.06095 -2.17198,-5.42655 -7.19626,-5.83768 z"
       id="34"/>
    
    </a>
        <a xlink:title="Pyrénées Orientales">
        <path
       d="m 308.12763,343.00846 c -9.46666,0.56823 -6.13071,10.51898 -12.51299,9.90526 -11.32352,0 -22.64703,0 -33.97055,0 -3.12978,6.59779 9.42437,13.35833 -0.62785,15.24266 -6.26165,3.63057 -11.74842,6.0031 -18.73797,4.96343 -7.89863,-1.90985 -9.23238,5.59726 -16.56505,5.75478 -3.55146,6.24464 -13.62868,4.0972 -16.97451,8.01729 1.32423,8.71546 11.4839,10.34988 18.7225,12.11694 -1.4923,6.51005 4.39599,14.57852 11.21798,12.19311 4.36402,-4.95945 8.25434,-10.73975 15.9082,-10.18616 8.62708,2.17775 16.51998,5.64999 22.56622,12.37826 3.21081,-0.46407 10.10599,-1.10726 13.50456,-2.5397 -1.9213,-8.76323 10.72562,-3.75957 13.82787,-9.19827 3.30225,-6.04183 12.43858,-6.5554 17.99503,-4.69162 2.79264,6.15367 14.19306,8.11276 11.02476,-1.19263 -3.95869,-6.0698 -11.97002,-6.64401 -9.16078,-15.76522 -0.22658,-8.83674 -0.45317,-17.67347 -0.67975,-26.5102 -6.0724,-2.08244 -10.46626,-6.7747 -15.53767,-10.48793 z"
       id="66"/>
    
    </a>
        <a xlink:title="Haute Pyrénées">
        <path
       d="m 56.870508,259.88191 c -9.324557,1.7835 4.963311,9.54523 2.744606,14.27572 -7.76716,4.02365 2.701731,10.27011 4.441569,15.43993 -7.448044,7.55885 -7.267508,20.16912 -17.217283,25.54443 -8.516637,2.38058 3.615622,13.93955 -8.15431,10.01954 -5.236556,1.06022 0.419533,13.40346 -6.610119,15.4514 -2.8967,8.23753 1.944704,8.70685 8.134157,12.51168 7.543772,2.49621 6.386969,10.14388 12.279897,13.75482 6.4309,5.22715 14.234407,-2.08046 20.825524,-3.9311 2.698228,4.45242 11.625152,12.24451 15.01411,5.68616 1.855987,-4.65163 15.312341,5.60747 12.524781,-4.27873 1.52499,-5.23352 -4.057516,-17.40731 2.90263,-17.33354 8.64194,5.53513 4.43225,-6.86213 11.70442,-7.70409 2.69881,-9.80644 -10.17182,-7.25277 -6.71786,-10.87508 3.49092,-7.27548 -10.719499,-7.84006 -6.24866,-14.61175 3.16096,-6.39665 8.74349,-7.03288 10.76534,-14.0695 4.73998,-5.6036 -8.93944,-7.29642 -13.17398,-6.53878 -5.109757,-1.8857 -8.748297,-5.84196 -14.682461,-6.27981 -5.105145,5.42058 -11.228651,-3.49794 -10.534552,-6.21507 1.50657,-6.26467 -2.957217,-11.86414 -9.318712,-12.39163 -6.76358,-2.15954 2.558323,-11.75941 -8.679097,-8.4546 z"
       id="64"/>
    
    </a>
        <a xlink:title="Lot">
        <path
       d="m 198.26332,91.621841 c -5.25099,3.185927 -13.99199,3.561667 -12.3654,11.458929 8.45964,5.29494 -3.43203,10.27019 -3.60896,15.85404 -10.39184,0.27587 -3.13276,5.56074 -6.63978,10.41965 -1.52755,8.47417 -15.07986,0.70673 -12.3739,10.7692 -4.46546,4.52164 -5.02128,12.3693 -13.4605,9.87629 0.71237,6.0364 3.16594,13.63424 6.30261,19.63386 11.34296,-3.48532 -2.96806,10.82754 8.09253,9.64641 4.07928,9.14614 12.07999,-3.90457 10.72384,7.65705 2.29346,6.78157 11.98552,1.46006 14.52488,-3.64316 5.66339,-0.43423 9.62744,11.91544 10.17957,-1.05396 6.03921,2.24444 9.12153,-7.01479 15.84604,-2.95993 5.33672,-3.1848 15.64614,-3.5321 8.64038,-10.80429 -4.77137,-6.92366 0.75558,-11.9625 6.37117,-13.1718 4.00831,-5.78516 9.28904,-7.01244 15.7626,-7.16399 9.73998,-3.11521 -1.30529,-5.58991 3.86906,-11.92875 -8.29228,-1.73258 -1.79129,-9.14721 0.18693,-14.87374 -7.47463,-2.95712 -8.04563,-10.07872 -8.74229,-17.12451 -1.71018,-11.019507 -12.13359,4.26545 -13.50027,-3.88112 -3.26593,3.25311 -10.77174,12.01538 -14.08407,3.65737 -3.3219,-6.98872 -8.6744,-9.873972 -15.72444,-12.367549 z"
       id="46"/>
    
    </a>
        <a xlink:title="Ariège">
        <path
       d="m 177.02851,296.84862 c -10.52365,3.79352 8.26839,8.55614 0.71188,12.52727 -7.22941,-1.41257 -13.89037,4.98961 -5.30592,8.29581 -0.69235,9.98567 -8.56698,-2.06917 -14.11785,-0.93703 -6.22875,0.40233 -14.51394,4.6204 -11.73311,11.98626 6.1966,5.34143 -3.28323,9.81348 -8.78763,9.88518 -7.41094,3.86453 -0.16769,12.65961 -4.57079,16.16981 0.15097,3.84599 11.3228,3.65641 15.9094,4.5471 7.0712,-0.95994 7.19612,12.49905 15.48008,8.66743 7.28476,-1.05387 14.26339,-1.52138 16.59363,6.9147 3.07982,6.40084 11.8299,-1.77653 18.10285,2.35281 10.43197,-3.65409 5.99124,10.78403 13.55211,7.54499 7.44648,0.26926 11.27504,-6.46288 18.20465,-7.29227 3.38607,-5.6623 11.11185,-4.02187 17.51852,-4.87431 -2.48246,-2.69025 -7.48486,-14.95851 -13.42925,-8.29578 -5.82435,2.74302 -10.41919,-6.96367 -15.72368,-9.48466 1.10906,-8.70738 16.02432,1.04455 12.61561,-8.40286 -0.89085,-8.84624 -0.72837,-17.75439 -2.3219,-26.5569 -6.68983,-3.23702 -13.37966,-6.47403 -20.06949,-9.71105 3.36404,-7.29824 -5.34775,-8.22263 -10.29371,-5.63241 -7.44976,-2.98379 -11.35264,-7.1382 -7.86741,1.64102 -6.6768,4.94811 -8.11928,-4.03509 -11.81275,-8.45707 -0.63426,-0.58977 -1.85463,-0.5115 -2.65524,-0.88804 z"
       id="09"/>
    
    </a>
        <a xlink:title="Gers">
        <path
       d="m 116.23737,204.65843 c -6.98376,0.0102 -13.53285,0.66762 -16.442384,6.97916 -6.161544,0.76951 -13.839091,2.88951 -16.7092,-1.34222 -4.092576,10.7927 -10.888622,-2.9792 -12.825895,6.61842 2.201599,7.58703 -6.856475,10.16957 -7.629998,1.55806 -1.917578,-4.09416 -8.961564,3.848 -15.146729,1.14158 -9.651868,4.65569 5.475012,11.67106 -2.348842,16.0738 3.534939,6.96803 -3.288313,11.00573 -4.811394,17.40035 -2.796218,7.71796 6.550998,9.6149 12.533681,8.93075 6.69515,-5.01519 11.669969,-1.50887 10.874425,5.32183 6.230688,1.77633 12.080858,4.71767 11.423414,11.93145 -2.192382,3.67829 3.72918,12.10915 9.235238,8.37933 5.280665,-1.55846 9.82632,2.58964 13.526179,5.57222 6.392055,-1.77339 13.243575,2.436 17.933065,2.91332 7.48062,-1.72816 8.07039,-14.52829 16.83709,-11.27215 6.40544,-3.24496 13.51684,8.78159 16.14148,1.03061 3.02148,-6.86895 3.31645,-17.26394 12.28386,-18.71973 10.14318,-2.35768 0.68891,-6.33349 -2.02045,-9.49448 -7.76368,-0.65127 -4.77939,-9.76044 -10.96388,-12.78113 -2.4183,-7.46193 -9.98667,-2.19108 -5.94189,-10.71551 -2.57471,-5.52953 -3.45596,-12.59825 -12.43986,-10.2155 -0.90692,-5.28232 3.77373,-10.8689 8.05346,-13.58109 -1.44571,-1.24828 -11.8007,-1.41527 -14.99157,-0.17731 -1.96866,0.28259 -4.53738,-4.1877 -6.5698,-5.55176 z"
       id="32"/>
    
    </a>
        <a xlink:title="Haute-Garonne">
        <path
       d="m 193.14884,226.54064 c -6.4826,4.53288 -8.76496,3.06648 -14.14683,3.28259 -4.56948,4.17169 4.04892,8.67673 -6.22837,10.73455 -6.42377,4.87562 -9.09736,-8.49984 -15.55567,-1.587 -5.98124,-0.90576 -16.77599,-0.45054 -8.27311,6.74665 5.0105,3.1126 3.20011,12.79527 11.25116,11.9633 3.53631,4.72089 9.92722,7.65668 -0.5224,10.11066 -9.43561,2.56559 -7.47423,15.32857 -13.07306,21.74158 -5.11788,-5.51431 -12.6373,-4.28259 -19.42209,-5.11449 -3.41446,5.96989 -8.79547,9.73134 -13.25655,14.4158 -2.58181,6.59381 -6.48851,8.39409 -10.55877,13.53329 -6.641724,7.16657 6.67526,7.90067 5.78428,14.8119 -5.32236,6.20102 8.27559,0.42987 6.0312,10.95097 -4.90756,1.29436 -3.41484,13.08316 -9.99913,9.22198 -8.670509,-2.81335 -3.0188,10.12609 -4.3705,15.13715 -2.757647,9.6811 8.58591,5.85499 14.48407,7.24492 4.81175,-1.92183 1.40665,-13.01015 2.90445,-18.62892 3.8642,-4.64945 11.6401,6.71227 15.65361,3.09156 2.81792,-3.59853 -2.88612,-11.94127 3.94475,-15.59102 6.28017,-0.0824 14.56716,-5.08248 8.75357,-10.62075 -2.72055,-7.42172 6.65402,-11.01275 12.55378,-11.30457 5.11436,-0.17289 13.15701,10.61529 13.26271,0.89638 -9.07692,-3.05987 -1.45311,-9.74256 5.37647,-8.20146 7.4971,-3.98792 -11.04069,-8.78586 -0.7139,-12.52709 7.60829,0.72278 4.21691,12.66318 12.42434,10.46515 5.90947,-3.03629 -4.27435,-10.49485 6.84606,-4.1587 6.09385,3.61739 9.86429,-1.36463 13.95859,-3.32967 -0.71511,-6.86659 10.95747,-7.59383 6.84525,-13.65893 6.11632,-10.44461 6.57687,3.10939 13.85248,-1.74734 6.70817,1.41554 7.58347,-12.33288 0.64936,-8.41689 -8.77664,-0.0655 -9.68158,-11.58035 -18.21595,-12.48206 -10.52533,-2.44044 2.18568,-8.04501 -5.60849,-13.1551 -4.80057,-4.99374 -2.68246,-11.92226 -8.69311,-15.92814 -2.43432,-2.69134 -1.17186,-7.51365 -5.9382,-7.8963 z"
       id="31"/>
    
    </a>
        <a xlink:title="Tarn-Et Garonne">
        <path
       d="m 141.74504,169.05125 c -5.90894,7.50938 2.21042,11.68799 0.50414,18.39108 -4.61841,5.47018 1.15974,13.02123 -8.15849,12.49374 -8.8293,-0.75551 -6.34538,7.84294 -7.1053,9.91651 6.16432,0.52355 15.31949,-2.50805 6.79659,3.48557 -2.15266,4.62944 -9.07905,12.73279 2.22073,10.9308 4.63313,2.02089 7.33996,10.61378 4.57595,14.40243 1.73287,4.46899 10.74855,-2.24028 15.96792,0.2994 6.58069,-6.66968 9.42733,5.41673 15.54367,1.77951 10.64979,-1.63998 2.94567,-6.80196 6.81787,-10.4811 4.60724,-1.68018 7.55621,1.68996 13.52543,-3.4613 10.78057,2.52118 -3.50901,-10.39551 8.44655,-6.48232 4.42884,-6.57471 7.87815,-7.44676 3.01267,-10.56563 0.31057,-8.29121 11.73603,-2.38244 16.23691,-7.27729 6.70126,-2.20767 11.53134,-5.07485 7.89049,-12.08444 7.13952,-8.25871 -7.2548,-3.47433 -3.62077,-13.71587 -2.59941,-0.1591 -12.23667,2.41503 -16.21158,2.87973 -5.08993,3.62175 -10.01202,1.82697 -10.64116,9.23498 -3.70436,-4.8347 -8.89644,-8.39807 -13.38985,0.13027 -6.95145,4.16307 -10.62406,-2.24801 -10.43006,-8.54652 -4.29353,6.6852 -12.06608,-1.39214 -14.79547,-5.05435 5.87255,-8.22765 -2.64776,-5.14286 -7.60356,-3.28337 -3.97061,1.87315 -6.25352,-1.40735 -9.58268,-2.99183 z"
       id="82"/>
    
    </a>
        <a xlink:title="Aveyron">
        <path
       d="m 296.08594,104.18146 c -4.19575,4.92695 -13.44286,7.52348 -11.45905,15.30136 -2.45123,3.92555 -2.05896,10.884 -6.86247,14.47918 -0.57385,7.86647 -10.92995,5.341 -15.49504,4.18953 -5.79086,-3.97804 -9.29101,3.79024 -11.63114,7.07529 -3.92375,4.92415 -11.17485,2.49926 -15.76024,5.22268 -2.53677,7.02295 -12.30766,4.66662 -12.36786,11.96655 2.4789,7.54447 4.45861,10.90703 2.18517,18.03438 3.02529,6.14282 6.88058,3.91204 3.63756,12.99388 2.33334,5.18275 7.16239,6.98402 11.26207,1.28156 7.15137,-3.05261 10.89466,4.44846 17.21847,5.28166 7.69728,-0.8417 10.71116,4.49261 14.24755,9.78125 6.25648,1.21816 8.81976,8.50488 8.12774,14.16226 4.55407,5.56324 3.03457,12.77068 8.72849,17.52741 3.06799,5.21101 12.57203,10.37765 16.19654,2.99526 6.09855,0.65771 9.86157,7.63372 16.5177,5.63241 8.8837,2.05386 2.39505,-10.2271 4.06958,-15.2923 3.97091,-3.0631 12.46228,6.76461 15.81586,1.64151 -4.57481,-8.10993 6.07913,-8.70285 9.36812,-10.89031 -2.57031,-8.05081 12.31091,-5.58432 6.02347,-14.56449 -2.44032,-3.93278 -14.42058,1.51855 -13.4686,-7.24847 5.42085,0.21713 7.25605,-10.73013 7.14406,-11.84981 -8.41453,0.5127 -10.09366,0.96135 -13.62703,-4.85394 -7.04021,-1.8713 -4.09156,-11.78368 -5.55873,-17.55294 3.68747,-8.5257 -8.28476,-9.18844 -5.29715,-17.02579 -0.25351,-6.4842 -7.79109,-10.67642 -10.9651,-16.24166 -1.92953,-6.19569 -1.05374,-12.97047 -6.34172,-14.74457 2.16318,-10.74158 -6.31147,-7.15574 -9.76571,-10.29524 -0.56351,-2.38594 -0.11928,-5.10832 -1.94254,-7.00665 z"
       id="12"/>
    
    </a>
        <a xlink:title="Tarn">
        <path
       d="m 246.62434,194.29996 c -6.94739,-2.74154 -11.10154,8.05349 -14.16769,2.359 -4.12386,2.18968 -10.10089,4.17936 -15.15967,7.54628 -5.68543,0.11273 -16.80783,1.00078 -12.81406,7.7041 7.01177,-2.2702 -3.57662,10.72837 -7.72673,8.41623 -2.3122,0.40582 0.42615,8.16575 1.50713,13.14229 6.11571,4.0235 4.81904,10.3911 8.7598,15.68863 8.52916,5.25431 -3.06267,10.73013 4.99469,13.78552 7.36681,0.93555 10.06888,7.98339 15.1506,11.85985 8.13507,-0.32442 9.29381,2.3125 9.80419,8.10908 0.50628,4.38245 9.88905,1.4351 15.07324,4.65377 0.92374,-4.68199 3.6593,-9.93785 11.6565,-5.91813 9.03313,1.87004 18.60459,1.85937 27.20436,-1.75993 6.86682,-7.5814 -4.95249,-10.08182 -3.00976,-16.38648 1.56117,-10.65031 7.00099,-3.74038 13.00777,-4.75999 4.51365,-1.71017 17.10731,-3.90375 12.22465,-9.82684 -5.62728,-6.05027 -9.80283,-3.26904 -15.50527,-0.45421 -6.76462,-2.06948 -11.69461,-8.16875 -14.42148,-14.21891 -1.15686,-6.16971 -4.23114,-11.43763 -5.23985,-17.70605 -1.28897,-6.93309 -10.65275,-6.22564 -11.74046,-13.93099 -4.67737,-3.4887 -12.92659,-0.9965 -17.116,-6.47074 -0.82732,-0.61083 -1.65464,-1.22165 -2.48196,-1.83248 z"
       id="81"/>
       </a>
</svg>

