<svg version="1.1" viewBox="-10 -10 580 580">
    
        <a xlink:title="Vendée">
    <path
       d="m 203.40593,332.88911 c 1.44167,10.73266 -17.39452,3.54306 -11.48355,9.36823 3.41666,6.60596 -2.79876,15.03975 -10.75034,15.09869 -8.17783,-2.96887 1.51672,-13.05044 -4.70848,-18.48542 -7.91079,-2.79822 -12.05407,6.26361 -8.83337,12.83298 -1.36465,7.62099 10.33838,12.91014 0.85708,18.22349 -7.35468,-1.16412 -14.56996,-2.98591 -21.79891,-4.74328 -0.70723,-9.79395 -7.42278,-10.6236 -15.3496,-12.35298 -9.01219,-0.86124 -8.42325,-10.83679 -16.28448,-13.52808 -7.08454,-8.55136 -10.59397,4.14941 -15.476703,8.68662 -4.6153,6.21048 -11.28469,11.67199 -9.44186,20.23726 -2.72885,9.24063 8.11889,13.04906 12.814353,19.31912 8.17321,3.95761 3.5503,13.31264 11.82756,13.00212 3.87521,11.62563 7.75042,23.25125 11.62562,34.87688 10.33138,3.61605 18.00843,10.92725 25.23023,18.87221 7.60677,0.10892 16.93315,-2.43683 18.00754,7.75653 0.88972,9.98496 13.61352,0.86526 17.44078,6.88574 3.15744,8.33002 11.63213,10.66656 18.84716,14.42295 -1.76872,-13.10825 4.39891,-2.69263 11.40229,-9.96262 6.51341,-4.05553 12.75515,-8.96817 20.89239,-7.90038 1.13045,10.66057 6.93473,10.54759 14.92805,5.38874 6.10368,2.50275 11.52845,10.84603 18.60237,3.61653 7.99724,-0.70135 11.69789,-8.02391 18.73978,-11.13414 -0.87092,-10.9848 -12.50036,0.85745 -11.26945,-7.73935 7.24515,-6.13054 0.12375,-12.36973 1.41765,-18.02049 4.87173,-5.63268 -0.17253,-13.95067 0.37207,-20.75516 -8.76155,-6.15764 -1.9052,-12.43562 -4.2426,-17.85527 -7.66503,-4.88886 -7.14801,-11.32628 -4.86477,-17.53791 -4.21821,-5.40224 -14.50123,-7.96387 -14.20536,-15.48039 -0.55749,-7.13084 -5.16232,-12.32512 -8.75198,-16.45127 -6.36772,-8.9609 -18.907,0.20605 -26.26757,-7.25571 -8.32478,1.7548 -11.29499,-7.68421 -18.04804,-9.2151 l -1.20265,-0.16704 -0.0252,-0.003 0,0 z"
       id="85"/>
    </a>
        <a xlink:title="Loire Atlantique">
    <path
       d="m 185.13922,191.70077 c 2.55861,10.65244 -9.60691,6.30362 -15.2971,9.7327 -7.19644,2.93518 -4.85886,15.16883 -14.07929,12.66667 -11.61341,1.2766 -23.99552,-0.22786 -35.13504,2.76326 -5.31126,4.2734 -16.77655,4.71082 -14.5158,13.70406 1.48818,8.73738 -1.41618,14.37355 -10.563563,15.60209 -10.033831,2.80575 -18.150743,11.6083 -29.218224,9.21231 -1.714693,-8.56508 -15.540009,2.65962 -9.487423,3.8802 -1.94962,4.84605 -16.208707,8.88437 -8.71573,14.46327 5.842861,6.56906 -11.396256,13.70304 2.042339,16.28387 7.114746,4.40979 13.992514,0.39373 15.262233,-0.32075 2.886271,7.55127 11.264963,8.65458 17.691507,6.07669 2.777408,-7.07396 14.194728,-10.0064 16.963911,-7.44467 -7.500003,2.10937 -13.556781,6.99826 -8.126713,14.79276 1.7686,5.87218 -7.672229,11.27829 -13.494481,9.28894 -1.695327,11.36202 6.318871,9.30703 14.451121,7.0889 6.05999,3.80302 11.366003,10.21147 17.137103,15.01277 0.87845,5.1372 13.33166,6.44557 13.4491,14.37873 5.32109,4.76936 14.45533,4.94828 19.97072,7.55071 0.52692,9.43243 8.4827,10.51839 16.20087,11.87129 5.77238,3.92704 17.48773,-1.00548 10.76664,-7.60141 -2.60493,-5.53361 -6.0676,-15.0977 -1.54888,-20.13843 6.01262,-6.92072 12.71557,3.53282 9.15864,9.82838 -3.88513,9.28423 11.47291,7.36662 13.03581,1.56587 5.75745,-8.07799 -6.87349,-14.76793 6.79028,-12.30817 4.09885,-4.54733 8.99416,-10.35696 14.47064,-1.2681 5.4566,8.04563 14.09651,0.9296 7.09138,-5.74724 -1.72074,-7.69848 -16.48689,0.0316 -9.77624,-8.73146 -0.54243,-4.84536 13.43431,-8.52974 5.7525,-14.93316 3.23511,-11.61926 -7.18587,-6.14638 -11.07961,-13.60495 -7.23545,-5.9326 -1.06929,-13.75169 6.70193,-14.00479 10.35418,-3.57533 21.65555,-0.63756 31.92513,-2.23737 8.41489,-2.33589 4.31643,-13.19704 1.35912,-18.23547 -4.68135,-7.04231 -11.32682,-7.95419 -19.01633,-5.60733 -6.43713,-4.36783 -4.09279,-14.50212 2.71506,-17.56014 3.61452,-4.73647 -8.02674,-10.54256 -7.3221,-17.44185 -5.54178,-5.12305 -8.53139,-10.21705 -9.79212,-17.06256 -8.09889,-0.005 -12.91086,-5.20139 -17.48357,-10.36999 -2.76128,-0.38188 -5.52255,-0.76375 -8.28382,-1.14563 z"
       id="44"/>
    </a>
        <a xlink:title="Maine-Et-Loire">
    <path
       d="m 214.40632,200.88457 c -3.6617,4.69043 -2.7835,14.36941 5.14696,16.34919 2.1581,7.00333 5.11756,13.54907 10.39485,18.77129 -6.35228,3.82371 -11.13203,10.48005 -6.8406,17.4322 5.55793,4.49578 14.91052,-3.67794 18.92244,5.30678 5.18361,3.61249 8.49966,15.2003 3.16908,18.86494 -7.77564,5.19514 -18.3351,-0.34504 -27.10248,2.38417 -6.09656,1.57492 -18.32261,1.71915 -16.70908,10.42083 0.76627,8.39721 11.25002,8.63633 13.66119,12.10032 -0.15797,6.3545 6.05459,13.53558 -2.47101,17.01987 -5.5294,2.75892 -6.97528,12.70691 2.84728,9.2172 8.10895,1.99286 3.30387,12.67193 9.34274,14.76688 7.036,5.38899 18.2499,-2.47381 23.94179,5.809 5.63938,8.27458 13.38605,-5.34909 20.69192,-0.73035 7.19822,1.00841 15.14047,6.141 20.93592,-0.62619 4.56047,-5.22804 0.75932,-14.24283 12.3713,-11.28515 13.46565,-1.05242 26.51043,-5.16387 40.17,-4.30104 3.1854,10.92806 8.7401,6.57273 12.37201,-1.15331 4.36026,-6.1102 11.2123,-10.61076 15.8284,-13.19634 3.76959,-11.01339 3.97102,-23.90579 13.54666,-31.86173 7.2853,-5.65649 -2.0973,-16.77226 6.05405,-22.28389 5.68199,-5.02745 -0.73949,-12.84665 -0.71457,-16.04703 -16.39398,-6.0306 -29.08137,-19.95209 -46.82669,-22.73812 -5.9878,-3.3159 -15.482,-2.30594 -19.93944,-4.84586 1.89635,-7.67576 -7.00549,-10.77504 -13.0665,-10.15181 -7.93564,-5.20416 -13.16764,-1.13622 -18.82684,4.04291 -7.92701,0.0863 -16.37747,2.28537 -22.80578,-3.67727 -6.483,-0.41657 -15.03506,-7.6676 -20.21411,-3.77703 -4.58271,8.06515 -10.7968,-6.84938 -17.94656,-3.48928 -5.44278,0.43513 -10.62062,-1.44251 -15.93293,-2.32118 z"
       id="49"/>
    </a>
        <a xlink:title="Sarthe">
    <path
       d="m 409.78917,81.999751 c -7.75955,1.144487 -17.41775,-2.324042 -22.40879,5.546901 -5.77218,3.901556 -9.6358,13.125108 -17.76366,10.457896 -6.48849,0.60267 -15.38662,1.69243 -17.67604,8.924882 -1.86953,7.31021 -2.76169,15.26777 -1.08932,22.80591 -4.9275,4.55531 -15.57426,9.97483 -9.89024,17.76208 -0.79457,9.54583 -4.97066,8.96526 -12.386,11.04461 -4.1559,6.77707 9.00416,15.22269 0.26317,20.5249 -6.9008,1.65077 -14.24879,1.50021 -9.2724,10.41986 -0.64449,7.03451 1.68346,14.67514 -2.01842,21.08619 8.62529,2.61074 2.12017,14.37711 12.92622,11.29056 13.59472,3.1149 27.6872,6.38132 39.08254,14.95259 7.34672,4.39557 14.37491,9.43658 22.67271,11.90495 2.19306,-11.6125 8.6879,-6.15529 15.15987,-0.78883 10.71885,5.7823 7.89101,-4.56983 4.82246,-11.4226 7.63505,9.35936 9.08387,-0.89325 16.69103,-2.60518 6.9443,-2.08327 17.97136,-2.1708 10.4567,-11.3219 3.248,-8.26519 14.12025,-6.32312 17.63067,-14.19606 8.18899,-3.85449 1.97494,-16.47061 7.50492,-18.60324 7.91624,0.9091 5.91419,-11.77984 6.84152,-17.27057 1.45683,-7.75567 -11.12382,-10.33978 -1.80535,-17.85173 4.26592,-6.1476 12.30252,-12.13114 1.35752,-15.83024 -7.74075,-1.55212 -13.49842,-4.79666 -16.80373,-12.71541 -6.92884,-8.95586 -2.8004,8.31334 -8.2729,-1.22418 -8.43729,1.93619 -13.86081,-1.77553 -17.15026,-9.48657 -8.63754,-1.17437 -13.0591,-5.77024 -12.18913,-14.66046 -0.74707,-7.129164 -1.16165,-13.512897 -6.68309,-18.744359 z"
       id="72"/>
    </a>
        <a xlink:title="Mayenne">
    <path
       d="m 345.40164,64.338593 c -8.98841,-1.82849 -7.51024,10.238791 -16.74893,10.077458 -8.17313,1.81386 -17.86599,-5.548448 -24.84315,1.807057 -6.18907,5.380571 -12.32575,6.859611 -18.05158,2.617635 -5.4408,6.34826 -12.68268,6.093577 -16.67028,-1.458557 -2.02666,-5.985851 -11.60815,-12.190277 -16.40163,-6.29027 -5.99567,4.282836 -16.92694,-3.432233 -13.56402,9.20842 -2.10855,8.04549 5.26174,11.805011 2.83567,20.193074 -1.4007,6.62205 -9.60621,10.42545 -6.35801,18.97313 3.8789,8.06073 0.25771,17.88284 2.77605,25.76089 6.78066,4.56512 2.30172,13.79413 3.58196,20.63759 -6.83482,-1.68135 -16.39052,-2.37339 -17.41706,6.83805 -4.21371,9.10482 -6.95682,18.73473 -10.13434,28.1815 7.09263,2.29171 14.80586,1.92363 21.80751,2.98325 6.9761,8.33971 10.58307,2.55336 17.10207,2.008 7.72162,2.47182 15.87088,3.95432 22.55124,8.83492 7.64281,-1.05817 17.17012,2.20922 21.80333,-5.75691 5.18486,-4.78948 12.98214,4.05977 19.77608,1.51823 4.08273,-6.66977 1.31273,-15.70418 2.1192,-23.4138 -7.08343,-9.29694 8.68364,-3.92264 11.52141,-9.96619 3.53147,-6.52714 -6.90771,-13.00486 -2.13577,-19.70454 9.3963,1.18701 11.10027,-2.94611 11.51427,-10.99882 -4.57839,-7.38645 5.99812,-12.21273 10.38557,-16.65351 -1.44031,-9.36319 -1.61798,-20.06628 4.13776,-28.05601 8.75232,-2.960912 13.73166,-1.763552 8.00617,-10.945298 -1.08341,-7.829218 -13.44088,-5.473917 -10.94484,-15.884367 0.21292,-5.169967 -2.97897,-7.504011 -6.64868,-10.510932 z"
       id="53"/>
    </a>
</svg>

