<svg version="1.1" viewBox="-10 -10 580 580">
  
        <a xlink:title="Bouches-Du-Rhône">
  <path
       d="m 96.48663,304.48508 c -5.665134,4.06931 -13.960657,6.3683 -18.10721,11.45966 -1.484423,11.08371 -2.968847,22.16741 -4.45327,33.25111 -6.375495,0.88244 -17.603288,-6.40741 -20.254493,0.74751 -6.290862,6.61632 -0.363718,14.61474 -1.714586,18.67081 -7.316218,5.95637 -19.337929,7.83048 -21.627972,18.14733 -7.714905,9.97753 6.602764,6.16282 12.930145,7.34997 10.66786,1.06439 22.284784,0.45401 32.34688,3.01333 10.523387,8.12642 -9.441323,-0.0291 -9.054261,10.5638 -7.241454,7.96879 9.285494,5.38653 13.983926,8.05508 10.808077,4.23138 21.760861,-0.049 32.666101,-1.53264 -3.14802,-4.97698 -17.148096,-10.31949 -6.90311,-14.84534 4.73526,-4.6584 15.30574,1.44183 17.27995,7.04195 1.10219,9.75869 9.59315,8.08774 17.04245,8.0281 11.05981,-0.45261 22.79856,2.7118 32.77616,-3.50624 7.06643,7.02404 -8.24899,11.68131 -7.09186,14.81966 8.12782,-0.64826 17.33233,0.12658 8.78424,8.86305 -4.59941,5.611 12.39965,1.33689 17.14276,2.67203 9.70609,-0.93408 19.80181,1.39406 28.04068,6.0999 2.55486,-0.98213 -1.15154,-14.16806 6.03875,-16.8674 10.22854,-1.5391 3.62392,-13.70896 -3.99935,-11.58788 -5.39512,-5.47216 7.45928,-10.06932 -3.48662,-14.0341 -1.6514,-8.15314 15.74438,1.67497 14.80599,-5.97699 -5.46245,-5.15475 -12.87014,-9.5285 -9.76284,-18.12393 0.63617,-7.27905 -11.73688,-9.17149 -3.00788,-17.0717 1.51394,-7.12387 14.10232,-9.19783 14.89908,-13.96941 -6.3613,-6.69609 -11.89718,-6.38002 -18.11922,-0.18188 -12.04991,3.79677 -25.32165,5.12944 -36.92999,-0.81522 -9.46593,-3.71557 -18.54274,-9.56997 -29.11833,-7.18595 -6.7853,0.0452 -14.68858,-3.34244 -19.00645,-8.54721 -6.04233,-7.92317 -12.23233,-16.40406 -22.48118,-18.76526 -4.54124,-1.91975 -9.06973,-3.87065 -13.61849,-5.77214 z"
       id="13"/>
  </a>
        <a xlink:title="Vaucluse">
    <path
       d="m 120.38022,210.75656 c -8.79472,-1.91464 -12.30675,4.98567 -15.99743,11.58788 -0.42645,9.11125 3.21832,13.99643 12.70536,12.81716 -0.51899,9.1755 -12.36232,2.53926 -15.37413,10.92904 -6.921246,10.2032 -7.812677,-3.96999 -5.411307,-9.55374 -0.04817,-9.8728 -11.645159,-4.83529 -17.938577,-4.36666 -9.138092,2.21204 -4.493428,10.55118 -0.04768,15.6147 4.379039,6.21135 8.077943,12.61169 6.479742,20.48402 -0.941074,8.48695 9.411664,12.278 13.790545,18.55295 6.493675,3.38371 8.369815,14.52958 0.0014,16.46647 -2.999109,3.47568 12.151023,5.93018 16.313463,9.00629 10.19375,3.07169 13.95942,15.10124 22.0511,20.67387 7.29305,4.7781 15.42286,5.32175 23.86451,4.2874 13.0259,3.00078 24.68876,12.1162 38.69179,11.80697 9.24981,-1.08685 19.69855,-2.19994 26.49526,-9.40399 3.19004,-7.67585 -7.08319,-11.66254 -10.35162,-17.56865 -3.53052,-6.76295 -18.85319,3.26356 -16.6184,-7.18819 5.08875,-3.85013 9.00202,-13.80685 -0.21623,-15.26948 -7.76248,-0.68189 -10.63805,-14.05802 -1.73021,-14.87725 6.42291,-10.02997 -8.79787,-6.7778 -6.51175,-15.7692 -0.93518,-5.73725 -11.9753,-4.32968 -15.74289,-10.75004 0.28897,-10.11285 -8.3938,-8.96605 -15.89911,-9.29699 -5.69512,-2.18064 -17.85251,2.41499 -18.667,-5.16643 -2.73367,-6.23678 8.94494,-18.85286 -1.75061,-9.00733 -4.64225,3.57616 -16.07824,3.26455 -18.13606,-3.49928 3.33249,-5.8928 13.64704,-12.41449 3.6138,-17.10341 -1.20467,-1.13533 -2.40922,-2.27097 -3.61397,-3.40611 z"
       id="84"/>
  </a>
        <a xlink:title="Var">
    <path
       d="m 352.65058,315.25258 c -8.44097,-2.92551 -11.93036,5.85458 -19.21624,4.95587 -7.63179,-0.91877 -15.01651,-1.03014 -20.43634,5.2795 -5.70184,7.85633 -11.63673,2.99462 -17.56899,-1.72391 -6.70077,3.33429 -17.37695,2.06484 -19.1764,11.07514 -6.13298,4.48611 -12.17144,12.293 -18.66827,3.9963 -6.47474,-2.91309 -12.08398,-12.15753 -19.61609,-7.33566 -6.24532,0.60277 -17.95942,6.43794 -7.61057,10.65129 12.1146,4.11758 -0.45323,8.25607 -5.71013,12.38837 -4.25395,4.80791 -11.34265,14.03378 -1.9347,17.44409 3.43187,5.42076 -2.77637,14.95871 6.03033,18.31721 10.57957,5.99643 0.61335,9.59511 -6.91534,7.34026 -11.13493,1.78538 10.35261,8.19635 -0.87022,12.34084 -3.65758,6.73153 12.84447,3.72183 11.19934,13.04825 -7.0538,3.01719 -12.39583,9.20259 -10.87112,17.21616 -3.11321,10.73364 14.8473,6.76158 14.19509,16.4219 -0.90862,9.46663 9.51929,12.01672 15.06416,5.25554 6.11089,-3.41592 11.64464,-9.55272 19.22515,-6.70053 6.46181,-0.93288 18.89579,2.38806 8.74751,7.975 -9.54366,1.89391 18.31549,4.48594 9.64973,-0.32628 -5.60553,-6.20273 -0.3675,-14.44087 6.87764,-14.95217 6.7262,0.11175 13.19842,7.24912 17.54832,6.52531 4.96082,-3.91567 2.5599,-16.25737 12.52945,-14.59712 9.24821,4.38846 11.21235,-7.52655 18.35708,-4.50226 5.75909,2.11506 17.22175,-1.36509 14.50292,-9.26707 2.69571,-10.41983 -2.95392,-12.10336 -12.14378,-10.0808 0.45053,-1.98752 12.29834,-6.90653 13.95801,-13.18948 -0.77108,-8.9369 3.45873,-12.64381 12.30527,-11.9369 8.89398,1.16581 12.65372,-7.30957 18.08046,-12.65461 -5.65959,-3.96251 -8.39363,-11.41124 -9.7463,-15.76812 8.09389,-4.18734 0.95789,-13.41664 -6.23621,-12.53502 -7.01685,-0.48606 -11.44534,-8.64616 -10.61073,-15.43986 0.58063,-8.36333 -11.96162,-5.91101 -15.91415,-8.85999 -4.70314,-7.02061 -0.47499,-6.72745 4.97512,-10.36125 z"
       id="83"/>
  </a>
        <a xlink:title="Alpes De Haute Provence">
    <path
       d="m 372.54482,154.97065 c -3.85061,7.28444 -9.09457,13.10085 -16.81781,16.30507 0.47879,10.92384 -14.47838,2.98117 -12.20317,12.34858 -3.21682,5.06977 -3.37011,16.43141 -11.92162,13.54885 -8.19572,-0.0431 -16.57224,0.60327 -23.32924,-4.9257 -5.52656,2.43398 -12.40425,5.41851 -19.81721,3.33206 -6.12217,3.92345 5.40426,9.06763 0.62003,15.53931 -6.76117,0.40693 -12.89278,-6.38371 -14.70086,-11.85391 -8.83352,-9.81002 -5.68013,3.98333 -14.25111,3.89307 -7.20381,3.02078 -12.63518,7.84386 -15.62564,15.14894 -6.84715,8.06785 3.69195,8.66886 1.54998,17.65602 -3.53103,5.11892 -14.71284,-12.33655 -12.73777,-0.92941 0.47191,5.50344 16.3552,12.54765 5.8756,14.43396 -5.57062,-0.77212 -14.1692,-5.01588 -19.87774,-0.54111 -6.37899,1.55102 -7.99956,15.55205 -11.71299,7.53664 -7.40833,-11.01404 -6.16287,2.58058 -11.794,6.76587 -6.38922,0.5349 -8.24685,11.66514 -1.27682,12.45898 10.55505,3.54917 -3.10173,10.56678 -2.53853,15.18998 -2.71184,9.80224 13.60474,6.73249 12.27826,15.10085 -0.20905,4.61925 -11.79784,14.94172 -0.36733,13.78614 8.77378,-2.40426 13.72734,3.66971 18.55773,10.017 3.71059,9.13021 11.42197,2.20554 18.23446,0.8276 7.10753,-1.81565 12.74812,7.09985 19.23986,9.78896 5.86,6.72549 13.24657,-3.46727 17.39584,-7.74145 2.51684,-7.0383 12.29805,-5.66407 18.10443,-8.89291 6.16427,5.37707 12.29915,9.15052 18.22013,1.24996 5.3516,-6.51692 13.07989,-5.26716 20.57552,-4.77766 6.73731,0.19274 10.36815,-7.65331 18.42593,-4.98376 -2.09385,-4.86946 -1.94351,-15.39857 4.45241,-14.04886 6.47557,1.74275 11.12041,-10.03414 17.45564,-6.22624 9.28942,7.43951 10.76868,-3.24601 1.43045,-6.92539 -6.39945,-4.58955 -10.68413,-12.68282 -18.51877,-14.74132 1.08679,-7.60275 -3.37163,-13.29674 -7.58852,-19.07386 1.65522,-10.26386 1.8833,-22.87825 12.20317,-28.50823 -2.85833,-8.97045 6.98844,-10.02744 10.66495,-14.4443 -3.35086,-9.22966 3.64206,-12.82237 8.11158,-13.22627 -5.15512,-5.25189 -13.49101,-4.79391 -13.85425,-13.96377 1.76248,-8.14305 11.2512,-12.21441 13.80542,-19.13682 -2.68248,-7.91 2.49932,-11.19294 -8.26801,-9.98687 z"
       id="04"/>
  </a>
        <a xlink:title="Alpes Maritimes">
    <path
       d="m 372.74992,212.49987 c -7.83587,1.88269 -11.28839,6.82198 -11.60379,14.00091 -9.68548,5.66424 -9.51437,17.93223 -11.26433,27.73597 4.22695,5.77366 8.65732,11.47731 7.58852,19.07386 9.65368,3.53088 15.49899,13.56558 23.83341,19.50959 6.42386,9.51849 -8.65759,-0.15927 -11.96631,2.53061 -4.93528,4.78605 -12.58256,6.03961 -16.80837,7.03363 -2.46558,6.21844 3.24208,13.9218 -5.90544,16.55537 -3.80433,7.81552 6.9187,8.04382 12.40937,9.85061 8.89252,1.66543 1.14648,13.99867 8.84896,17.5884 3.15575,6.54908 15.48977,1.36603 15.75002,9.99879 -2.95743,6.25377 -3.24148,8.37556 0.22012,15.3274 7.07743,10.91608 7.80522,2.23487 7.35329,-6.24929 1.16682,-6.75163 14.78806,5.68487 16.63825,-4.76629 8.9172,2.28673 7.74268,-5.11375 7.67184,-13.06638 -2.88475,-10.05984 8.90227,-6.19478 14.96877,-7.75904 6.42372,-4.59094 10.98435,-14.02104 20.11236,-11.58788 6.93653,0.15497 4.33293,-11.87806 14.18109,-12.717 6.21982,-3.72659 -7.91347,-13.30321 -2.40517,-17.68599 8.75292,-3.23316 6.65978,-11.19215 7.00744,-16.728 7.09484,-2.18406 15.73013,-2.89527 15.21208,-12.35804 4.64356,-10.54208 -4.0709,-19.68864 -6.11552,-29.62485 -17.3858,-0.6107 -31.88866,13.37322 -49.3254,11.58788 -8.53779,-6.44884 -15.84666,-15.30609 -27.17551,-16.28504 -5.6565,-4.09225 -18.65798,2.78839 -15.79195,-7.73905 2.53351,-8.60225 -9.46347,-9.17148 -13.43373,-14.22617 z"
       id="06"/>
  </a>
        <a xlink:title="Hautes Alpes">
    <path
       d="m 318.39968,72.317272 c -10.27141,-0.498875 -2.22091,14.561663 -11.90597,12.763816 -10.3378,4.764088 -5.42528,-8.718131 -12.39782,-12.045986 -6.89086,0.33631 -17.15145,0.653629 -17.01151,9.903794 -3.73642,7.592615 -0.23777,14.5652 8.76421,12.676639 8.21369,-1.256247 5.83911,11.069325 12.65685,12.578485 0.97001,8.53968 0.92377,16.01057 -9.71287,12.34365 -5.89718,2.70906 -10.3017,8.00381 -18.39508,3.73294 -7.35838,-3.11159 -10.68454,11.30189 -18.03848,3.83257 -11.13554,3.53143 -3.1554,10.36784 -8.56576,15.64154 -3.91531,5.59646 -18.50718,-3.36473 -17.68643,5.33595 1.29454,5.83101 9.09092,10.81732 -2.45348,13.40478 -5.42057,4.74124 -16.2323,-0.12424 -19.41092,5.77388 -1.67837,6.86165 -7.93332,17.33105 0.947,21.40848 4.63953,4.86392 -7.24872,14.09156 -12.31315,6.37824 -5.89964,-3.73134 -18.33622,0.13112 -9.92595,6.54395 7.8212,4.1942 -10.78236,7.19531 -2.29589,15.81584 2.68763,6.25557 13.50792,4.55642 19.42242,7.65572 4.4951,3.8981 9.51022,10.12001 12.95119,12.74923 0.86426,3.86477 -5.11095,21.31112 0.8698,15.18754 4.47345,-6.84236 11.31775,-7.68938 18.87441,-6.73498 7.70441,6.45375 14.27242,-1.5577 4.478,-6.72603 -8.29845,-5.91481 -2.74382,-14.20041 3.76287,-4.64253 8.54119,5.08658 4.77622,-10.71369 0.72625,-10.71439 2.87528,-8.76411 7.5647,-17.84729 16.79764,-21.11173 9.66494,0.86339 5.96358,-13.43172 14.17398,-6.17252 3.99101,5.55732 6.74441,10.92476 14.51405,13.98827 8.17212,-3.29303 -3.47858,-13.21256 0.39733,-15.15578 5.72736,-2.63274 14.58992,1.94512 19.39436,-5.14865 6.84416,5.25966 14.86436,6.03501 23.21268,5.55919 9.51749,3.64948 8.84978,-6.75227 13.29427,-12.01969 -3.90304,-11.14468 11.12657,-2.33957 11.43483,-12.30725 4.62781,-5.15466 12.82938,-6.92435 15.33316,-14.46227 3.63616,-6.41872 13.59171,-0.29594 16.60965,-9.53234 11.60675,3.72468 6.72775,-8.91429 -1.70521,-9.51648 -2.51785,-5.74146 1.04803,-16.15743 -4.47749,-19.51233 -6.53706,-3.93704 -14.26237,2.40278 -20.22739,-3.68027 -8.20068,-2.25056 -12.45384,-7.31213 -11.64919,-15.97537 2.7023,-10.656078 -9.14149,-7.983707 -12.30242,-14.762545 -3.32096,-6.670229 -4.8068,-15.545938 -14.33333,-12.863186 -1.26859,-0.06327 -2.5387,-0.127193 -3.80661,-0.190177 z"
       id="05"/>
  </a>
</svg>

