<svg version="1.1" viewBox="-10 -10 580 580" class="region" id="Auvergne-Rhone-Alpes">
  <a title="Retour à la carte de le France" onclick="showMap('France')">
     <rect
       id="fond"
       width="580"
       height="580"
       x="-10"
       y="-10"
       style="fill:#fff;fill-opacity:1;" />
     </a>
    <a title="Allier">
        <path
        d="m 108.76313,126.04178 c -2.99944,5.84846 -9.573696,9.26327 -13.774183,11.00571 -4.557978,-8.45917 -9.56642,4.29894 -14.362754,7.06653 -4.038008,5.66896 6.675154,11.5615 -1.460916,15.02333 -5.115666,2.62415 -12.314421,-0.94544 -18.482424,2.35688 -3.812761,4.43514 -10.919933,10.20799 -3.983451,15.0213 2.12812,5.57697 3.350754,14.31244 8.308084,8.69169 2.505343,6.55533 10.309788,6.70024 10.938875,14.76563 0.215537,5.2269 6.937437,14.58214 11.697861,8.45205 2.641341,-4.37642 4.900768,-12.32048 9.694935,-8.97746 1.493088,0.52439 10.042753,-11.00212 13.584783,-2.97332 -5.92686,4.70874 2.4548,11.15016 6.10618,14.41715 8.39876,6.85516 19.62536,4.49994 29.41379,6.58421 8.05098,-8.34809 7.58922,4.92823 13.80687,5.17124 7.72997,-3.77532 9.39751,8.44903 15.13361,5.68716 5.59646,-1.5414 13.60534,-0.35549 9.92967,-10.26092 -0.68828,-7.16344 1.09265,-14.95991 -3.48534,-21.12614 0.0366,-7.92505 10.31355,-3.95592 13.68352,-10.34964 6.8069,-3.25011 2.55034,-12.14366 3.98197,-18.13567 -1.21228,-7.69032 -10.60485,-4.06452 -14.39428,-8.65535 -9.55833,2.54471 -5.39625,-8.22532 -9.11698,-12.79617 -3.25654,-4.58413 -5.4021,-14.81389 -11.27945,-14.20527 -2.66501,3.03297 -9.29819,16.23652 -11.51725,7.71907 -1.83144,-9.28284 -9.75216,5.38439 -12.77703,-2.71255 -3.11753,-2.22459 -11.20483,7.85485 -14.29159,-2.11275 -9.30015,-0.40076 -5.0062,-11.4217 -14.20341,-9.39395 -1.05032,-0.0876 -2.1018,-0.175 -3.15109,-0.26276 z"
        id="03"/>
    </a>
    <a title="Cantal">
     <path
        d="m 74.661248,289.73081 c -1.933346,5.15161 3.065089,15.94788 -6.683694,11.88358 -6.128715,-9.15302 -8.933198,-3.55695 -7.671364,5.04494 -4.321609,3.73676 -10.417474,7.02093 -13.129032,13.05413 2.7856,6.37778 -0.775362,11.73163 -2.566082,17.75999 -9.811086,-0.70072 -3.141636,7.6413 -3.397525,11.57222 -8.184482,2.64212 -2.130388,11.31249 -2.342396,17.32996 8.568812,3.09748 6.795503,8.96908 2.814777,15.43279 0.708157,3.77621 5.578954,7.06013 3.070017,12.12395 5.742131,2.18773 8.252787,-11.40314 14.373749,-3.71918 6.87803,0.063 14.231277,1.6845 16.548953,-5.75096 2.726513,-5.74984 5.247578,-10.09122 6.140616,-15.81705 -1.516583,-7.48104 8.056744,-9.84578 11.952538,-14.82984 0.75418,8.61784 4.297709,10.07348 10.902795,9.46021 -1.41307,9.57191 5.93482,9.286 6.33282,16.33389 -0.89213,7.42347 5.89542,15.37643 7.44159,4.01984 3.92408,-8.14361 6.0541,-16.96234 8.95198,-25.49212 7.20889,8.0704 8.25321,1.79484 13.00649,-3.2478 7.29193,-0.22168 12.69469,-7.03575 4.54675,-11.30505 -6.55041,-3.29482 3.55676,-9.39537 0.44779,-10.15322 -8.0071,-0.0864 -2.30004,-11.15063 -8.14188,-13.98775 1.62295,-10.98599 -10.78205,-3.09778 -12.56924,-9.93297 -2.12463,-6.89638 -9.78872,6.39853 -13.27557,-2.75382 -1.97033,-4.85657 -9.46418,-11.16281 -13.524285,-6.0186 -9.035843,3.82441 -7.097068,-8.21122 -14.485435,-8.4567 -2.914787,-0.85014 -5.829575,-1.70029 -8.744362,-2.55044 z"
        id="15"/>
    </a>
    <a title="Haute-Loire">
     <path
        d="m 143.74288,295.4032 c -3.85627,3.98634 -8.02456,5.59114 -13.99151,8.36296 -8.56864,-1.67545 -7.3868,7.57968 -1.77257,8.85681 8.80637,-3.03119 8.11492,5.87909 12.08366,10.61609 -4.15755,8.26687 9.98159,9.87515 5.01686,12.52104 -4.22771,2.65601 -1.29042,7.80747 3.59912,11.68278 0.84339,5.47814 4.82221,10.55754 6.69917,17.2443 -0.15561,9.29365 9.83071,4.75532 13.52447,1.68347 2.86481,-11.89132 5.43367,6.29605 11.92197,0.60614 5.95228,-1.93205 8.50237,11.5741 12.80013,10.89375 3.57713,-7.52524 10.12756,-13.55658 17.53091,-16.76213 8.52999,2.54365 11.16833,-2.98795 12.38513,-10.46792 10.21198,3.79724 3.69873,-9.35075 10.5446,-8.50758 6.52558,0.60744 -4.98603,-12.04009 4.60388,-13.54746 6.00195,-1.51111 8.50097,-12.32471 2.82659,-15.93937 -6.80429,-2.35849 -9.57573,-2.17847 -8.83249,-10.25322 -6.75238,-2.61338 -15.48756,-9.39843 -21.34209,-1.54923 -4.19001,7.57279 -11.38653,-0.28376 -16.31869,2.69336 -7.91303,-4.85215 -7.4435,-2.65619 -14.74804,-0.72942 -6.37351,-6.7193 -7.16925,7.7487 -12.72604,-1.30251 -3.09969,-4.94753 -9.36628,-5.81081 -14.92257,-3.6394 -3.28981,-0.3402 -7.85213,-0.41081 -8.88249,-2.46246 z"
        id="43"/>
    </a>
    <a title="Puy-De-Dôme">
     <path
        d="m 103.29333,194.17802 c -3.08846,9.57818 -9.658702,0.17051 -10.737035,7.88967 -4.763562,1.03636 -5.76911,13.9608 -12.247502,6.22291 -5.278668,-5.93945 -3.172866,9.98573 1.037774,11.81835 5.167439,8.16449 -4.234572,9.84711 -4.477848,17.20223 -3.040137,4.33331 -14.940749,4.52952 -11.9991,11.49738 4.547386,5.02903 14.364043,10.91315 8.878698,18.47826 -5.72713,5.9911 0.975074,11.56056 1.40995,17.79226 -2.879446,8.20122 9.308809,5.02381 12.941411,9.42562 0.694602,8.27679 9.352689,6.92701 13.475712,4.09124 7.46502,0.1654 8.0151,9.52809 13.83824,11.06696 6.31781,0.8143 7.76484,-7.27362 15.40313,-6.05713 5.38244,-3.23312 9.46862,-4.05428 12.92612,-8.20267 2.6719,2.43842 10.61317,3.83784 15.6666,0.40517 6.06412,1.92025 7.60457,6.79629 13.37064,9.52151 0.29347,-10.93788 10.42052,3.75833 13.35981,-5.24556 -0.29383,-1.24219 16.37148,7.13239 8.49088,1.11563 -5.70049,-6.86519 7.55509,-8.91932 6.00208,-14.80616 -1.68114,-6.4484 -2.25333,-13.70139 -9.63746,-16.01198 -8.08709,-3.71673 -7.14525,-14.5815 -13.78333,-20.09832 -3.72705,-6.63133 7.95895,-13.08898 1.2001,-16.46516 -4.19686,-4.11172 -8.8615,-8.37685 -13.16246,-11.23154 -9.72463,4.00246 -8.16611,-7.77009 -14.81199,-7.57341 -5.0345,4.25648 -11.88731,0.63416 -17.93385,1.08462 -7.21379,-0.27222 -14.82853,-3.44548 -19.56723,-8.4635 -7.48005,-4.33601 0.2796,-11.80432 -5.35921,-13.45649 -1.428,5e-5 -2.85655,-1.2e-4 -4.28413,1.1e-4 z"
        id="63"/>
    </a>
    <a title="Ain">
     <path
        d="m 285.21504,157.64511 c -8.63398,-0.8168 -8.09144,10.75327 -10.35099,16.59306 -2.20974,11.10164 -6.97009,21.60829 -7.20642,32.97284 -5.30249,5.58625 0.18014,14.3327 -3.64654,20.66372 5.24449,4.4113 12.1837,4.69876 16.54448,10.06174 -1.768,10.98767 6.45669,3.52035 12.74743,7.38216 4.63556,-3.68538 9.47825,3.88736 14.40708,3.58718 7.26517,-1.14561 3.76531,-15.57102 12.75482,-12.79261 5.6307,3.94021 5.34053,11.77403 11.11448,15.98309 4.5045,3.28276 8.00448,14.25501 13.15665,12.57991 5.51155,-3.48193 2.50741,-12.08517 9.69569,-12.2399 -0.9538,-7.0228 0.56093,-12.67238 3.00235,-18.26198 -0.99615,-7.65814 4.08114,-9.01972 0.004,-15.6063 -1.04602,-5.74194 -1.25567,-15.46367 4.88288,-11.84814 2.17649,-5.58174 14.77461,-6.90975 5.54901,-9.04918 -2.63602,-7.78443 5.10314,-10.98083 11.62258,-10.61053 0.31228,-5.01739 0.56296,-9.40723 4.89516,-15.12319 -4.19763,-7.13861 -10.96608,-4.61328 -14.39394,2.00981 -5.52575,4.69136 -8.87261,14.30822 -17.49798,11.99275 -8.26445,3.14432 -4.45677,-10.33654 -13.11914,-7.6274 -2.50369,4.17294 -12.93987,13.87263 -13.64445,5.6127 -1.52823,-5.09013 -9.78458,-7.4453 -11.85904,-14.08826 -3.71717,-5.03186 -11.29128,-5.29961 -13.25766,-11.53575 -6.18854,-1.83779 -9.81569,7.86704 -15.40038,-0.65572 z"
        id="01"/>
    </a>
    <a title="Isère">
     <path
        d="m 316.81836,235.6405 c -4.84726,3.91671 -3.98276,15.23185 -11.87889,13.49913 -3.45778,-7.75578 -14.20241,-4.47205 -8.04906,2.63879 9.01772,3.8658 -2.06123,9.87665 -4.40884,14.95555 -6.79387,2.57629 -14.71799,3.43265 -21.58257,6.58742 6.73699,4.64145 9.39963,10.72712 -0.50497,12.64396 -2.41113,4.08606 -3.11468,12.34553 -1.10433,17.06913 2.89151,5.77005 11.92745,5.33207 16.2721,0.95693 5.68784,-5.92905 9.34832,7.80055 16.56178,4.17468 7.69266,3.30264 2.96281,10.27299 4.41326,16.44584 -3.28804,7.71548 -1.78964,10.03711 6.17304,10.11912 5.83726,1.02146 13.3531,6.8619 17.48645,0.0335 4.95555,-6.42506 1.94563,9.70553 2.87521,13.16771 0.63297,6.46092 -0.9237,13.84398 1.00105,19.76089 5.51977,1.97205 12.55355,2.53764 17.11777,8.00142 3.24675,0.39733 17.17617,6.62568 13.09246,1.31278 -6.57777,-8.33715 7.00497,-3.94122 10.67898,-7.32423 0.13415,-4.88827 2.62603,-11.61801 9.88419,-8.88235 3.99004,-8.23686 13.44197,1.78414 17.21805,-5.53831 7.59836,2.13464 11.19026,-3.34024 7.50065,-9.83955 -3.24658,-5.52786 -6.93724,-7.65295 -13.50209,-8.4815 -3.58055,-6.12326 6.46333,-11.65306 1.51982,-15.87737 -8.92315,-2.46133 -5.10549,-0.0563 -7.96977,-8.91518 -5.68631,-5.07145 2.23545,-11.62245 3.6762,-15.35821 -0.32233,-5.60149 -6.65261,-12.3012 -12.25091,-12.46211 -3.21819,8.94397 -8.53015,-12.24636 -12.38695,-0.71886 -0.35611,8.57895 -0.47012,7.39268 -8.86006,4.38016 -7.28557,0.36569 -11.01682,-7.60148 -11.30171,-13.84694 -5.11323,-6.10827 -8.89944,-13.27733 -14.66382,-19.30156 -4.46538,-4.87023 -8.45013,-10.14054 -10.53555,-16.21706 -1.76208,-2.11448 -3.71235,-3.0509 -6.47149,-2.98377 z"
        id="38"/>
    </a>
    <a title="Haute-Savoie">
     <path
        d="m 421.0148,165.41089 c -7.73391,-0.009 -13.59016,4.10435 -18.9755,9.2514 -3.74052,-8.82919 -10.32679,-0.154 -11.26659,5.62331 1.29368,6.87413 7.79255,8.91658 -2.43411,12.70597 -4.2194,5.9977 -10.49633,5.78177 -16.7378,6.46174 -5.6729,2.95123 -10.08901,9.10728 -14.01487,7.03021 -2.0406,7.01107 0.87748,12.76876 1.56893,19.37103 7.5876,2.14695 -0.15433,13.52052 5.68533,15.20343 8.33086,-1.58823 7.25292,10.06672 15.85891,7.78884 4.27053,-6.92212 9.97898,1.90724 13.84595,5.83813 7.45503,2.89014 11.34218,-5.02378 11.74854,-11.68384 7.41489,-2.57242 4.0409,-15.09263 12.54087,-15.31172 5.43211,1.68134 -2.11368,12.29416 8.17922,11.19248 8.27909,-2.94567 4.90917,14.12311 10.48081,6.73107 7.35574,-3.00001 4.72206,-8.22372 9.79786,-12.24458 5.0545,-2.64757 14.40161,-3.25237 12.81773,-11.05886 1.29255,-7.69949 -5.45515,-11.72177 -9.92308,-16.7867 -7.10387,4.83524 1.58217,-12.0195 -7.92819,-10.81538 -9.2744,-3.19144 3.70706,-8.60221 1.17534,-14.31284 -2.31495,-5.04465 -8.98408,-9.96207 -9.13514,-14.98369 -4.428,0 -8.85657,0 -13.28421,0 z"
        id="74"/>
    </a>
    <a title="Loire">
     <path
        d="m 190.67517,191.00418 c -8.14121,-1.41887 -11.1445,6.09867 -5.87498,11.81748 0.27011,8.01338 0.54023,16.02676 0.81034,24.04014 -6.88719,-1.69976 -15.5779,2.5602 -6.26352,7.71374 4.45841,3.18264 -6.66639,11.08117 -1.26361,16.86968 6.3093,6.07225 5.55111,17.01954 14.77006,20.15629 6.99476,2.58382 5.92258,11.0206 8.35615,16.91379 -4.56804,3.15243 -12.64482,10.99836 -3.61725,13.64913 6.84413,4.55981 12.21425,1.2702 17.18684,-4.13638 6.45766,-3.29007 12.72458,3.1049 18.91161,4.80329 -4.3897,10.76568 4.72001,5.06992 8.82499,10.95106 2.8113,4.52601 14.9503,2.11372 14.63796,-3.89358 -0.56369,-7.9305 13.1108,-6.09309 11.28826,-14.34713 2.48531,-7.3128 -0.28068,-12.87004 -8.04486,-8.23985 -9.75618,-0.55257 7.37826,-11.40318 -4.23374,-12.20899 -6.81717,-0.5235 -13.27393,-1.78932 -17.46161,-7.72853 -9.12222,-3.79873 -2.29564,-9.97934 -3.65939,-14.79643 -3.75698,-2.64383 5.25019,-12.1139 -3.56126,-15.12412 -1.42454,-6.01048 -5.74351,-10.41759 -5.99483,-17.34881 0.59302,-4.134 0.4786,-14.59825 5.55971,-14.70711 10.39828,2.22619 5.91134,-7.06503 4.07991,-12.16344 -2.43218,1.46831 -3.08505,9.31865 -10.04714,9.83583 -3.73028,-0.92612 -11.2757,-3.37422 -17.11635,-3.61489 -6.77962,6.85853 -8.83059,-0.97799 -15.59908,-1.28304 -0.85437,-1.87776 1.13598,-6.98406 -1.68821,-7.15813 z"
        id="42"/>
    </a>
    <a title="Rhône">
     <path
        d="m 260.29703,185.1292 c -7.35499,3.24833 -9.40225,0.67313 -14.72121,4.18677 -3.91438,-6.5345 -16.14418,-2.43293 -10.16335,4.13586 1.43455,5.32252 5.78786,14.21096 -4.44923,11.93591 -4.65258,0.57522 -5.40684,10.77388 -5.33115,15.25774 0.38512,6.69714 4.32386,11.19044 6.02535,16.96139 9.20418,3.22708 -1.50029,12.95649 3.98859,15.32051 -1.2043,5.13548 -4.82777,10.85868 3.23232,14.5994 4.75059,7.01451 12.99721,6.82858 20.54081,8.09058 2.2994,5.49824 -7.55425,14.48079 4.55933,10.26238 4.44083,1.37073 17.54802,-1.92179 12.08573,-7.39313 -9.98961,-5.81317 1.0967,-7.5214 7.23132,-9.15076 7.46018,0.0221 11.81084,-4.80432 15.46118,-10.72266 4.51418,-4.17919 -4.95787,-9.47628 -5.32057,-13.25577 -5.70657,-4.38024 -14.60171,4.06268 -12.78379,-6.60941 -3.28393,-6.40957 -11.46181,-6.19623 -16.64127,-10.87328 3.51361,-6.83125 -1.15183,-15.60139 3.73659,-21.75927 2.95523,-12.9393 -2.21104,-0.79684 -4.49814,-10.11046 -0.50558,-3.75934 -1.81006,-7.27993 -2.95251,-10.8758 z"
        id="69"/>
    </a>
    <a title="Savoie">
     <path
        d="m 358.07826,225.10606 c 0.65388,6.92645 -1.91741,12.42706 -3.64654,17.95142 2.91073,9.07079 -3.47992,9.66911 -5.90461,14.70069 1.46703,6.55838 -10.94923,8.18216 -2.11505,13.72504 3.49333,4.28577 2.85991,13.56321 9.22307,15.60674 4.89338,-1.05009 16.66785,9.11276 11.62713,-0.46532 1.42007,-9.59242 8.76406,-5.73029 11.47984,0.87787 4.13926,-8.27796 10.3041,2.29486 14.24851,5.53734 2.5636,7.41726 -6.79963,8.70863 -5.51187,16.83233 7.34307,2.68697 -0.56642,14.37038 6.45324,8.99091 4.45768,6.6487 11.0446,3.26991 16.21087,7.19818 -1.57198,9.07556 12.14639,6.84522 9.7241,-1.28304 5.93961,-3.33233 12.37064,0.46534 17.87144,-4.0083 5.32997,-6.17571 11.75413,3.43377 15.91293,-0.73399 0.20795,-6.50051 8.75044,-9.14986 14.03266,-11.81644 9.54018,-0.90398 3.23967,-10.81246 5.64601,-15.25537 8.24694,-7.89246 -1.71549,-7.01651 -2.69799,-14.66529 -7.44716,-4.6474 -15.47154,-8.28424 -11.48229,-19.30494 0.34297,-8.83235 -12.89385,0.64164 -14.76581,-9.43089 1.24352,-9.46417 -3.83177,-8.46204 -9.15575,-2.42584 -0.96874,0.16744 -3.58409,-12.35253 -11.21912,-8.2548 -7.5744,-2.44698 1.91675,-12.49594 -7.14725,-10.86664 -6.51192,2.69757 -3.53509,12.47784 -10.56753,14.98588 -0.37361,6.66781 -4.35908,14.65068 -11.78442,11.64796 -3.88704,-4.30728 -9.72169,-12.39117 -14.09004,-5.83564 -8.43157,1.97988 -7.38764,-9.68687 -15.95291,-7.81625 -4.85921,-2.69316 2.02385,-13.82074 -6.38796,-15.89112 l -6.6e-4,-4.9e-4 z"
        id="73"/>
    </a>
    <a title="Ardèche">
     <path
        d="m 267.86022,300.06267 c -6.22156,3.00879 -12.02265,6.32392 -11.68243,14.11345 -6.88263,0.65016 -13.52311,1.66793 -12.91747,10.1043 -1.94497,5.06252 -13.12697,6.63311 -7.47589,14.6631 0.88735,4.01799 -7.58625,4.1007 -6.56661,11.2344 -9.21904,-3.37878 -5.09346,10.62837 -11.2312,10.93038 -7.28462,-1.86219 -12.34684,3.05503 -17.67585,7.15842 -4.03887,4.6959 -8.91944,9.9986 -5.433,16.13576 0.80585,6.84857 2.16385,13.41884 8.10517,17.67903 1.28686,5.96262 -1.6184,12.93315 7.51817,14.74617 3.94534,4.47648 -2.26632,16.33003 7.1603,10.99223 4.04325,1.60389 13.52593,11.85148 14.45146,4.50512 -0.20191,-9.7135 9.01656,-5.35698 9.55951,0.18533 8.13943,1.05807 3.82525,-12.26288 12.77353,-3.2797 7.20503,7.65062 7.51474,-1.76665 15.03499,-1.47175 3.28147,-7.42482 -4.06229,-10.67175 -1.85557,-16.48047 -1.82874,-5.11075 -2.48515,-13.01359 3.12932,-17.27619 4.6286,-6.13111 0.77119,-14.99895 -0.32835,-22.02186 6.65391,-0.37979 5.44477,-9.88274 9.58004,-14.32848 4.32806,-7.13162 -3.28436,-14.09372 -4.04271,-21.46161 -3.53132,-9.71193 -3.57962,-19.85702 -3.24136,-30.05018 -3.4003,-0.06 -3.30991,-3.88147 -4.86205,-6.07745 z"
        id="07"/>
    </a>
    <a title="Drôme">
     <path
        d="m 288.79404,301.75088 c -3.89475,6.18924 -14.33424,4.06702 -16.07177,6.58784 -1.43589,15.40318 3.315,30.33688 9.18387,44.39616 -1.65322,6.48483 -6.67421,11.62656 -7.3606,18.36775 -8.53367,0.45289 0.65605,11.32427 -1.82327,16.97607 0.48856,6.78812 -8.30422,10.0724 -6.78216,17.69622 2.11641,5.84343 0.66652,10.22599 3.89707,15.26575 -4.77674,10.55871 8.61459,2.26358 7.43379,11.05531 -3.06959,10.76426 3.25554,6.73855 8.16251,1.9305 12.06688,-2.0184 -1.30464,-3.22671 -2.02477,-7.83521 -2.21506,-5.975 4.40332,-14.74448 10.64214,-11.18399 10.25367,4.08855 -1.79233,9.24047 0.28615,14.66323 3.71718,6.23728 15.45169,-3.50252 13.58097,-0.73068 -5.09455,6.67665 0.41235,11.76999 7.68488,10.2315 7.63559,-0.451 12.68802,0.75622 15.27798,7.64861 4.23507,5.45091 13.80022,4.8575 14.88953,-2.73452 1.70283,-7.99728 9.39063,9.944 7.67978,-3.84088 3.74103,-8.96905 -3.01586,-8.6549 -5.77126,-15.38925 -5.57156,-2.70721 -15.93323,-0.72913 -15.62536,-9.18712 5.05032,-5.37618 1.6104,-5.28664 1.30932,-11.94929 6.81472,-1.68263 13.26247,7.29655 16.90477,-1.64434 -5.74703,-3.13563 -4.23379,-10.76044 -1.53108,-16.62534 4.60525,-2.08349 12.85543,-0.73922 16.67235,-5.49358 -4.28012,-1.60446 -11.92144,-3.02509 -16.81012,-6.30035 -3.71473,-6.51259 -14.79716,-1.19463 -15.32936,-8.93775 -0.12642,-10.72455 -0.25284,-21.4491 -0.37926,-32.17365 -3.8278,4.33189 -9.3995,7.66049 -15.81398,3.5188 -3.8462,-3.80834 -14.57561,0.92 -11.94223,-6.06142 1.34203,-5.87427 2.59981,-13.11526 0.58112,-18.10153 -3.19918,-6.43825 -12.05953,-2.1329 -15.89124,-9.3055 l -0.85045,-0.69648 -0.17932,-0.14686 0,0 z"
        id="26"/>
    </a>
    </svg>
