<svg version="1.1" viewBox="-10 -10 580 580" class="region" id="Bourgogne-Franche-Comte">
  <a title="Retour à la carte de le France" onclick="showMap('France')">
     <rect
       id="fond"
       width="580"
       height="580"
       x="-10"
       y="-10"
       style="fill:#fff;fill-opacity:1;" />
     </a>
 <a title="Yonne">
    <path
       d="m 88.795175,71.827737 c -6.077806,6.794491 -15.836693,1.807915 -23.766293,2.675856 -6.396233,1.131263 -12.723117,4.859591 -14.185151,11.751608 6.518686,5.313763 -0.173408,10.205005 -4.630126,15.463019 -6.708995,5.76919 8.149601,8.62924 7.866234,15.34092 0.200297,7.63916 10.8129,10.05647 8.498153,18.10967 0.733797,7.24882 -8.933703,9.65259 -12.890243,14.7166 2.032995,3.14313 7.193468,12.21005 0.152424,15.74688 -2.736455,7.03762 -16.839158,-0.8476 -14.265892,6.58033 2.260837,6.95533 9.519938,11.58621 8.975657,19.68235 2.323035,7.98584 -3.012589,8.5261 7.50072,8.91796 3.576517,-3.09432 13.307117,-7.02542 11.863412,2.55816 3.194288,3.95885 11.639868,4.20114 15.96969,7.19139 5.300667,2.69769 10.549306,-2.24832 16.502085,-1.54031 9.113125,5.46987 2.348471,-15.51314 7.473225,-7.11917 4.7524,3.62952 5.63446,11.15529 10.0649,12.31726 9.75741,-1.93722 12.3757,13.18827 22.24049,11.05698 -0.0642,-4.57808 9.44119,-10.99433 4.56092,-0.68399 -0.09,7.24228 13.801,-5.79874 9.85621,6.36048 1.51212,8.78222 11.07851,1.9809 15.30027,-1.57889 0.38107,-2.49492 -10.86177,-9.61579 -0.79243,-12.05793 7.02624,-3.09336 -2.06552,-11.47568 4.54753,-16.01469 3.71713,-6.50076 7.66774,-13.30257 8.7336,-20.82443 8.32946,-0.81748 -2.92781,-9.77239 6.75909,-12.02274 5.09717,-4.57096 2.98994,-14.85354 -4.49788,-14.0087 -4.07581,-7.7569 8.30064,-8.93169 4.10487,-16.50422 -0.74553,2.91177 -8.16477,5.53294 -10.81372,-1.57873 -5.98058,4.03292 -12.45286,5.72962 -19.59074,4.26397 -8.12586,1.19555 -12.74889,-1.58408 -15.52941,-9.07036 -6.56437,-4.84071 -1.81909,-14.23063 -8.41074,-18.90254 -3.83545,-10.47285 -10.10663,2.1646 -15.42271,-6.11407 -8.20039,-3.08871 -0.68813,-12.638303 -3.33869,-18.212981 -5.22577,-3.997714 -8.71206,-12.07247 -15.08109,-13.390594 -3.526519,0.703158 -5.363598,-0.742713 -7.754365,-3.109088 z"
       id="89"/>
     </a>
        <a title="Haute-Saône">
        <path
       d="m 371.30217,120.64884 c -9.30208,-1.2826 -10.09908,5.70434 -16.11368,10.02024 -7.92076,-6.90224 -2.7836,1.3314 -10.1035,4.18074 3.57611,5.85206 -7.05504,6.97061 -5.32405,13.10859 -6.55398,-0.64049 -9.97711,5.2478 -13.90772,8.03601 3.72987,6.12242 4.28265,4.98832 1.41371,14.33642 -0.19316,5.58799 -10.68505,5.5151 -15.28753,6.24035 -4.58695,-3.75275 -15.49383,-1.98984 -13.61479,5.28779 5.75611,0.51092 9.84421,7.10185 10.3824,13.55006 -0.0762,6.18604 -13.7189,9.73245 -9.94219,13.32291 5.91005,2.99475 4.12786,11.12225 9.6008,12.8931 -0.85127,7.12549 1.97201,12.60498 8.57354,14.57307 5.17953,6.35994 11.05603,-0.97075 16.71143,-0.0977 8.03708,2.66156 11.08048,-9.23601 18.53675,-8.4821 4.90547,-5.97008 14.20128,1.36974 18.62911,-5.82306 5.81105,-3.79131 10.99511,-5.12959 14.43799,-10.63993 6.1902,-2.36455 6.84397,-11.50536 13.80587,-13.99032 7.03912,-4.96809 11.62796,4.24683 18.61312,1.55255 5.86184,-0.821 5.37762,-8.40323 11.31683,-12.35769 7.85944,2.37126 10.90038,-5.48437 10.67174,-11.93218 1.5528,-7.64199 -7.48239,-18.30764 1.84865,-22.94004 10.90453,-3.32043 -3.66587,-6.9398 -7.53294,-9.83755 -6.39441,-1.40952 -9.00585,-10.52905 -15.31878,-10.49972 -4.01875,2.47746 -8.64937,12.38309 -13.57125,3.95314 -3.1967,-6.75618 -11.97623,-7.03904 -17.69278,-4.16046 -4.22726,6.00721 -14.92437,0.4658 -13.65636,-5.75049 0.97603,-2.81853 -0.58894,-2.96667 -2.47637,-4.54372 z"
       id="70"/>
        </a>
        <a title="Côte D'Or">
    <path
       d="m 209.62953,125.35449 c 1.1539,7.78648 -6.87991,11.34106 -13.50925,10.66709 -7.01258,-0.1254 -14.55094,-1.23931 -10.52318,7.90342 -7.50561,2.14749 -7.0903,13.06237 0.56677,12.31295 5.29431,6.31976 -1.63552,12.84588 -5.5245,16.70738 3.93715,6.89964 -3.10221,5.90841 -3.36118,13.16244 -2.78079,6.96363 -6.93893,13.59776 -10.16757,20.02919 2.38408,7.14165 -0.6346,10.96658 -5.979,14.28275 -0.93007,6.54145 10.49669,7.81962 6.48223,15.7675 -4.06512,7.84749 3.75806,10.98745 9.50978,12.3778 7.10439,5.30044 -4.00512,9.46724 2.47236,14.61434 4.65145,4.94183 8.724,11.31241 16.46006,8.6412 6.89206,0.41849 11.49643,7.89863 17.58925,11.0213 0.25155,7.99769 6.35347,7.55637 12.33754,11.70781 5.21129,4.29011 12.36894,-2.84604 18.43487,-3.57315 5.40929,-2.97558 13.35868,-1.96855 17.31007,-6.38623 6.49949,0.11196 12.39264,5.57612 18.24555,-0.46626 3.96634,-3.26716 14.58204,-0.62428 10.30382,-9.14799 -0.96646,-8.0483 13.40711,-5.58521 11.19632,-13.57788 5.98204,-5.03499 5.52488,-10.73984 6.71066,-17.53133 0.0658,-7.95243 5.01926,-9.56706 0.5584,-16.22134 2.91134,-9.7201 -7.45556,-6.58861 -5.97082,-15.45367 -8.37198,-5.07762 -2.99949,-6.458 2.95392,-12.26971 6.28233,-4.0915 0.86287,-13.01193 -2.75289,-16.44542 -7.31611,-2.99742 -7.12034,8.37932 -16.05643,6.3777 -5.75605,1.29028 -7.7476,-11.53953 -13.23036,-11.942 -7.27507,6.74111 -10.37942,-3.64081 -16.60869,-2.37547 -6.74874,1.68281 -3.2856,-11.50916 -8.36561,-12.6866 8.63933,-4.96295 3.75814,-10.67817 -1.31836,-16.40426 -6.86252,-8.54859 -14.11802,-20.18976 -25.92237,-21.09156 -3.94696,0 -7.89523,0 -11.84139,0 z"
       id="21"/>
        </a>
        <a title="Nièvre">
    <path
       d="m 57.368166,196.69548 c -2.874274,9.09199 -12.560798,-0.0321 -18.507232,3.87722 -8.905688,3.05231 3.848877,10.6193 3.718051,15.76201 3.131995,7.6482 -6.692373,12.00541 -3.657739,18.92704 2.422771,6.14864 12.882158,7.50841 10.423358,16.04997 2.936292,6.65485 6.94705,13.03865 4.559212,20.63001 -1.124126,6.7413 9.279854,9.25136 4.571255,17.17654 -1.069033,6.34284 -1.740181,13.04486 1.077949,18.47478 -0.896942,5.63639 -8.09514,15.47953 0.70678,17.63575 6.994604,0.47794 9.342139,13.56672 16.125016,6.45286 7.507597,-7.70926 5.835597,4.63067 15.015271,1.14151 3.923052,-11.03159 7.383193,4.8501 10.586093,4.1817 5.9182,-1.627 7.89222,-12.58421 12.93329,-13.53152 5.35671,8.60429 9.68922,-1.21804 16.71125,-0.0639 0.60312,9.21176 8.26948,5.85924 12.48601,1.85109 6.26981,0.43229 9.30253,-7.85294 14.31228,-8.20453 13.46297,3.05935 -3.16155,-7.00484 5.55547,-10.02013 7.29799,-4.13482 -7.22156,-6.42546 -3.25531,-13.39709 -2.7575,-6.90865 -1.56727,-9.11628 3.87075,-15.19238 -3.4093,-3.82591 -7.17657,-11.28341 1.62721,-14.47857 5.89331,-3.53814 13.25958,0.033 12.45214,-8.38659 4.37483,-5.52248 -6.20477,-9.37557 -10.27889,-10.45 -5.12809,-3.57428 4.07543,-16.72379 -3.39842,-15.15808 -3.92735,3.80552 -13.60475,9.36672 -14.40464,0.69733 3.65104,-11.8284 -10.03609,1.21732 -9.87194,-6.07724 4.06,-11.44539 -3.63573,-2.19974 -5.26773,0.65073 -9.51814,1.62093 -12.08981,-13.30059 -21.85243,-11.0361 -3.09593,-2.31123 -6.29958,-8.33486 -9.88674,-12.88732 -4.790158,-6.36531 1.43802,13.35045 -7.74346,7.57627 -6.134832,0.85067 -11.448144,3.06676 -17.082429,2.16124 -3.695424,-5.71253 -12.755459,-2.50807 -14.939319,-7.90476 1.99975,-3.81955 -3.088624,-7.34009 -6.585106,-6.45783 z"
       id="58"/>
        </a>
        <a title="Saône-Et-Loire">
    <path
       d="m 177.61431,261.39815 c -5.17656,0.22789 -13.1233,0.8875 -16.24245,7.02592 -4.66145,5.23589 9.76506,10.63737 -0.7315,14.65368 -4.65705,4.94315 2.47917,9.72108 0.74725,17.24297 10.67689,3.68554 -0.61964,6.27019 -0.32712,11.74718 9.96902,7.54027 -5.3897,2.55813 -6.73073,7.78281 -4.85182,4.16212 -10.318,4.76143 -15.11692,9.19114 -7.47725,4.6747 -6.09828,-11.65114 -13.78291,-4.27049 -9.92603,2.60995 -0.42982,10.43896 1.47941,16.22924 5.5184,4.46667 -0.45907,14.2507 6.61969,16.52722 8.24581,-2.55817 10.46072,6.84914 18.75164,4.20148 7.49137,5.444 2.80714,16.22808 3.77311,24.28774 0.31191,4.46583 -14.89544,8.77111 -8.94203,10.8368 -3.53561,10.27061 7.35779,6.95686 9.28905,13.24854 6.04192,1.86726 11.49998,-6.14357 18.39119,-2.04543 7.01891,-2.0408 12.04793,8.47976 16.20264,0.62554 8.81929,2.48021 6.59585,-7.81653 8.48113,-13.47865 0.002,-8.50342 10.66684,-5.0506 14.35537,-0.95491 5.80448,-6.79869 8.09419,2.48676 14.84086,-4.90298 7.16619,-1.27504 5.51112,10.96239 7.64817,15.81313 3.05609,9.00954 8.11172,-3.86845 8.53665,-8.45438 4.36545,-13.68135 5.33135,-28.69631 12.50158,-41.27738 7.20936,-3.84042 11.08862,8.65611 17.62846,1.80972 7.42352,-7.40636 9.57927,4.45952 14.80689,6.67726 6.67307,-1.20786 14.36244,0.0144 19.07469,-5.88207 -3.42063,-4.50481 -13.69684,-7.03126 -7.1505,-13.88996 5.858,-3.20113 6.91737,-12.32455 2.26298,-17.19556 -6.98862,-4.69248 0.39992,-11.36724 -5.84778,-15.34949 -8.31682,-8.38045 9.07647,-3.28795 10.20787,-8.76047 -0.5793,-4.05415 -9.68212,-4.80636 -13.24111,-7.64563 -4.28386,-6.04192 -7.68827,-8.31308 -9.55427,-13.03332 -5.73946,-0.55827 -11.3788,8.93327 -17.25239,3.57321 -6.16189,-3.13227 -10.60362,2.82126 -17.23391,3.15111 -7.60898,2.2723 -15.0261,5.11762 -22.52303,7.72459 -3.489,-6.72007 -15.63388,-2.94786 -13.48764,-11.99133 -4.3277,-4.82177 -11.08501,-8.416 -16.2588,-12.88138 -7.45854,1.60915 -13.48222,-0.32304 -17.6146,-6.92307 -1.25596,-1.00008 -2.11757,-2.70541 -3.56094,-3.41278 z"
       id="71"/>
        </a>
        <a title="Jura">
    <path
       d="m 311.22112,233.66843 c -2.58218,2.66651 -3.39002,11.15161 -4.15833,16.71249 0.43358,5.64382 -6.20749,11.62035 -7.6198,16.17652 -7.9183,1.21693 -9.84285,8.25626 -8.93939,13.80738 -8.1956,5.92836 0.78373,8.62564 3.88075,13.64648 3.54667,3.94849 9.5272,4.86282 14.48381,6.79666 1.31583,9.29001 -16.79581,0.6231 -12.10024,9.91547 8.81581,2.73803 -0.67989,10.49798 6.34652,14.67624 4.42752,4.91183 5.315,13.17088 0.21576,17.61616 -8.10802,4.62503 -0.76642,11.59981 4.67119,13.69869 0.31975,6.25642 -10.33708,6.26222 -15.57022,6.87787 -4.40428,0.0484 9.54497,5.26553 9.70489,11.06381 1.35987,7.61244 12.97483,6.49889 11.43775,14.08327 0.74098,6.89103 11.9279,-0.13024 13.93721,-4.83544 2.38103,-7.50666 14.27892,-2.02589 12.36401,4.33127 2.13287,2.90686 14.09163,3.42796 17.4747,-0.67998 6.52742,-7.18018 13.05485,-14.36035 19.58228,-21.54053 -2.17392,-5.9237 0.40553,-14.03508 5.85736,-18.3909 2.39126,-4.26346 -5.33328,-7.81192 -9.17445,-9.53018 1.70514,-5.39953 5.74835,-9.87741 0.46009,-16.19437 6.52946,-1.23234 13.9908,-4.49459 13.41345,-12.35436 -1.53479,-5.83179 -8.64976,-9.99332 -14.79319,-10.94107 -8.58065,-0.63197 -11.20995,-5.59269 -9.54409,-13.67753 2.25018,-10.42287 -5.71506,-6.71224 -12.29504,-7.85976 -5.70924,-2.42693 -16.54298,-2.54913 -9.87326,-10.4849 2.81943,-5.82934 6.60865,-13.57335 -0.61339,-17.73845 -9.01956,-0.73103 -3.40835,-13.07831 -9.91031,-12.86036 -4.18088,3.25116 -11.4326,4.27532 -15.20502,-1.22209 -1.34414,-0.3641 -2.69009,-0.72845 -4.03304,-1.09239 z"
       id="39"/>
        </a>
        <a title="Doubs">
    <path
       d="m 435.5847,185.77165 c -5.74203,-0.45192 -11.8948,4.38922 -13.61278,9.38764 -0.47781,7.02459 -12.33131,3.48466 -16.23497,0.61351 -8.66789,-0.13535 -14.29395,7.4417 -17.71293,14.53545 -6.82073,1.66702 -7.13738,9.08444 -14.93026,9.65659 -4.46115,6.8378 -11.96972,4.62032 -18.3924,5.73621 -5.88905,2.18515 -11.09854,5.98665 -16.08664,10.57229 -8.23242,-3.02065 -5.48159,10.95293 0.55295,11.76848 7.15141,3.35572 6.1538,10.99811 2.56302,16.7647 -6.32972,7.79077 -0.49196,10.07469 7.18555,11.60595 5.75164,3.51887 16.43688,-3.56727 14.12098,7.31991 -0.0347,6.76245 -1.58817,14.27194 7.5903,14.202 6.94855,1.25406 12.59747,4.50301 17.06062,10.01607 0.60172,7.21158 -4.64826,12.71721 -11.6825,13.32845 -2.52666,3.16283 4.08001,11.44551 -2.56257,15.26488 2.15633,7.82338 10.89831,-0.0677 14.13505,-4.16219 8.38352,-7.86361 16.76704,-15.72723 25.15056,-23.59084 -0.33612,-8.40294 -0.67223,-16.80589 -1.00835,-25.20883 9.05664,-5.40482 21.42921,-7.81778 26.78728,-17.33831 -2.34162,-8.86287 4.9614,-10.32 10.03721,-15.1222 4.86717,-5.62159 9.73435,-11.24318 14.60152,-16.86477 -6.9508,-8.04413 4.90244,-7.53742 7.43255,-14.14097 6.55972,-7.6888 -7.32332,-7.03572 -12.12372,-4.59443 -5.1269,-2.34413 6.69336,-10.21419 8.922,-14.48458 -3.27982,-3.57407 -12.34802,-5.87952 -17.85422,-8.96564 -4.64608,-2.09979 -9.29217,-4.19958 -13.93825,-6.29937 z"
       id="25"/>
        </a>
        <a title="Territoire De Belfort">
    <path
       d="m 446.42449,148.96676 c -7.34743,2.03717 -11.61768,8.16494 -8.07047,15.50771 2.00017,6.76031 2.6077,16.14271 -2.76932,21.29718 10.78377,4.87371 21.56755,9.74741 32.35132,14.62112 6.84278,-3.39064 11.26019,-4.05793 6.69776,-13.2846 1.81881,-11.26863 -10.52352,-2.0659 -10.0121,-10.47605 0.72677,-5.43678 6.1063,-13.51093 -0.47372,-17.95295 -4.11813,-6.65146 -12.81185,-4.7225 -17.13097,-8.52742 l -0.50203,-1.00405 -0.0905,-0.18094 0,0 z"
       id="90"/>
        </a>
</svg>
