<svg version="1.1" viewBox="-10 -10 580 580" class="region">
 <a title="Retour à la carte de le France" onclick="showMap('France')">
     <rect
       id="fond"
       width="580"
       height="580"
       x="-10"
       y="-10"
       style="fill:#fff;fill-opacity:1;" />
     </a>
<a title="Eure-Et-Loir">
   <path
       d="m 241.87307,13.068844 c -9.06527,3.214195 1.1791,16.507694 -10.1749,17.367462 -11.97279,0.995737 -4.25145,12.787293 -11.18044,18.262633 -8.13769,1.353302 -18.22769,1.878794 -25.99322,-2.672861 -11.39091,4.609972 -21.38677,14.905985 -34.38539,12.963175 -7.61508,6.036191 -10.37075,8.929044 -7.20519,17.673093 -1.55567,10.844466 16.97117,11.718377 15.06331,22.722504 -0.59238,8.99423 4.46464,19.85716 -4.08068,26.22076 -6.45561,4.41681 -15.99613,4.21748 -22.34335,10.28387 1.81417,8.02339 8.79169,13.40703 6.152,22.47131 -4.48172,8.66366 15.57937,8.65976 8.47528,15.7113 0.8377,7.08895 13.31526,2.87812 19.36124,2.68435 9.92482,0.42125 -11.15138,10.44619 5.29444,9.33789 8.93429,-2.28468 8.0285,10.41877 15.75037,12.53942 1.09616,9.95113 10.18036,10.47595 18.11486,12.35752 8.76842,2.80335 14.06526,-5.40738 20.09267,-8.27756 11.15125,7.87968 4.3432,-13.22442 13.83947,-8.28546 9.76424,8.24099 5.43954,-10.89555 14.67706,-8.82513 7.23808,8.37342 12.10356,2.90337 21.36212,2.02921 8.95576,-0.53403 10.42444,-12.12024 12.43864,-19.22506 11.99834,1.16482 -1.9239,-14.47719 8.04797,-17.29999 4.32002,-5.81678 -3.66762,-9.16603 -1.62416,-17.66311 -1.94479,-6.69083 0.2988,-19.49522 -8.61107,-19.76162 -9.57185,0.39046 -17.02316,-7.85 -16.42947,-17.29204 2.73412,-11.375434 -13.14296,-4.42113 -10.60535,-16.088911 -7.80233,-3.803378 -12.14733,-10.350885 -14.39133,-18.565898 9.28062,-7.558448 -1.70295,-11.799229 0,-20.430056 7.01995,-8.318616 -4.38824,-11.429208 -4.39128,-19.67907 -0.75982,-3.641082 -5.10427,-5.657283 -7.2536,-8.557731 z"
       id="28"/>
       </a>
<a title="Indre-Et-Loire">
    <path
       d="m 118.94256,261.89597 c 2.21231,6.89568 -13.39031,5.22551 -18.56591,8.56888 -1.25884,14.72425 -16.438507,-5.03835 -11.514554,6.5548 7.489654,11.00033 -5.840424,10.62582 -11.536215,3.97877 -7.982396,-10.20939 -10.302593,1.89834 -13.971194,8.69149 8.723423,5.98249 -1.548665,12.67472 -3.447104,18.58547 1.250759,8.4187 1.41054,16.47116 -6.193749,21.91699 -8.005178,8.86918 -7.655814,22.13785 -11.891206,32.99218 1.793612,7.64359 5.283063,14.22474 15.423835,13.46445 -0.802528,8.51084 6.588678,11.22247 15.413971,12.65464 5.209182,3.9935 1.197472,15.16394 1.679999,21.99848 13.054016,0.67174 25.929857,-0.206 38.450127,-4.17458 -4.755,-11.51394 6.95841,-12.36078 10.7874,-2.87454 8.64987,3.23297 3.24567,17.11386 11.37004,21.90923 8.03549,4.59131 7.69674,13.28731 11.27588,19.98173 4.51977,6.1068 12.74952,13.13452 18.7247,4.47081 7.28405,-6.43999 4.9966,-18.19242 8.08981,-26.95845 1.89513,-8.93305 5.66793,-17.36778 6.7652,-26.5258 7.49089,-3.85867 17.52812,-6.04196 23.17994,1.97742 3.40838,-6.87903 10.4162,-13.1894 11.663,-18.87779 12.83362,0.26541 0.962,-11.79662 1.95932,-17.26531 -6.98662,-4.37565 -9.10088,-14.65554 -15.51118,-18.5659 -8.18689,1.82507 -17.96753,-1.15353 -15.90806,-11.29058 0.28651,-10.97071 0.82902,-21.98795 -4.72468,-31.89448 -3.59243,-5.75522 3.09873,-19.75251 -5.65318,-19.75164 -7.10592,-1.48065 -12.81809,-10.94036 -19.34236,-1.49198 -11.11655,-3.04486 -1.44748,-11.33983 -1.38406,-15.33656 -8.34273,-3.85869 -19.26454,-1.23434 -28.62977,-2.52286 -2.16998,-0.0717 -4.33998,-0.14339 -6.51,-0.21478 z"
       id="37"/>
       </a>
<a title="Loiret">
    <path
       d="m 335.2519,133.91205 c -5.28171,6.9059 -12.23238,10.04504 -20.90874,9.28939 -12.74037,-2.46636 -3.8004,7.50866 -13.02488,11.16773 2.66647,9.60553 -0.41032,12.44218 -5.2556,17.91212 -1.03734,8.56653 -6.88207,18.16203 -16.72823,15.35104 -7.93881,10.61646 -12.57059,-6.66157 -20.61235,-0.32939 -1.26657,9.8858 -7.54914,8.27623 -14.4882,7.31981 -6.06895,8.00679 0.26891,10.01963 3.71505,12.91991 -7.8658,10.0591 -0.67325,10.50592 3.91179,18.17271 -3.51952,5.94228 -10.7676,10.67073 -3.61595,18.60334 -1.53245,10.0974 12.14323,7.6893 17.42235,11.51136 6.60789,4.59444 3.85386,14.58765 11.68989,19.02902 9.33242,-0.18878 8.59124,-12.80169 19.18434,-7.12832 6.83749,7.07735 12.62155,-1.44912 19.67634,-1.01042 7.50899,1.90379 18.9212,-3.20056 22.80103,5.21949 4.47297,5.41635 12.21576,10.63275 18.44307,12.44975 7.51895,-4.32874 12.65266,-3.01642 17.90774,3.82722 9.46681,-2.29041 14.03804,4.85239 18.45877,11.91282 3.97072,9.17366 13.78962,6.8372 10.7145,-3.54345 6.72045,-6.40948 9.11342,12.12353 17.04509,5.3233 4.23477,-3.34881 -0.56616,-13.64672 11.82579,-12.51486 6.64358,-2.3052 -1.12711,-14.58528 -1.50323,-20.67443 -3.11549,-4.89251 -13.92977,-16.13418 -7.52158,-18.79874 8.06559,1.47809 16.73006,-1.38371 20.89188,-8.24957 6.42436,-9.01984 -10.92059,-15.01233 0.12232,-20.11869 5.60597,-5.6324 15.70923,-9.16994 12.77944,-18.77842 1.21914,-8.65606 -11.23246,-11.3538 -10.99156,-20.33158 -2.07701,-6.36037 -10.21339,-15.89628 -16.16971,-15.02667 -6.89575,2.93537 -15.22576,12.464 -17.4571,2.74223 -8.37079,-2.65916 -8.96891,9.88274 -19.16026,6.12548 -8.32305,-1.83859 -16.98648,0.75043 -23.12915,3.42498 -13.115,-6.52022 8.5641,-7.8993 5.60587,-16.19314 2.88244,-10.63287 -10.7494,-9.53461 -13.14609,-18.48378 -4.77182,-9.02182 -19.01909,-0.0148 -25.06282,-8.34492 -1.13988,-0.92514 -2.2798,-1.85028 -3.41969,-2.77541 z"
       id="45"/>
       </a>
        <a title="Indre">
    <path
       d="m 268.45856,348.24394 c -7.63229,2.72593 -16.05454,-0.23658 -23.43757,4.4423 -0.96245,9.59527 -11.3735,-0.64173 -17.51014,5.73187 -6.61863,4.06706 -17.13499,5.28912 -6.97681,14.06418 0.94544,9.17382 -8.23678,7.30456 -10.19454,15.92962 -5.66855,10.15185 -7.95146,10.37779 -17.55975,5.17125 -8.72916,-0.58266 -15.8714,4.70091 -15.13189,14.04484 -4.67796,12.80537 -6.47877,26.37166 -9.15958,39.70738 -4.76531,8.61799 -16.46343,4.13263 -11.75475,14.58629 2.1003,8.0493 -7.35271,17.08418 3.56065,20.93611 7.57932,4.29507 11.63885,14.46671 21.54747,13.19188 8.08251,0.98814 2.45422,16.14815 11.89662,17.34429 9.95997,4.28869 -6.81806,15.55859 -0.73441,13.36059 8.07534,0.30128 17.34427,3.82707 22.06398,-4.93581 5.87128,5.84887 11.88824,15.8278 17.13262,3.90453 5.16665,-11.18089 10.33439,-5.2851 19.07244,-5.0616 5.88593,-0.74812 17.33789,6.171 19.45907,-1.95279 0.54762,-11.71263 12.40817,-4.88214 19.95763,-5.11796 11.17639,0.29636 21.97547,4.22304 32.83374,5.18552 2.88169,-2.86992 10.39247,-10.6946 9.57937,-16.68426 -4.75108,-7.19137 -3.4469,-13.5526 -2.46499,-21.6897 6.32234,-5.88573 -5.29981,-12.79549 -7.31138,-18.50117 -12.696,-3.19824 -4.19117,-11.39644 -0.15889,-16.25636 -7.81489,-6.65996 -7.23429,-9.35044 -3.80548,-16.58982 8.40075,-5.81977 9.31828,-10.09265 -0.81853,-11.74663 -6.43719,-5.52384 7.33936,-13.87455 -2.01806,-19.50478 -9.02604,-4.71276 1.57315,-15.49268 -7.6394,-18.90954 -9.19521,-1.14701 -16.8957,5.59479 -25.97898,2.06505 -12.41064,-4.63047 -0.72206,-10.01828 1.55912,-16.16273 2.20337,-9.34601 -12.2059,-9.1189 -15.97292,-16.52034 l -0.0351,-0.0317 1.9e-4,0 z"
       id="36"/>
       </a>
        <a title="Loir-Et-Cher">
    <path
       d="m 155.19552,175.3283 c -2.89648,5.63837 -14.69096,14.23379 -6.16227,19.11639 5.61483,5.63959 1.88307,16.1886 0.35759,23.46405 -5.79844,3.61662 -10.36319,5.46569 -7.81763,16.1933 -5.189,7.40628 -10.34877,14.85153 -19.8842,16.47861 -9.35157,6.95898 -1.24465,14.50183 7.96428,11.6688 8.29855,1.54034 18.67177,-2.13447 25.43237,3.27183 -6.45286,2.37812 -7.03518,16.67432 2.1801,13.16366 6.80706,-9.1392 12.03568,4.92221 19.96957,2.96988 4.54398,4.19128 0.0608,15.30592 3.98566,21.57287 6.79432,11.13484 2.29596,24.57112 4.70868,36.35354 2.5744,10.42455 16.62876,-0.65605 19.50621,9.25629 4.76195,6.33458 8.5857,17.55221 18.20066,12.8092 4.29282,-8.44408 17.47117,-3.08651 19.88299,-5.95954 3.46636,-6.69028 13.67603,-6.7191 20.54456,-5.90506 7.48655,-3.7535 11.98941,8.02266 19.64322,9.25063 12.90213,5.0025 6.92211,-7.14063 13.05349,-12.79399 6.61686,0.29495 13.05384,4.73253 21.57288,1.56592 12.40335,-2.81546 5.25252,-9.3988 5.82245,-17.79689 2.48795,-8.07455 8.87975,-13.28535 14.83074,-16.60976 3.25949,-10.33848 -1.85326,-10.32178 -6.2575,-18.45295 -8.02618,-2.6647 -14.00874,-7.1495 -2.77589,-12.76963 7.76892,-4.04241 15.4507,-6.63899 6.06724,-14.67657 -8.51899,0.37244 -18.28821,-2.1294 -26.03147,0.0247 -5.96955,8.04912 -13.39768,-2.23186 -21.16652,-0.80779 -2.99595,3.90252 -11.31197,13.32208 -15.84963,3.07788 -3.72767,-5.86615 -3.34426,-16.69126 -13.34257,-16.14286 -10.08268,0.67116 -11.62879,-8.06392 -13.9107,-15.53728 -3.64131,-6.5936 13.20627,-11.22345 2.86863,-18.04399 -13.24715,0.8159 7.23762,-16.0764 -4.36255,-15.19109 -8.73,-4.251 -14.0873,0.007 -20.38364,5.52245 -7.98935,1.72024 -17.50815,-0.50531 -23.92969,-4.3297 -0.76441,-9.12576 -10.79995,-9.9247 -12.43126,-18.22051 -3.32595,-2.59387 -22.09274,-1.91615 -8.79018,-8.05864 0.8604,-7.71369 -13.08045,0.53448 -17.88275,-1.65873 -1.87085,-0.9356 -3.74272,-1.871 -5.61287,-2.80671 z"
       id="41"/>
       </a>
        <a title="Cher">
    <path
       d="m 341.62363,275.84789 c -6.69732,3.29857 -15.63783,7.08845 -18.69918,13.62913 6.74057,2.00199 10.53302,8.87554 16.42926,12.91393 1.2651,4.56206 0.56871,15.85815 -8.71582,15.8619 -3.7102,6.81497 -10.69077,15.40002 -4.13067,22.48894 -1.01588,7.21702 -13.40906,7.76064 -20.16582,8.30006 -5.44897,-6.35631 -16.08388,-1.84305 -12.83456,7.86922 -6.96113,1.65346 -8.56148,6.88342 -13.37332,13.95411 -9.57251,5.8309 5.30613,12.34064 11.44775,11.34697 6.76511,-2.25012 16.01425,-6.3139 21.809,0.0876 -4.77295,8.77014 3.23487,14.18223 6.37173,21.11388 -2.13439,5.88106 -6.41789,16.7611 4.568,15.90807 6.94106,2.49281 -7.34302,10.29258 -6.95361,14.95148 -7.94106,4.02494 14.87461,11.50653 2.31586,16.06883 -11.32789,7.07042 6.20512,9.93838 7.10608,16.67691 6.39201,7.12846 6.07438,10.99261 3.42689,20.06867 -4.98328,7.01836 7.49403,14.48226 1.92382,20.80608 -9.29834,6.09543 -4.87855,13.97132 5.28114,9.21696 9.0866,0.78629 8.71558,-11.78238 15.84607,-15.78694 5.40618,-4.27693 14.72885,-5.43396 21.56048,-4.86974 6.09405,4.59509 16.97953,-2.75808 15.52442,-9.49529 -4.42495,-4.43277 -6.27326,-14.6672 0.19159,-19.03502 5.775,-2.94198 11.81135,-18.19336 17.38814,-11.79808 4.59608,8.98417 11.15486,-3.59649 17.49973,-4.42442 4.29538,-8.41036 10.60689,-12.22756 19.92855,-9.18703 7.17008,7.88601 5.23115,-5.19086 9.23755,-12.56365 -6.75271,-9.70371 -0.56363,-22.17652 -0.59882,-33.14954 -8.86039,-4.89277 -7.70792,-13.47604 -6.30791,-22.15053 -1.55466,-8.70706 -8.93496,-16.21688 -7.42427,-25.85717 -6.06044,-5.01695 -16.32689,-9.84557 -13.62954,-19.00864 6.09842,-5.65486 6.741,-14.62511 4.51956,-21.88766 -3.58965,-11.99474 -12.83642,-0.81702 -18.3313,-8.03323 -6.47022,-11.52027 -9.0423,1.66691 -10.1446,6.21841 -8.20487,0.46341 -10.67738,-10.76981 -16.01313,-15.65719 -6.69091,-2.60272 -15.15761,-2.02929 -19.47748,-9.19403 -5.88751,2.22865 -13.68401,6.34338 -18.32492,-1.97743 -2.29832,-1.23322 -5.26883,-1.7919 -7.25076,-3.40558 z"
       id="18"/>
       </a>
</svg>
