<svg version="1.1" viewBox="-10 -10 580 580" class="region">
 <a title="Retour à la carte de le France" onclick="showMap('France')">
     <rect
       id="fond"
       width="580"
       height="580"
       x="-10"
       y="-10"
       style="fill:#fff;fill-opacity:1;" />
     </a>
    <a title="Corse-du-Sud">
        <path
        d="m 154.53434,226.54329 c -0.67105,5.8893 -0.46354,11.32058 5.9735,13.5042 5.19357,4.22492 12.71686,6.43244 17.00999,11.06647 3.62731,7.22942 -4.38964,7.3853 -9.4898,8.77028 -4.3285,1.91622 -13.99283,-0.58504 -11.73545,6.78357 2.74693,4.3966 6.82887,8.33317 5.46256,14.58549 -0.98193,6.63822 1.28806,10.76309 8.29273,11.2286 5.78858,2.36941 12.64541,3.25217 17.97709,5.83542 3.05125,4.64862 7.91303,9.33899 1.78938,13.77608 -5.53563,1.88313 -9.70243,5.17234 -11.67691,11.15158 -3.64412,4.44642 -7.44091,8.42434 -4.59397,14.49919 -0.76029,7.73779 3.61781,9.04085 10.36754,7.37397 5.69329,0.98926 9.70596,2.90446 15.15168,-1.73467 6.2034,-4.83765 8.63279,4.10259 4.04817,8.10233 -5.9649,5.25156 1.32497,9.16148 2.35911,12.61037 -5.12118,3.76642 -10.92339,6.98811 -12.38416,13.68234 -3.39786,5.61701 -5.27134,10.47738 3.30289,10.15198 12.24582,3.62098 25.06597,3.70533 37.67249,5.10522 -3.65174,4.23783 -7.30348,8.47565 -10.95522,12.71348 -11.57221,-6.64418 -8.54339,8.40198 -13.42646,13.61485 -0.44362,4.67846 6.44619,9.74609 10.58602,12.7624 7.24723,4.95452 14.83908,9.10124 23.62132,10.45749 11.46672,2.68922 22.72833,6.08359 33.3203,11.31264 -2.6914,4.94257 -8.32837,11.74694 1.22445,8.9504 7.66316,-3.82926 7.18464,5.1982 12.46309,5.52133 5.67181,-0.0627 13.00937,1.92671 12.10342,-6.23919 1.24267,-5.44065 4.34147,-12.09769 -4.17335,-11.14394 -4.57572,-1.43408 6.01793,-7.63986 7.73881,-11.05462 3.67474,-3.65309 -5.79371,-7.64919 -1.53025,-13.56612 4.59394,-3.2463 10.29894,-5.75213 15.31849,-8.71479 1.35554,-6.27019 1.59137,-11.59321 -6.45144,-9.91327 -4.86541,-2.41939 -10.91139,11.01766 -9.64327,1.03144 -1.68215,-7.11172 8.55143,-3.00122 12.72788,-4.59531 3.34885,-4.01432 5.50098,-10.76187 5.71293,-16.52581 0.88166,-11.36346 4.33436,-22.83726 0.49284,-33.99803 -1.79914,-3.5794 1.47726,-14.23672 -2.19483,-13.1694 -6.59684,3.74339 -12.22419,10.50191 -20.50309,9.01405 -5.59806,0.26144 -12.71768,2.30977 -11.07516,-5.93207 -2.2455,-5.86082 4.50443,-10.07566 -3.63796,-12.61097 -1.9072,-7.93337 0.77973,-17.51481 -3.97407,-24.61116 -5.0151,0.19419 -11.83812,0.95796 -13.79547,-4.69776 -1.22461,-4.79583 2.65927,-12.42971 -2.31988,-15.13968 -5.25914,-2.8954 -10.42842,-5.58858 -13.48543,-11.04348 -6.69165,-2.32466 -0.60622,-12.22885 -6.13246,-11.99324 -6.61737,1.41014 -10.67468,-0.75813 -11.27546,-7.75784 -0.61316,-6.92423 -9.3465,-2.49828 -14.02622,-3.73839 -6.05534,0.76099 -7.48381,-7.57986 -11.39471,-11.03733 4.59116,-5.09976 -3.6561,-8.85074 -8.6819,-6.35313 -5.84515,3.3789 -9.61745,-2.09684 -15.17761,-1.67975 -4.67653,-1.29156 -13.41865,3.16319 -14.34038,-3.43539 -3.4734,-3.10929 -10.3998,-2.74951 -15.3426,-2.92135 l -0.91076,0 -0.38711,0 -0.001,0.002 z"
        id="2A"/>
    </a>
    <a title="Haute-Corse">
     <path
        d="m 295.73506,57.481139 c -3.61285,3.638329 -11.82684,5.402358 -12.33967,10.303494 0.0551,6.289699 4.47342,10.531811 8.14692,15.123459 -5.37983,3.204014 -9.7244,6.646237 -4.31551,12.332672 -3.57989,3.730986 -6.33895,8.092116 -5.01671,13.770516 3.71286,4.00403 10.4318,6.67398 8.52073,13.17386 1.18597,6.39869 -2.72081,11.66215 -5.13949,17.25732 -6.1303,5.51062 -8.81291,-1.74194 -12.22874,-6.28019 -4.40125,-1.69037 -10.85088,2.66834 -14.82121,-1.29378 -5.52825,-0.0558 -11.48716,-1.21013 -14.82047,4.33285 -6.55814,3.89123 -5.8308,12.07115 -8.03674,18.52435 -7.6368,2.06156 -16.32879,1.91736 -23.29972,5.37083 -5.12455,5.13401 -12.2958,8.84502 -16.13745,14.87096 -0.77463,6.9252 -4.71156,8.84386 -11.14622,6.80814 -4.82039,-8.75883 -5.2044,-1.27416 -5.98999,4.74016 1.69404,7.16482 -9.18013,4.39627 -7.31055,11.54243 -2.02755,5.29491 0.0926,11.3351 0.66106,15.49452 -4.57549,3.33083 -10.04143,5.97991 -10.85938,12.18768 2.96799,2.04038 10.80972,1.77002 11.69615,7.15961 6.87144,0.81617 14.89505,-2.26916 20.45869,2.9755 6.03345,-0.71112 12.57229,-4.29608 17.58246,0.8115 -5.1836,4.98893 3.13526,9.40677 5.21481,14.0885 4.26124,2.73968 11.08722,0.43408 16.35451,1.19471 3.63141,2.56603 1.44074,13.27004 8.17697,11.49624 8.51037,-2.24199 7.00814,2.59389 8.17955,8.32011 4.18819,5.13419 7.62136,11.0891 14.20416,13.33542 6.98879,1.84624 3.90434,9.28872 4.53965,14.66467 -0.61323,6.09193 7.17953,7.36916 11.88463,6.55396 5.97725,0.5778 4.05374,9.35272 4.92851,13.77966 0.44543,5.66575 -0.63907,12.19921 5.99224,14.35659 -3.88038,3.89685 -0.61834,10.26837 -0.62443,15.41417 7.71915,-1.13198 16.73372,1.76486 22.90207,-4.19013 4.13128,-3.35614 11.66182,-4.93086 9.30448,-11.68744 0.23369,-6.70611 -1.04694,-13.8758 0.10318,-20.30136 6.40522,-9.67125 14.23537,-18.88939 19.76142,-28.84022 -0.28003,-15.71056 0.56041,-31.6955 -0.42083,-47.23435 -3.53894,-7.6217 -9.49082,-14.58736 -8.37943,-23.47342 -1.03132,-14.38555 -0.8733,-29.15097 -2.64466,-43.30016 -3.23678,-6.8301 -8.65789,-11.65534 -14.8632,-15.76082 -3.61675,-3.74999 -1.147,-10.72096 -2.3686,-15.73845 -0.29005,-8.61245 -2.37326,-17.48514 2.13052,-25.40188 4.30172,-7.01502 -1.33529,-14.311224 -2.58497,-21.483303 -3.52481,-9.028574 -3.46854,-19.387592 -7.84715,-27.921148 -1.79895,-3.951439 -6.1785,-4.844247 -9.54759,-7.07723 z"
        id="2B"/>
    </a>
</svg>
