<svg version="1.1" viewBox="-10 -10 580 580" class="region">
 <a title="Retour à la carte de le France" onclick="showMap('France')">
     <rect
       id="fond"
       width="580"
       height="580"
       x="-10"
       y="-10"
       style="fill:#fff;fill-opacity:1;" />
     </a>
  <a title="Marne">
    <path
       d="m 77.433144,170.04179 c -8.64683,2.16046 -2.937411,10.98811 -14.741161,7.55729 -7.217983,2.86502 -12.667987,8.47028 -10.342608,16.83148 -2.833085,5.62743 15.877919,11.38934 5.358356,13.13874 -12.984642,-1.59965 -5.489654,6.4839 -6.885893,11.27329 -12.66973,5.09311 7.080912,4.11891 4.538206,9.68922 -7.244951,2.92214 -4.023964,14.63843 -13.035651,15.48737 -6.199908,4.03453 -5.559495,12.46673 -10.736806,16.22794 -3.648064,7.26414 9.594552,11.25829 3.392856,19.0389 -1.565237,7.79943 9.450553,2.9352 11.29357,7.25157 4.516909,7.24019 10.610817,9.79552 18.674711,6.49853 7.987711,-2.63825 13.563014,-12.37052 23.017713,-9.95657 9.0682,-3.4102 16.863573,-14.32172 27.815933,-11.17514 -0.97773,9.56057 5.21424,16.54451 10.21038,23.95821 9.13986,1.68816 18.11141,-3.3194 26.82573,-2.25658 7.04329,5.30165 14.54738,-0.66076 18.74401,-6.10957 -0.82427,-9.10289 2.71313,-14.05184 12.2027,-13.3321 5.12313,-7.0834 -5.1478,-11.96036 -9.11761,-16.86654 2.37454,-7.47462 -0.83314,-10.77395 2.4866,-18.14561 5.86198,-0.86966 11.95184,-14.29736 7.44503,-15.66133 -10.58923,2.72625 3.77487,-7.5813 -4.06648,-13.94381 -6.63989,-7.73148 1.45218,-11.77502 -2.54735,-16.25673 -3.86555,-10.87851 -9.91063,4.033 -14.18606,-2.50631 -7.44719,-2.97072 -13.48634,3.11475 -18.35574,1.46382 -1.45275,-10.2668 -10.72552,-2.84059 -16.82946,-4.4815 -5.15528,-5.08688 -13.00683,-6.03738 -17.38371,-11.37582 -6.0113,-4.98351 -12.8251,-7.29842 -20.630469,-6.316 -0.481503,7.15669 -7.88683,5.26433 -13.146668,-0.0328 l -1.29e-4,9e-5 z"
       id="51"/>
       </a>
  <a title="Ardennes">
    <path
       d="m 155.25715,58.209989 c -2.50419,6.618008 -11.43582,9.997355 -9.56721,17.78129 1.30415,9.51361 -11.74036,9.725672 -18.17119,12.833333 -7.13185,5.597603 -11.12865,-7.30694 -19.29499,-3.520937 -7.61359,2.364846 -0.3184,13.939848 -0.024,18.258335 -8.708726,4.63645 0.048,13.31543 -3.12522,19.41266 -7.583725,2.30157 -6.504019,10.42179 -11.605114,12.68598 -12.539704,0.6989 -2.974441,6.97226 -1.595304,11.15926 -3.000572,7.46295 -3.163207,15.31855 -2.542227,23.22188 7.503329,-0.40193 14.745525,0.0645 20.497335,5.48697 4.90156,5.53246 12.39637,6.42728 17.87703,11.91953 5.90078,3.19825 15.13879,-5.89693 17.20055,3.67114 3.7328,5.29433 10.48409,-4.48902 17.61973,-0.38474 5.31155,7.48102 9.54282,-7.77381 14.51815,1.57699 1.54005,-4.3671 13.69164,-6.44787 7.28528,-14.38938 1.42083,-5.13602 10.50595,-11.879 5.66488,-18.79147 -8.21957,-5.43174 -0.007,-12.22612 2.5664,-18.67492 4.9961,1.36328 12.00902,6.66058 16.61201,2.77778 7.67033,-6.52873 -2.9904,-7.11367 -1.56172,-16.20392 -3.81505,-6.67102 -13.99977,-2.23364 -18.62168,-6.2041 -1.75711,-10.93621 -14.58585,-8.67751 -22.71833,-10.35773 -3.50227,-7.08226 3.79177,-14.551592 -1.01858,-19.389411 -11.93568,-1.998686 1.30717,-12.49013 -5.20747,-16.68821 2.54746,-2.785402 8.7301,-11.613236 2.769,-16.180232 -2.51906,-7e-5 -5.03839,1.36e-4 -7.55729,-9.8e-5 z"
       id="08"/>
       </a>
  <a title="Aube">
    <path
       d="m 108.14468,271.34163 c -7.14995,3.07571 -13.311177,8.67997 -20.112792,11.73792 -11.600671,-2.73915 -17.478334,11.77935 -28.913902,10.91557 -7.34977,5.38898 -11.233836,-12.04918 -15.853437,-6.64093 -8.625868,1.13826 -6.639243,9.57441 -11.253525,15.0909 -0.03258,6.40234 -6.157767,15.60423 0.239178,19.86805 9.066351,-1.83447 12.769982,8.90028 19.054016,13.58704 -0.909154,7.39169 -3.831511,15.63777 5.236865,18.79503 6.176726,-0.56681 10.875835,-1.08974 15.231443,7.58583 -0.564858,7.57505 3.879008,13.00062 7.705372,19.01707 3.240829,6.92711 14.318038,2.40593 20.979502,4.33578 7.47413,-4.75106 11.08225,-5.03712 16.05342,0.84378 2.46312,-7.07964 11.08365,-5.65684 18.32202,-5.82063 10.0875,1.73945 6.3275,-12.13869 14.36864,-10.10589 8.5186,1.64886 16.29855,-0.22728 6.89594,-7.25075 -0.65644,-7.76588 12.74439,-3.301 15.33903,-9.30012 2.1008,-9.61867 0.42068,-20.67177 -1.54711,-30.56159 -9.24518,-0.88535 -12.94449,-9.16451 -17.84806,-15.83815 -2.18734,-5.89867 7.91817,-15.6987 -2.72024,-14.53837 -7.67633,1.35193 -16.95985,4.82593 -24.00479,1.78571 -4.94605,-7.01241 -10.39812,-13.84297 -9.53388,-22.94347 -2.5459,-0.18759 -5.09179,-0.37519 -7.63769,-0.56278 z"
       id="10"/>
       </a>
  <a title="Haute Marne">
    <path
       d="m 184.76273,273.99472 c -9.12747,-0.22241 -14.40231,3.22431 -13.12879,12.90755 -2.75437,6.25712 -11.88163,10.04346 -16.98338,8.61343 -4.07997,6.19095 -3.21965,14.08785 2.36512,19.02282 2.05703,8.64986 15.14421,5.2026 14.00015,14.89307 1.16675,7.80392 1.96089,16.46271 0.76971,24.04505 -3.07656,6.99327 -13.22354,1.2372 -16.68919,9.19564 5.73979,4.4969 6.85634,11.50856 14.32587,15.04536 6.99145,6.6909 12.24494,14.83623 18.074,22.49989 -10.3486,6.32077 -0.61063,8.55554 -1.59639,17.35532 6.34848,-1.32484 10.77844,7.80336 18.28218,4.05485 6.33515,-3.66592 8.06828,12.21299 13.83206,10.69258 7.45315,0.22079 12.45677,-4.96511 11.20805,-12.00367 6.37172,-6.71965 13.05623,2.69983 19.55688,-1.82833 10.38132,1.08551 6.45779,-8.32235 11.41404,-14.08081 -11.49787,-2.41068 1.12744,-7.4727 2.58843,-11.84252 9.07676,2.3222 5.92497,-8.3482 12.23554,-10.04926 2.98492,-10.23204 -11.74183,-2.20146 -9.61638,-10.33078 3.1495,-9.35743 -11.65715,-8.08461 -13.80859,-13.83955 -0.99564,-8.13595 6.85056,-13.14539 6.09646,-18.93397 -8.42413,-0.0747 -6.49507,-10.41083 -15.12605,-9.55394 -2.6321,-9.2395 -11.66873,-6.99218 -16.47059,-12.07837 3.3391,-5.72759 1.20927,-10.75048 -5.93478,-16.36951 -7.95602,-5.40126 -19.04905,-7.26346 -24.62119,-16.23981 -9.52182,-0.68098 -12.00199,-0.79636 -10.77316,-11.17504 z"
       id="52"/>
       </a>
  <a title="Bas Rhin">
    <path
       d="m 446.2128,203.40642 c -7.31413,0.4672 -13.91319,5.05533 -13.98903,12.81032 2.36283,8.95423 -9.09996,11.18573 -13.54153,4.44447 -5.43425,4.85018 -13.11379,3.60275 -17.81155,-2.01091 -7.33808,-0.56187 -16.23374,-2.27726 -15.92018,-11.38484 -7.76651,3.52869 -2.74765,15.87038 -10.49419,17.6287 -9.32771,4.37399 2.20939,10.74924 7.47796,13.33344 -2.9387,6.97256 5.32217,10.4311 10.4086,3.06886 3.51901,0.31973 17.67162,4.95833 13.47009,10.3565 -7.77804,6.76959 -0.32373,12.63308 -0.73741,18.94151 -0.91988,7.46188 -7.46355,13.67979 -13.30037,16.96204 -6.11641,-2.45109 1.03913,8.67699 -2.4479,14.57803 -0.24079,8.12815 2.25352,13.80164 11.22018,13.66646 1.85449,1.62406 11.93423,2.88078 14.23018,10.63693 6.71927,1.03401 13.87304,-0.34892 13.96268,9.83912 2.64569,8.04819 11.36737,8.01741 12.19964,-1.18477 3.58151,-9.09158 12.19821,-17.24662 8.88389,-27.62083 -1.86975,-12.16385 7.21208,-23.03213 6.26033,-35.39623 -1.93218,-8.79166 7.05449,-11.4022 12.49008,-16.02299 1.22852,-5.69634 3.44517,-14.42795 11.14205,-14.35499 7.20391,-4.2336 -0.19893,-13.12085 5.23439,-19.01716 1.85645,-8.40514 14.08205,-5.40219 1.94291,-12.27914 -8.52384,-0.16436 -16.42397,-2.42447 -23.63663,-6.99452 -9.07356,9.09051 -8.01098,-1.36404 -17.04419,0 z"
       id="67"/>
       </a>
  <a title="Meurthe Et Moselle">
    <path
       d="m 242.64836,142.06374 c -4.081,7.69847 -13.22831,3.80297 -18.16965,9.08483 0.59908,6.21425 1.78642,15.55646 2.08989,18.54862 2.93878,-7.33791 10.62021,-5.79616 17.10574,-8.52578 6.87807,2.71524 7.41528,11.38365 8.99575,16.96723 3.91751,5.0114 -5.4643,12.28574 0.65847,18.19745 -2.70061,8.18368 6.57522,11.65025 7.14013,15.69257 6.45132,5.56812 -0.83571,9.98892 1.6849,16.11539 11.58329,5.64874 -7.62102,2.14982 -4.06906,10.31533 7.70723,4.44924 -0.35313,12.69387 -1.91849,18.83566 -1.18395,6.31924 0.22458,14.31806 1.98534,20.91482 12.30845,4.24891 -7.07828,1.99964 -2.53775,9.30421 6.46049,5.45443 1.68421,12.7595 12.5536,9.22984 5.37783,0.5887 7.43703,10.72556 3.51379,12.77755 4.16373,2.20282 9.78803,8.94622 17.11497,6.17527 9.72828,3.18905 8.98969,-10.29262 18.49264,-6.89024 5.09554,-3.28342 11.504,1.2604 18.46055,-0.5087 5.83061,-4.30104 14.41951,-3.00527 14.35343,-6.5178 3.27401,-11.79528 5.05486,5.86435 13.22731,2.4256 8.13634,3.97707 17.0353,-2.05321 22.33475,-8.0599 1.69135,-5.88598 19.10291,-3.32305 11.77814,-8.96591 13.24472,1.29822 -1.64391,-2.70445 -5.34607,-6.69629 -5.5688,-4.43329 -11.0126,-8.97361 -18.61214,-7.13194 -4.81906,-5.80401 -14.96383,-3.62953 -17.76698,-8.50852 -9.13908,-5.12832 -18.57754,-12.40689 -29.50628,-11.67105 -2.00831,-7.56821 -7.75522,-14.8935 -13.52026,-19.21481 -9.06301,3.82813 -10.4051,-7.5558 -18.62612,-5.38658 -1.26877,-4.54525 -3.15855,-12.18755 -11.6631,-14.30644 -1.42965,-9.17837 8.31345,-4.24994 7.01554,-14.01299 -5.40235,-5.35531 1.36566,-10.6374 -1.34884,-17.56831 -3.65719,-5.98081 -7.35346,-12.24744 -10.09524,-19.07279 8.5481,-11.46087 -4.48233,-9.79114 -9.57009,-16.92492 -3.1801,-6.79128 -9.78542,-4.17848 -15.75487,-4.6214 z"
       id="54"/>
       </a>
  <a title="Haut Rhin">
    <path
       d="m 407.3008,317.24814 c -9.37689,-2.67988 -9.92747,7.20794 -13.39152,13.27638 -5.30525,6.06032 -3.99523,12.89269 -4.37597,19.67547 -1.91479,7.27946 -6.61244,12.52595 -12.62246,16.81371 -1.35873,6.79307 2.01544,15.8308 -2.33264,21.20611 -10.12242,6.1827 2.47978,8.53938 7.79438,9.95894 6.42541,3.2302 11.51646,10.26133 6.95982,17.2058 -6.37751,11.32252 7.86319,4.43283 8.00782,12.12769 -1.27842,10.38187 7.36296,10.17089 7.98707,14.16577 0.7718,8.41538 12.99156,3.51872 19.02839,4.51676 6.62695,-1.19247 14.37514,-7.27579 12.60762,-14.93853 1.27418,-7.44912 8.3697,-11.87381 -1.18414,-17.64861 -6.82379,-6.89113 0.80418,-11.4143 0.38391,-18.58996 -1.43931,-7.88758 4.15382,-14.37907 2.4923,-22.31076 5.68944,-6.54523 2.35661,-10.69818 -0.56364,-17.45702 2.1547,-9.47266 -2.87576,-13.2229 -8.91657,-17.7154 -1.18895,-8.23558 -4.81137,-12.87195 -13.51325,-9.99557 -2.75416,-3.45696 -5.54838,-6.88182 -8.36112,-10.29078 z"
       id="68"/>
       </a>
  <a title="Meuse">
    <path
       d="m 213.14278,137.15954 c -3.21909,9.04692 -8.67868,8.12309 -15.23585,5.30619 -7.73853,-4.50749 -7.93981,4.88521 -12.21815,10.65798 4.98105,4.88852 7.49964,12.39532 2.87041,18.73178 -10.00337,3.10136 3.21663,13.94454 -7.27024,16.38993 -7.46154,4.35447 1.58501,8.94883 -3.79242,14.16322 1.66955,6.29716 9.34168,14.96575 2.71001,20.05413 3.98934,0.0805 8.98837,3.23856 3.08495,12.49579 -7.69347,2.55287 -8.86632,10.6503 -7.0791,15.57383 -7.17273,7.67353 5.86739,11.37535 8.34255,16.72217 1.62624,6.23031 -3.77156,18.70967 6.48369,17.26303 7.88778,0.28233 10.59134,10.15839 18.64511,11.46465 7.12713,2.44379 12.6736,6.5938 17.16695,12.72954 1.78498,7.53865 10.85073,1.8243 12.47978,-2.32064 10.03115,-2.49067 6.45613,-4.30043 14.57503,-3.43441 7.62594,-1.22168 8.01021,-11.27772 2.08353,-15.10419 -7.06017,-6.7397 14.98501,-6.219 2.65828,-8.55164 -2.70522,-6.45511 -2.64036,-14.57199 -2.94693,-20.96051 1.27714,-6.192 10.16794,-14.69411 2.87412,-19.39104 -5.70089,-8.1483 14.97991,-5.44328 4.10576,-10.54628 -4.99615,-5.38922 5.45862,-10.731 -2.53174,-15.72072 1.61655,-5.03602 -10.19372,-7.32692 -6.78227,-16.03841 -5.50439,-6.03528 2.09976,-12.63467 -0.15806,-18.05688 -2.66776,-5.28887 -2.07686,-14.3786 -9.35388,-17.4693 -6.06854,2.9588 -14.18686,0.80818 -16.72209,8.14308 -2.17992,-0.31253 -0.82347,-11.73731 -2.71529,-16.95388 -4.86665,-1.69739 -1.95361,-14.89332 -10.79582,-15.08098 l -0.47833,-0.0664 0,0 z"
       id="55"/>
       </a>
  <a title="Moselle">
    <path
       d="m 297.96129,147.12873 c -8.06895,-2.49926 -11.83247,6.47927 -17.55372,8.03967 -11.45795,-4.13834 -10.10774,-1.00135 -11.91745,9.54632 2.71825,8.36772 8.79613,14.28517 11.30152,22.53197 -7.82611,6.88756 3.19664,10.1582 -1.44714,17.63411 -2.21533,2.83909 -11.52967,8.31609 -0.76714,12.59296 9.55087,1.6597 0.0672,15.13308 12.02399,11.09683 2.5565,8.63375 12.6464,2.10992 16.59261,8.24536 6.49751,4.0518 6.78167,15.86704 13.67609,16.35603 9.77818,1.2187 18.46012,7.37228 26.89203,12.30069 3.1256,2.96962 12.77905,4.07826 17.94209,7.87888 12.01525,-2.49081 18.03696,11.81105 29.33117,13.26545 5.7381,-5.04281 10.97242,-10.38342 11.72254,-18.37473 -6.10242,-5.40121 -3.04051,-13.09148 1.59815,-19.46691 -4.84709,-1.98484 -12.47251,-11.96412 -17.70569,-5.45949 -9.41828,8.0254 -5.12512,-4.91432 -10.68802,-7.1974 -7.69288,-0.82906 -11.83106,-11.75803 -1.76606,-12.05966 1.9021,-3.45826 4.03532,-19.51028 8.38117,-14.43615 0.23239,11.30841 15.38197,5.15679 19.94705,12.66939 6.39211,6.12137 13.08279,-6.96003 18.61411,2.20881 9.86324,2.74414 6.70452,-8.84091 9.90397,-13.89788 6.20473,-6.07373 -5.14478,-10.72028 -10.26536,-14.22619 -3.58953,-7.34176 -11.15365,-7.60372 -18.17769,-4.68631 -5.23323,8.22338 -14.9579,5.39935 -23.22169,6.16857 -7.37303,-4.46027 -12.6962,-16.95296 -23.06824,-11.1333 -2.19819,3.97207 -8.45158,13.35031 -13.29425,4.92529 -6.06157,-5.49176 -4.136,-13.02767 -10.80637,-16.30727 -6.36811,-3.28566 0.75104,-15.00306 -8.14371,-18.16525 -6.11124,-3.4185 -12.7793,-6.78678 -19.48324,-4.01984 -4.13043,0.89514 -6.43814,-4.20317 -9.62072,-6.02995 z"
       id="57"/>
       </a>
  <a title="Vosges">
    <path
       d="m 390.33709,289.99366 c -7.07927,1.11622 -13.87303,3.68712 -17.9756,9.68517 -5.98339,4.29108 -13.03049,8.0194 -20.21283,4.22346 -7.14782,1.87885 -10.43254,-14.17611 -12.15783,-0.52013 -1.79368,-1.58963 -9.86939,4.78074 -16.32301,4.75953 -7.44439,1.50392 -12.34557,-2.19301 -18.73926,0.6648 -7.95864,-1.09287 -8.31855,10.60797 -18.15381,7.01032 -6.05257,1.67685 -13.46213,-4.26764 -14.86199,-7.4927 3.99462,-1.04975 1.12568,-13.93289 -6.08493,-11.73277 -6.35404,-0.80434 -11.37238,10.46756 -16.58694,6.57376 0.76607,-0.78179 -12.68834,2.17965 -12.30069,7.37058 -5.10101,0.20701 -17.91449,4.99991 -7.54665,10.33508 9.44568,-3.29275 9.6185,10.88044 17.5567,9.96443 1.28122,5.49395 12.2487,6.45447 10.84868,12.74429 -4.77702,2.67463 -9.04947,15.2796 -3.19153,17.58606 8.16425,2.46977 13.15601,6.90526 10.79323,15.89775 7.07172,-3.41909 13.84109,4.78693 13.65673,-4.73166 5.11113,8.57522 8.92196,-3.12983 12.8704,-5.1429 11.43051,-5.26788 6.81302,6.80479 14.01118,10.12386 6.5991,3.36439 12.11706,-6.08016 19.94857,-2.7416 4.26182,3.20273 10.33668,13.93624 15.07153,4.83144 3.97909,-8.87938 10.91951,2.78055 15.51734,5.39211 6.60735,2.56755 13.90205,11.248 19.23192,2.45456 2.4547,-6.18456 -0.67778,-15.00965 2.12303,-21.03544 6.76883,-4.38695 11.30476,-11.69747 12.42494,-19.44938 -3.70097,-9.19536 5.50213,-16.54575 7.70377,-25.11343 8.63907,-9.82884 -9.95168,-3.85966 -7.69364,-13.16791 -2.41405,-6.36553 0.21396,-12.75845 0.0707,-18.48928 z"
       id="88"/>
       </a>
</svg>
