<svg version="1.1" viewBox="-10 -10 580 580" class="region">
 <a title="Retour à la carte de le France" onclick="showMap('France')">
     <rect
       id="fond"
       width="580"
       height="580"
       x="-10"
       y="-10"
       style="fill:#fff;fill-opacity:1;" />
     </a>
 <a title="Seine-Et-Marne">
    <path
       d="m 373.87204,148.48972 c -6.40147,2.43785 -11.25967,7.2773 -16.56103,11.42711 -6.59152,-3.08643 -13.06143,-3.55294 -19.31806,0.57499 -6.38474,4.73552 -12.32461,2.71368 -18.09697,-1.85247 -6.95898,-7.9809 -7.68546,6.65931 -14.5177,5.76524 -7.58443,3.01241 -11.48029,-5.52371 -17.92606,-7.83087 -5.89416,-6.11717 -11.40466,3.12115 -17.08664,5.49605 -1.95031,3.89241 -2.2119,12.96217 -3.51448,18.8404 -3.29934,13.85402 2.66163,27.65339 3.95628,41.4803 1.23366,9.73975 0.90861,19.91603 0.31534,29.6224 -2.53163,8.92756 -9.84527,17.28128 -6.64858,26.89622 4.54112,7.80956 -5.91518,9.63167 -7.99182,14.73184 1.11426,9.05133 4.38942,18.55107 4.17184,27.32603 -6.37439,8.01977 -3.79266,19.28856 -5.95017,28.83809 -3.5592,6.30599 11.9279,11.72399 2.91869,15.20755 -6.51695,4.28257 -13.03391,8.56514 -19.55086,12.84771 0.80856,7.43392 -1.62268,15.8558 1.2134,22.67144 3.10178,7.42374 9.96876,10.58814 16.88412,13.69781 1.36409,5.05118 2.36039,13.50974 0.8808,18.56843 -4.32188,3.88397 -13.40201,7.47045 -14.85507,11.53377 4.89522,5.54697 9.8931,9.82276 15.79713,2.87962 6.63774,-5.21095 15.82969,-1.05043 23.65185,-1.91572 6.23291,0.31222 14.17088,0.6339 19.08348,-2.70442 0.35253,-9.06395 7.56241,-7.20131 14.18749,-6.27048 -0.26787,10.90828 6.06745,6.65804 12.40431,2.40428 8.30892,-4.66438 17.3026,-8.50478 22.40291,-17.03007 4.91671,-5.86963 9.921,-11.66525 14.87589,-17.50262 -4.4796,-4.97947 -11.31386,-9.61382 -5.05393,-16.16735 1.76613,-7.26894 7.00059,-11.15809 13.78519,-13.53667 5.65511,-3.89713 11.84576,-5.24742 18.59713,-3.93103 10.41687,0.018 21.45626,2.02835 31.4976,0.84447 5.34009,-5.10465 11.40165,-4.84507 10.24575,-13.17522 1.41334,-10.52821 3.04727,-21.374 6.11729,-31.40685 5.03391,-5.11989 8.07461,-11.00968 7.40282,-18.33347 0.362,-6.52313 12.2858,-4.8799 14.62142,-9.88128 3.16036,-10.1177 -6.62373,-6.42889 -13.0203,-6.35321 -6.77146,-0.56494 -5.688,-10.77739 -1.31537,-14.74326 0.69773,-5.54553 -1.31683,-14.11485 -5.0672,-18.37737 -8.96447,-2.17418 -5.38248,-10.15927 -4.50415,-16.89216 3.55994,-4.71858 10.92439,-6.39505 8.03448,-13.77262 5.50776,-5.60068 -9.90533,-3.81816 -13.67011,-6.14646 -5.36517,-2.57728 -3.21303,-13.78422 -10.84455,-14.11703 -9.57654,-2.64037 -14.75908,-12.49347 -22.37446,-18.35308 -5.01746,-5.34386 -12.65432,-9.35649 -11.64182,-17.76487 -1.95617,-6.29649 0.90382,-15.48172 -6.51064,-18.50433 -2.34173,-1.69696 -4.68357,-3.3938 -7.02524,-5.09084 z"
       id="77"/>
       </a>
        <a title="Essonne">
    <path
       d="m 197.49702,253.98351 c -6.12937,3.56734 -14.59201,4.9898 -19.56535,9.18564 0.12232,7.59717 -3.0108,12.6983 -10.6634,14.3342 -7.57552,0.9185 -8.2737,9.09598 -7.81219,15.0138 2.52873,5.61263 10.07624,11.48596 2.73056,16.58564 -3.41718,6.12888 -7.46564,11.01593 -15.12166,8.80631 -12.71144,-2.55545 1.71001,6.28133 -1.84465,10.74303 -7.4839,5.41142 -6.60525,14.71208 -8.17107,22.87587 8.68233,-0.66497 4.39827,10.30014 7.5696,15.30544 3.69178,7.79645 1.88295,17.53024 3.38441,26.09814 -0.5063,7.96077 11.33763,1.31543 16.55103,2.51173 7.86311,-1.38569 17.40614,1.00712 22.46315,-6.69002 4.9336,-6.77186 10.03749,-8.32112 15.42786,-1.08328 6.00714,5.99306 15.64613,2.80102 23.35037,4.50202 6.98037,-4.65447 13.46049,11.41527 12.27588,2.2058 1.41726,-5.82867 -3.09144,-14.8541 2.72594,-18.30911 6.81983,-4.48161 13.63967,-8.96321 20.4595,-13.44482 -4.70314,-5.16621 -8.742,-10.51775 -6.01794,-17.75613 1.67806,-8.38754 -0.34296,-18.117 6.01794,-24.80574 -1.6561,-9.16377 -3.31221,-18.32755 -4.96831,-27.49132 6.1009,-3.84457 11.44369,-7.99508 7.89392,-15.73426 0.0315,-6.81444 -9.71382,-8.79556 -15.29601,-9.60412 -8.16257,-0.20628 -16.84607,1.60836 -23.5633,-4.20493 -5.65879,-4.98823 -11.824,6.8948 -16.95624,-1.50142 -3.62335,-2.51416 -7.24669,-5.02831 -10.87004,-7.54247 z"
       id="91"/>
       </a>
        <a title="Yvelines">
    <path
       d="m 77.098278,157.26707 c -9.111953,4.36926 -20.854634,5.27055 -29.995568,9.78931 -8.01022,4.90093 3.390622,9.58681 1.841815,15.82992 -4.316151,9.06287 15.822937,3.75311 5.430061,10.85013 -4.884715,6.25337 4.889381,8.83246 8.160654,14.05299 4.955135,5.2785 2.278375,14.89392 9.570323,18.8445 7.811601,4.43139 -1.96612,11.80119 -0.472685,18.35653 -2.939292,7.22164 5.732517,11.09727 6.736675,16.22433 -2.709833,5.748 -9.564116,11.20454 -4.255619,17.51643 2.482383,6.75355 4.73556,13.68901 11.889347,16.73488 7.040083,2.79004 8.864202,8.91548 9.337633,15.90462 4.534329,3.07042 15.578176,-0.33136 13.404406,9.19851 1.57993,7.74297 -0.0257,16.87078 6.9845,22.25309 3.95365,8.24423 13.81466,6.47857 21.31917,8.70595 1.75266,-7.72024 0.29729,-16.93246 7.50426,-22.11602 6.34837,-3.80844 -10.99912,-13.9545 1.57557,-11.50288 7.80745,1.9117 12.62389,-2.06043 16.0415,-8.78428 7.35171,-5.09599 -0.14816,-10.96349 -2.69475,-16.57367 -0.41565,-5.62122 -0.02,-13.95317 7.33132,-14.83227 7.36784,-1.83422 11.42431,-6.20737 11.02672,-13.99558 3.3491,-4.8176 12.0839,-5.17615 17.33883,-8.70214 9.353,0.58997 -2.13015,-6.55041 -4.52216,-10.78936 -1.91784,-5.76742 -6.81248,-12.43838 -5.49519,-18.39102 2.39618,-6.44219 6.95031,-12.73861 8.05045,-19.26833 -2.64669,-6.36652 -2.05134,-15.25384 -9.90093,-17.57495 -6.64775,-3.98421 -12.88485,-9.32012 -21.16038,-7.94628 -8.39628,-0.71785 -17.59383,1.09205 -24.14471,-5.44735 -5.92526,-3.13544 -11.40205,-8.54495 -17.58782,-10.35942 -8.44574,0.74222 -17.41544,5.80126 -25.088336,0.17607 -6.074824,-2.71794 -12.151267,-5.43559 -18.225086,-8.15371 z"
       id="78"/>
       </a>
        <a title="Val D'Oise">
    <path
       d="m 98.62763,112.38667 c -5.127046,5.79803 -10.05571,11.69775 -10.878394,19.70222 -1.823292,9.12584 -5.311477,17.54494 -10.650958,25.17818 8.77589,3.45584 17.336821,8.68272 26.242672,11.06782 6.5798,-0.30895 13.89675,-4.35571 19.9734,-2.11338 7.76601,4.49836 15.04909,10.52016 23.10158,14.11477 8.65919,1.07499 18.13839,-0.54914 26.27797,2.23622 5.27039,3.79531 12.27145,6.24497 16.50796,10.84414 2.93081,3.96824 1.31609,17.62641 8.05932,13.16911 8.50602,-4.20633 16.34437,-10.74691 26.39616,-9.54911 9.63329,-0.64097 19.55523,-0.13638 27.94877,-5.69776 5.49648,-2.47645 11.80599,-5.8673 15.28228,-10.47041 0.43439,-6.58907 3.33275,-13.98393 2.21179,-20.06435 -9.45233,-10.10808 -22.74796,-15.43877 -34.49126,-22.45776 -6.03338,-1.97727 -11.93956,-8.67086 -18.05777,-7.50296 -6.97562,3.28946 -15.17227,7.06167 -22.56928,6.72059 -7.40942,-6.14813 -15.87447,-10.76127 -23.9759,-15.90314 -6.91018,4.84462 -12.78884,12.26391 -22.06123,11.21245 -12.97271,2.40819 -26.02851,-0.37026 -39.049,-0.94461 -4.05412,-6.22805 -7.71566,-12.53291 -10.26811,-19.54202 z"
       id="95"/>
       </a>
        <a title="Seine-Saint-Denis">
    <path
       d="m 266.72215,181.94301 c -8.3869,6.31449 -17.91455,12.26803 -28.26204,14.12439 -8.18922,0.53619 -16.37844,1.07239 -24.56766,1.60859 1.49959,4.07275 9.5214,10.64242 0.33122,12.75148 0.69236,8.94863 11.40773,2.20815 15.99431,5.54896 6.3861,3.11498 0.87229,15.89647 7.77043,14.52568 4.77977,-3.93836 11.59214,-5.28343 16.89283,-0.65053 5.54196,2.56552 8.54836,8.8299 13.61526,11.09498 6.14485,1.43228 1.96901,-11.64971 2.66769,-16.43346 -1.46113,-12.50473 -5.52799,-24.99907 -5.25158,-37.51072 0.26983,-1.68629 0.53977,-3.37393 0.80954,-5.05937 z"
       id="93"/>
       </a>
        <a title="Paris">
    <path
       d="m 229.62543,215.06508 c -7.49014,0.36268 -17.5087,-1.73029 -21.86056,6.12732 -6.56926,-1.44738 -12.96081,6.19556 -9.2791,12.21685 5.89861,2.25884 12.79319,4.42853 18.55301,7.98761 6.19672,3.01245 12.42413,-4.098 16.72664,-2.64976 5.56725,3.25118 15.55248,-0.5102 9.60541,-6.2932 -6.06023,-2.33979 -10.02577,7.76824 -8.28079,-1.4905 -0.80117,-5.48797 -0.93439,-11.26578 -5.46461,-15.89832 z"
       id="75"/>
       </a>
        <a title="Hauts-De-Seine">
    <path
       d="m 213.89245,197.67599 c -6.84831,3.81184 -14.65098,7.64524 -20.9887,11.25625 -2.43004,6.64769 -7.25188,13.20353 -8.27967,19.90508 2.8466,8.43278 5.51556,16.97199 12.64399,22.83918 3.39198,6.14453 10.91348,9.01207 16.45877,13.56851 5.3182,-2.20488 -0.66345,-10.29381 2.92654,-15.51087 -0.20848,-6.24517 1.34197,-10.62027 -7.3687,-12.27776 -5.33815,-2.25172 -14.92812,-3.17647 -11.23363,-11.11702 3.77551,-6.19166 10.68712,-4.51692 15.17895,-9.78367 2.59345,-3.5515 4.49944,-7.51365 4.77713,-13.0846 -1.84615,-2.74254 -4.39089,-1.06214 -4.11468,-5.7951 z"
       id="92"/>
       </a>
        <a title="Val-De-Marne">
    <path
       d="m 243.7023,226.82341 c -2.63283,3.14985 -13.8297,5.66252 -7.61807,8.61174 0.15749,-5.23463 13.34751,-3.83619 8.00831,3.1226 -4.1917,4.55641 -12.25651,-4.44262 -16.28855,2.01132 -5.72053,1.54338 -13.99452,-0.50564 -11.7039,8.22402 2.11995,3.6535 -4.94394,15.08952 3.04982,13.65772 6.16274,-3.45417 11.23185,6.95792 18.13711,4.78152 8.25142,-0.16176 16.62698,-0.88625 23.73899,4.11702 4.78144,2.2633 4.85422,-10.28904 8.01791,-14.11787 2.00063,-4.54469 5.73772,-15.04052 -0.67692,-16.3182 -5.56958,-2.86979 -9.1273,-9.89776 -15.7546,-12.35821 -2.53092,-2.18919 -5.85165,-1.34128 -8.9101,-1.73166 z"
       id="94"/>
       </a>
</svg>
