<svg version="1.1" viewBox="-10 -10 580 580" class="region">
 <a title="Retour à la carte de le France" onclick="showMap('France')">
     <rect
       id="fond"
       width="580"
       height="580"
       x="-10"
       y="-10"
       style="fill:#fff;fill-opacity:1;" />
     </a>
        <a title="Manche">
  <path
       d="m 43.189279,154.58803 -2.37962,5.99665 12.56439,10.08958 0,13.1355 -4.759238,5.90146 2.950727,2.95072 1.808511,1.2374 -1.237402,11.32699 4.188129,9.51847 13.706607,15.41994 2.950728,13.70661 2.950728,4.18813 0,21.41657 7.138859,14.27771 0,16.65734 -7.709967,15.41994 8.281075,21.41657 13.135498,2.95072 1.142217,5.99665 -6.472564,2.95073 -11.231803,0 1.808511,7.51959 3.521836,11.32699 10.184771,8.94737 4.759238,1.14221 4.75924,-6.47256 5.33035,-0.66629 6.47257,-7.70997 5.99663,4.75924 7.13886,0 4.75924,2.37961 0,1.14223 10.08958,1.2374 5.99664,-4.75924 8.85218,3.61702 0.19038,0.38074 10.18477,-8.66181 3.42665,-11.327 -0.95184,-4.9496 1.42777,-5.80627 -5.90147,-5.90146 -15.22955,-9.89922 -11.23181,-0.95184 -11.32698,-14.27771 9.3281,-3.42666 3.90258,-7.32923 -4.85442,-4.47368 4.3785,-3.90258 4.3785,3.42666 7.90032,-4.85443 4.94962,-7.90033 1.90369,-7.80516 -3.42665,-6.94849 1.99888,-2.4748 -4.47368,-7.32923 4.94961,-6.37737 -3.90258,-4.94961 -4.94961,6.37738 -6.8533,-3.90258 -11.32699,-11.32699 -0.47593,-4.85442 3.42666,-3.42665 -1.04703,-6.56775 -5.6159,1.42777 -0.57111,-14.27771 -15.51512,-18.37066 4.75924,-11.8981 6.56775,0 -5.90146,-16.08623 -25.604705,-1.2374 -13.706607,9.51848 -15.419933,-10.08959 -22.082866,-6.56775 z"
       id="50"/>
    </a>
        <a title="Calvados">
    <path
       d="m 296.28558,216.36295 -13.89697,2.4748 -22.65398,13.1355 -25.50951,10.08959 -20.27436,-11.32699 -48.7346,-7.13886 -11.32699,-5.90145 -17.60918,4.47368 1.04703,6.56775 -3.42666,3.42665 0.47593,4.85442 11.32699,11.32699 6.8533,3.90258 4.94961,-6.37738 3.90258,4.94961 -4.94961,6.37737 4.47368,7.32923 -1.99888,2.4748 3.42665,6.94849 -1.90369,7.80516 -4.94962,7.90033 -7.90032,4.85443 -4.3785,-3.42666 -4.3785,3.90258 4.85442,4.47368 -3.90258,7.32923 -9.3281,3.42666 11.32698,14.27771 11.23181,0.95184 8.66181,5.6159 11.99328,-3.61702 8.85219,-10.27995 12.27883,3.42665 10.75588,-7.42441 6.47257,-2.37962 6.85329,6.8533 11.327,-1.99887 9.80402,5.42553 12.27884,-3.90258 11.23181,-8.37626 7.4244,-8.37626 4.94961,-0.95185 1.42778,6.37738 3.90257,-0.95185 0.47592,-4.47368 11.32699,-1.90369 3.90257,2.37961 12.08847,-2.66517 1.99889,-5.80627 -0.57112,-5.33035 -5.99664,-2.37961 -0.57111,-4.18813 5.33035,-3.52184 0.66629,-5.99665 -3.61701,-14.27771 -7.13886,-10.08958 5.99663,-3.52184 0,-2.37962 -5.99663,-1.80851 -2.85555,-22.55879 z"
       id="14"/>
    </a>
        <a title="Orne">
    <path
       d="m 309.04034,298.22185 -12.08847,2.66517 -3.90257,-2.37961 -11.32699,1.90369 -0.47592,4.47368 -3.90257,0.95185 -1.42778,-6.37738 -4.94961,0.95185 -7.4244,8.37626 -11.23181,8.37626 -12.27884,3.90258 -9.80402,-5.42553 -11.327,1.99887 -6.85329,-6.8533 -6.47257,2.37962 -10.75588,7.42441 -12.27883,-3.42665 -8.85219,10.27995 -11.99328,3.61702 6.56774,4.28332 5.90147,5.90146 -1.42777,5.80627 0.95184,4.9496 -3.42665,11.327 -10.18477,8.66181 3.99775,6.75811 6.56776,4.75925 8.94737,-5.99665 5.90145,4.18813 16.08623,-9.51847 16.08623,2.37961 8.85218,-3.61701 2.47481,-5.90146 5.90145,-0.57111 5.33034,4.75924 2.37963,13.04031 7.70995,2.95073 3.04592,10.75588 10.08959,0.57111 16.08622,-14.84883 16.08623,-0.5711 4.75924,6.47256 2.95073,21.41657 10.08958,3.61702 5.99665,8.94737 12.46919,0 0.57112,4.09294 0.57111,-5.90145 2.37961,0 8.37626,12.46921 6.47257,1.04703 0,-14.08734 -4.09295,-5.42553 -1.23741,-4.75925 8.94738,-5.33035 8.94737,-1.8085 5.90145,-7.13886 -1.14221,-21.98768 -12.56439,-10.66069 -0.57111,-10.18478 -10.6607,-7.13885 4.18813,-5.90146 -2.4748,-8.94737 -8.28107,-2.95073 -5.99665,-5.99664 -3.52184,-8.28107 -16.65732,-0.57111 -4.75924,-5.99664 2.76035,-7.90034 z"
       id="61"/>
    </a>
        <a title="Seine-Maritime">
    <path
       d="m 415.93284,105.85343 -3.90258,4.75924 -25.50952,19.60807 -45.21276,11.32698 -29.79283,10.6607 -24.36731,13.13549 -14.27771,21.41658 -2.95073,16.65733 11.8981,8.94737 17.22844,3.52184 -2.76036,0.47592 0.095,0.47592 13.32587,-1.71333 6.85331,-7.32922 5.13997,-1.23741 5.90145,10.27996 8.1859,-0.85666 3.42665,5.90146 14.46808,-0.85667 14.56328,10.27996 -9.42329,2.95073 6.85329,5.13997 4.28332,0 3.80739,8.18589 6.85331,0 2.09406,-5.13997 -5.13998,-3.42666 14.56327,-4.28331 15.32475,-1.71332 3.90258,-11.13662 7.23403,-6.37739 13.70662,-0.38074 15.80066,8.09071 9.42327,1.04704 1.61814,-4.94962 4.18813,-7.80514 2.37962,-4.09295 -5.99664,0 0,-10.18477 -3.52184,-5.90145 2.37963,-11.8981 2.37961,-5.99664 -4.75924,0 2.37963,-5.90146 5.90145,-7.13885 -5.90145,-10.75589 -1.80852,-10.66069 -26.17578,-25.6047 -2.95072,-5.90146 -6.56776,0.57112 -5.13997,-2.18926 z"
       id="76"/>
    </a>
        <a title="Eure">
    <path
       d="m 321.69991,206.55891 -5.13997,1.23741 -6.85331,7.32922 -13.32587,1.71333 2.76037,22.08287 5.99663,1.80851 0,2.37962 -5.99663,3.52184 7.13886,10.08958 3.61701,14.27771 -0.66629,5.99665 -5.33035,3.52184 0.57111,4.18813 5.99664,2.37961 0.57112,5.33035 -4.75924,13.70661 4.75924,5.99664 16.65732,0.57111 3.52184,8.28107 5.99665,5.99664 8.28107,2.95073 2.4748,8.94737 -4.18813,5.90146 8.66181,5.80627 8.56663,-8.1859 8.28108,0 21.51176,-11.2318 7.04367,2.95073 14.94401,0 3.52184,-4.18813 0,-8.94737 11.8981,-5.90145 0,-9.51849 3.23628,-2.66516 -0.2854,-2.66518 3.0459,-3.04592 -5.33034,-1.14221 0,-4.75924 -3.04592,-4.75924 2.37963,-2.95073 16.65733,-4.75923 4.18813,-7.13887 3.61699,-13.13548 4.3785,-5.42554 0.95185,-7.04367 5.33035,2.95072 4.18813,-1.14221 -3.04592,-4.75924 -1.71332,-13.7066 -5.33035,-4.75924 0.095,-0.38074 -9.42326,-1.04704 -15.80067,-8.09071 -13.7066,0.38074 -7.23405,6.37739 -3.90258,11.13662 -15.32475,1.71332 -14.56326,4.28331 5.13997,3.42666 -2.09406,5.13997 -6.85331,0 -3.80739,-8.18589 -4.28331,0 -6.8533,-5.13997 9.42329,-2.95073 -14.56328,-10.27996 -14.46808,0.85667 -3.42665,-5.90146 -8.18589,0.85666 -5.90146,-10.27996 z"
       id="27"/>
       </a>
</svg>
