<svg version="1.1" viewBox="-10 -10 580 580" class="region">
 <a title="Retour à la carte de le France" onclick="showMap('France')">
     <rect
       id="fond"
       width="580"
       height="580"
       x="-10"
       y="-10"
       style="fill:#fff;fill-opacity:1;" />
     </a>


        <a title="Pyrénées-Atlantiques">
        <path
    d="m 212.74259,433.42162 c -5.19603,4.69222 -14.37702,3.51569 -19.09211,1.45109 -7.15855,4.64645 -13.19773,1.66585 -19.66132,1.77721 -5.66249,-4.08112 -13.14348,2.19277 -20.22191,-0.0334 -4.37657,6.14054 -13.06766,1.43963 -17.1763,5.2312 4.15473,-6.07912 -5.89529,-8.10927 -10.27342,-1.62256 -7.48849,2.13065 -13.82936,-1.44879 -20.17615,-4.99881 -5.11322,8.34876 -11.735346,17.38266 -22.589748,17.23789 -3.092375,10.44431 12.542094,5.89442 11.910615,12.65307 4.844383,4.64568 8.745493,-5.19627 15.733643,1.65189 7.7546,1.49919 2.11266,13.86957 -1.3958,16.9102 -8.93849,3.35699 8.29729,15.9745 7.90287,6.78862 5.36745,-13.61026 0.98685,4.88595 10.00059,2.88181 5.52406,3.07286 11.99063,5.28674 18.87285,7.71784 5.28246,6.46996 15.82644,1.31008 20.67295,4.77387 -1.6964,10.10824 10.6863,11.74983 14.68904,19.37042 6.47672,-5.23978 11.8484,0.77184 17.95263,-5.49179 3.51157,-4.86918 5.22289,-11.48041 6.96548,-17.86749 -3.53392,-11.07823 14.69552,-1.53592 6.25947,-12.54785 6.81143,-5.02343 12.84854,-10.62539 15.02751,-19.10988 5.15173,-6.5936 6.29005,-11.68376 -0.46543,-17.91725 0.41892,-5.39061 2.74179,-10.85142 -4.04508,-17.42474 -3.38237,-0.75116 -8.23026,0.39448 -10.89038,-1.43131 z"
       id="64"/>

 </a>
        <a title="Landes">
        <path
    d="m 148.33381,325.01573 c -5.11972,4.92699 -16.23376,3.77518 -16.40214,11.32393 -3.70661,25.3516 -11.00318,49.88855 -16.7096,74.79927 -1.36364,8.64811 -3.90334,16.93055 -9.08069,24.08739 6.55852,3.92837 13.28047,7.04357 21.05127,4.94011 4.34297,-7.90482 13.16696,-2.82099 9.60973,1.75587 4.40031,-3.49329 12.86408,2e-5 17.68062,-5.27659 6.87068,1.94648 14.16247,-4.02116 19.67111,-0.0478 6.48843,0.90752 12.99181,2.29004 20.27862,-1.98818 4.41685,3.07593 13.43186,2.9973 18.30986,-1.18815 -6.28978,-6.02312 2.05447,-12.91021 3.64059,-18.45253 1.39103,-7.1769 -0.66422,-11.92051 -0.88575,-18.17437 4.33165,-4.07674 14.65833,-4.21372 16.68734,-4.34186 2.38616,11.2105 9.64389,3.32507 7.80752,-3.86893 -4.52091,-6.60774 10.08744,-14.53532 0.22338,-15.91224 -5.73486,-4.25061 -17.46272,2.6183 -16.18023,-7.62655 -2.37745,-9.08429 -10.18431,-11.33225 -6.68778,0.1094 -6.84989,1.1298 -16.54527,-0.34727 -14.93678,-9.4245 -3.73719,-6.52689 -8.69677,-8.76874 -14.07029,-13.11854 -7.65398,0.91242 -0.93016,-11.82523 -11.61943,-8.95978 -6.64189,5.05679 -11.84472,2.48882 -18.42494,2.62029 -12.79247,4.96205 3.36379,-10.41728 -7.94122,-10.51959 l -1.15937,-0.42257 -0.86182,-0.31412 0,0 z"
       id="40"/>

 </a>
        <a title="Gironde">
        <path
    d="m 151.19642,207.08851 c -5.22053,5.8254 -7.56992,12.61341 -6.87771,20.42117 -0.53565,29.27223 -8.20864,57.79642 -10.23575,86.92682 1.38218,-4.71489 5.16592,-19.33322 10.89841,-13.51075 6.34065,4.56162 11.63125,13.05235 -0.48499,10.3508 -7.4605,-6.84193 -6.36724,7.31316 -11.5958,10.93879 -2.99468,10.45941 3.80756,10.78112 10.79043,5.19214 6.05124,-6.06652 16.59331,2.30486 8.12773,8.12523 5.90748,1.838 12.24084,0.67164 18.24695,1.32448 3.48648,-5.67829 16.96512,-4.23574 14.07535,3.17522 2.64207,1.73302 10.18669,7.11255 13.9462,9.78379 7.12551,4.23603 1.90533,15.93528 12.50625,15.638 11.67004,5.54566 2.21826,-14.6855 9.68874,-6.85513 2.45987,6.82956 15.85601,0.23534 10.18939,-5.50748 -6.56971,-7.37113 12.3053,-3.85001 4.92989,-12.42137 -2.08226,-7.67364 6.0812,-13.75755 9.54404,-20.03511 11.01194,-5.86958 -0.69976,-5.67967 0.6712,-13.44071 2.6433,-5.34261 16.49329,-0.15397 12.66657,-9.32688 5.54227,-6.58649 -1.20322,-11.8558 -6.08643,-2.78467 -6.11892,1.36975 -17.24973,0.0344 -15.02411,-6.16875 0.69167,-6.95195 0.92238,-10.20662 4.20624,-16.6834 5.40276,-7.09973 -1.81907,-12.1777 -6.20508,-11.56809 -2.64589,1.71683 -13.14409,4.89508 -18.07003,-0.31758 -3.56125,-7.92944 -14.66513,-3.94172 -12.68509,-14.05457 2.44704,-10.29453 -14.82013,-1.0838 -11.15442,-12.13147 -3.93029,5.14775 -17.66502,-2.54698 -12.0073,8.01556 1.2651,7.01583 4.75581,15.6257 0.68132,22.04186 -2.40901,-10.51199 -4.26454,-21.75609 -8.32139,-31.50666 -5.94547,-6.25146 -14.56785,-11.3978 -18.86982,-18.32776 -0.40707,-3.85858 2.67315,-8.22739 -3.55079,-7.29348 z"
       id="33"/>

 </a>
        <a title="Dordogne">
        <path
    d="m 287.79283,197.62945 c -2.68024,8.15062 -12.45959,5.63751 -9.3346,16.30445 -5.78778,4.73602 -14.18419,8.04555 -18.32962,13.67966 0.60679,7.77183 0.0433,15.03692 -7.35103,19.34437 -4.20215,6.94769 -13.98636,-1.17616 -15.37165,9.1637 -6.07823,7.53555 12.09695,4.6871 4.59999,13.65189 -0.46012,7.80832 -6.99277,9.65027 -3.56205,17.37403 -5.66281,5.2863 4.50926,10.1362 10.37618,8.04017 3.95519,-2.85199 16.96236,-8.72918 9.35097,-0.10498 -3.01536,9.16119 8.88115,10.00001 6.65868,18.98037 6.54233,3.4699 12.53649,-1.68629 19.143,-2.62681 4.55762,-5.00727 9.62564,6.76782 15.02166,-0.85811 11.72219,0.1357 -1.43573,11.83143 7.92166,10.87681 5.03151,-7.9837 10.86053,-2.79732 16.67012,0.54952 7.65467,0.22311 3.00242,-13.87966 13.21471,-10.3299 10.16097,-3.26773 -0.11369,-12.25537 7.56251,-13.37089 2.8425,-2.12738 12.61065,-10.32184 7.47275,-15.17835 -0.20714,-6.72193 -0.10962,-10.47182 -1.5966,-18.11505 2.8455,-7.14416 -18.4708,-0.0803 -8.74158,-9.44408 -4.87232,-4.69396 -2.85749,-8.5765 -3.37852,-15.20281 10.11243,-5.1722 3.02252,-8.11673 0.26699,-15.53917 -12.87039,-0.51521 -7.11075,-3.05675 -7.03207,-8.5256 -11.21705,3.13935 -6.85854,-11.43558 -16.65925,-9.54475 -6.77049,-3.62301 -13.0666,10.20597 -14.82999,-1.75359 4.33593,-9.27731 -6.75529,-6.81493 -12.07226,-7.37088 z"
       id="24"/>

 </a>
        <a title="Lot-Et-Garonne">
        <path
    d="m 258.73108,302.98605 c -5.5825,0.91101 -17.74115,1.54537 -12.41599,9.90808 10.64184,1.51462 -3.48713,7.06003 -4.97918,12.7319 -4.35571,5.8466 -9.4379,12.90004 -3.94994,19.80136 -8.39056,2.13878 -9.34851,4.96416 -5.60078,12.32169 -7.06424,4.21072 -10.71042,3.56207 -6.72092,13.3796 6.72376,-1.08903 14.81682,0.0328 19.72715,4.23168 -5.96303,2.20477 -6.95521,18.07782 -1.92303,12.0637 6.39622,5.30077 9.31932,-6.12152 16.27058,0.10269 9.06626,1.96412 10.61344,-6.97407 18.00941,-7.22524 8.48312,-3.98824 10.83768,8.94866 18.10447,2.1264 -5.7128,-8.87699 9.91212,-5.60074 11.61402,-9.78921 -2.94299,-5.89586 8.18534,-13.4443 -1.09728,-18.18564 0.28932,-12.04717 5.60572,-5.30282 13.32817,-6.42061 8.17369,-0.7451 -3.78697,-11.80008 -2.42079,-17.60848 -2.14946,-4.49165 16.88954,-5.32368 2.76242,-10.15431 -4.94064,-8.88629 -10.17184,2.48301 -16.21334,0.88776 2.21681,-3.065 0.99133,-14.55532 -5.97415,-8.46339 -8.02875,1.86325 -9.62469,-6.48838 -16.41828,0.31117 -6.03872,-1.72236 -15.56575,7.85199 -16.34752,-2.62806 0.77879,-4.40169 -2.93964,-5.15776 -5.75502,-7.39109 z"
       id="47"/>

 </a>
        <a title="Charente-Maritime">
        <path
    d="m 167.25194,118.2853 c -5.22337,-0.39455 -18.07442,5.28926 -15.5398,9.25623 -1.87041,2.44865 -6.36529,13.64182 -12.60133,9.73714 -6.64229,-3.38437 -10.56803,-4.36052 -15.54482,-10.34329 -11.30773,0.46 -2.75903,10.7557 4.15259,9.25032 4.91009,6.28443 13.41048,4.86313 17.88745,8.18756 4.99185,2.42879 11.1286,7.14084 11.11938,13.07159 -11.19264,-1.68311 0.14516,7.94773 -4.41359,14.42621 -7.95934,-1.25322 -0.92317,12.98807 -9.18221,7.13388 4.44931,-6.52117 -0.61396,-10.54094 -0.72469,-18.18687 -3.51811,0.44117 -14.29316,-13.84667 -12.47274,-4.43655 -3.90735,8.71798 4.56811,11.36642 8.56852,16.52548 0.51145,7.83297 2.72498,15.42629 2.98773,23.29115 7.62954,-2.06957 11.39785,7.43827 18.29583,9.33461 0.88351,6.21101 10.83709,7.51914 14.26545,14.26544 6.94873,3.07061 0.98344,17.34495 9.47478,16.28984 11.14287,-2.88845 7.29118,1.9126 15.01601,4.49202 10.76618,-2.91771 1.45021,14.74545 10.49001,13.30885 6.4632,1.59988 10.47586,14.32345 18.66035,8.174 6.48762,3.94463 10.93189,-5.47324 11.22458,-11.04654 -6.92349,-1.64678 -9.21195,-11.72827 -15.66476,-11.73142 -13.82587,3.27859 -1.19944,-5.13588 -8.23844,-6.64023 4.21524,-4.0884 2.25104,-9.74646 3.82871,-15.98919 -3.58799,-4.87905 -7.29798,-11.23826 -13.44158,-14.10985 5.75466,-3.17199 -2.37931,-14.01049 -0.37383,-15.16331 6.60921,-1.33875 13.27774,-5.49272 18.51439,-1.11091 8.55157,0.36967 3.94396,-12.18259 7.85285,-17.4465 2.07945,-6.03945 -3.38576,-12.18703 -9.20716,-14.40551 -4.55459,-7.99511 -14.68962,0.47191 -18.10562,-7.44515 -3.34091,-6.36271 -14.77647,-1.25196 -16.852,-9.57349 -4.98001,-4.84177 -2.80148,-13.00177 -10.26796,-16.00393 -6.3496,2.62163 -7.8931,5.29065 -9.7081,-3.11158 z"
       id="17"/>

 </a>
        <a title="Corrèze">
        <path
    d="m 399.12359,191.96646 c -3.23152,4.83197 -9.94089,9.80357 -15.87176,9.01161 -5.17256,1.60401 -9.5935,8.19449 -14.91119,10.40437 -4.76478,4.42842 -12.42577,0.3915 -15.68284,6.19127 -3.82604,6.25683 -13.06248,2.2739 -13.19943,9.95547 8.79226,7.07199 0.45306,8.89097 -2.25435,16.12974 0.89542,6.05903 3.39848,9.15774 1.97,14.78898 0.53715,6.69422 16.23228,-1.29464 10.89897,10.36484 1.28758,12.47342 11.10243,-1.47631 17.15262,4.19939 8.64162,0.34147 8.56876,14.54408 16.71463,12.89289 6.10617,-9.13299 8.59199,-0.66179 13.93873,-7.18885 5.57294,4.79514 15.12597,0.35109 7.96277,-6.22573 2.08933,-4.84856 9.22641,-7.03647 8.94596,-15.02945 -3.21452,-7.87762 4.86447,-13.85861 11.09498,-17.07895 -1.50083,-10.94239 2.20239,-11.71994 9.01282,-4.66729 8.04003,-0.29588 1.65762,-11.26974 4.55366,-16.80455 -3.2087,-6.64568 -4.07792,-13.03416 0.25509,-19.38986 1.08687,-7.99474 -10.65429,-1.17776 -14.42813,-0.0137 -6.59508,7.23961 -9.82596,-8.43352 -17.51165,-4.61528 -4.87582,1.69938 -4.05567,-4.2764 -8.64088,-2.92495 z"
       id="19"/>

 </a>
        <a title="Creuse">
        <path
    d="m 379.95651,112.80901 c -0.32224,10.00709 -10.6996,4.71855 -16.57876,4.78341 -6.53066,-3.35997 -9.7453,8.7801 -10.1699,13.9744 -7.08227,7.91041 -0.71098,11.49754 3.74215,16.41177 4.10926,6.73209 6.70049,12.48244 4.4415,20.75706 -3.06425,6.45155 17.01818,-0.98998 6.02343,8.54731 -4.46807,7.81369 10.9688,5.37959 13.09104,1.55282 -4.88433,7.26632 13.23763,8.06387 8.98248,13.13068 -6.78568,5.27186 8.52324,8.8783 9.32105,0.79104 4.29701,1.34717 13.59831,0.64848 17.74001,5.55782 5.95323,8.39335 10.13006,-4.24276 17.73442,-0.87256 10.58729,-4.21207 -8.90133,-9.29877 -3.84871,-15.2432 8.68462,-2.39023 10.28623,-9.25443 15.70707,-14.40689 2.26986,-6.77588 -6.39012,-11.78689 -4.41216,-19.18534 0.15295,-7.88408 -4.26444,-14.70469 -10.0967,-18.46591 -4.45889,-2.51119 -7.31783,-1.12116 -9.44463,-11.01983 -3.71732,-7.86354 -13.74258,0.99279 -20.12514,-3.26298 -7.21667,-1.70731 -14.77241,-1.93257 -22.10715,-3.0496 z"
       id="23"/>

 </a>
        <a title="Haute-Vienne">
        <path
    d="m 346.91201,118.65868 c -5.46396,7.71811 -17.04391,-1.31211 -23.68346,5.43011 -1.385,9.20759 -10.154,4.19142 -14.94441,11.69005 -7.21547,3.61726 1.42195,10.06038 -1.82209,17.10673 -6.25443,8.79345 11.04623,4.55484 7.91029,14.04649 -2.91894,4.67173 -14.74355,3.88034 -9.46606,14.70409 -6.96876,2.96884 -10.77657,7.85284 -14.16122,12.5534 -2.81062,6.6927 16.2373,0.91952 8.68491,11.9655 4.74145,10.45665 9.44954,-4.34121 17.5604,0.81693 6.6614,1.43606 5.45664,11.53576 15.08559,10.32767 -6.02958,5.46642 -1.45789,6.04375 6.76873,8.67034 3.13591,-3.3356 9.49249,-4.43075 14.56041,-8.30088 2.83409,-6.75555 11.22315,-1.89346 16.07539,-6.28667 4.03863,-3.91599 9.38263,-8.99564 14.275,-10.25624 12.02399,4.22119 -0.13911,-9.8902 6.96694,-9.15974 -2.30375,-5.69363 -12.1799,-7.86891 -11.45044,-13.13068 -1.63319,5.95828 -18.78576,4.25095 -10.78044,-2.42847 8.30752,-10.02282 -13.04962,1.01758 -6.91409,-10.07052 3.14753,-8.35998 -2.70488,-12.99581 -5.36851,-20.19062 -8.03596,-2.07763 -7.05044,-10.0185 -2.12029,-16.32922 1.97745,-7.11528 -3.07627,-5.28796 -7.17665,-11.15827 z"
       id="87"/>

 </a>
        <a title="Vienne">
        <path
    d="m 245.78711,28.797552 c -5.06582,5.050837 -11.65288,10.384063 -8.79262,18.403179 4.98735,1.700873 3.64576,11.024219 7.28345,17.269973 -5.08553,4.915025 -0.76565,10.470685 -0.3694,16.132724 -8.83636,8.223896 1.31314,8.750695 -0.86284,16.687598 -4.65178,7.179314 -1.84485,10.888254 -1.67698,18.316814 3.00597,1.81792 1.26349,16.4447 7.21877,10.33184 2.67889,-9.78482 10.44979,3.72342 3.36045,7.21876 -8.0935,8.81413 9.16293,8.94713 5.59554,14.89451 -10.72774,-0.59367 -0.0401,10.78658 6.2283,7.07293 5.3429,-5.81967 16.25796,6.97587 13.61488,-5.29412 4.79693,-8.12104 7.64351,11.13589 15.62951,1.65422 2.80138,-9.0394 16.17759,3.18989 13.73757,-6.70728 -4.68161,-5.53564 2.32199,-11.78416 8.02359,-13.78185 8.62878,2.07772 5.69149,-11.57431 16.4226,-9.59304 11.70614,-2.02875 -1.07694,-9.48613 -1.09926,-16.07897 -6.31169,-0.96069 -11.61171,-6.705668 -17.16176,-11.063012 1.25827,-6.217943 2.55358,-14.830999 -5.2064,-18.648882 -0.22687,-7.429075 -8.60956,-10.762127 -9.48464,-18.127563 0.0992,-5.694597 -12.08783,-14.915483 -9.27265,-3.795547 -7.09093,2.26028 -14.38624,2.743727 -21.78075,2.364768 1.83655,-8.086002 0.80674,-14.965864 -8.96123,-14.810909 -0.11213,-6.261891 -9.28651,-7.451619 -11.42919,-12.446143 l -1.01694,0 0,0 z"
       id="86"/>

 </a>
        <a title="Charente">
        <path
    d="m 280.69854,146.66249 c -4.78151,5.39241 -2.75617,12.74392 -12.17667,6.76336 -7.1234,4.58126 -13.52972,0.7744 -17.84794,-3.8544 -6.26707,3.41026 -12.77394,3.44144 -14.69726,10.48462 -2.01237,4.4748 -6.68281,10.98913 -7.00054,18.32626 1.54413,11.05242 -7.93916,6.98659 -13.43315,5.55637 -6.25953,3.97447 -15.9104,1.33071 -9.09139,9.60943 1.71119,7.48259 -2.40399,9.27125 6.00494,14.45318 5.8093,4.75431 6.02656,11.04824 5.7028,15.70547 0.18779,6.01595 -5.19897,9.18369 -0.34055,11.84094 -8.98303,7.52467 9.864,0.25181 11.17308,7.00656 4.10254,5.71621 10.07969,10.22353 15.81002,7.54521 6.58145,1.50485 11.80331,-6.92822 15.02093,-11.32443 -0.7451,-7.93969 -0.12005,-15.13014 8.50187,-17.94759 8.3525,-2.84808 10.73152,-10.16065 11.7296,-16.39489 8.18282,-0.38526 8.33835,-10.56838 13.67386,-12.9469 0.18821,-7.55771 13.81882,-6.00178 10.79957,-14.77095 -3.47952,-9.68998 16.00695,-3.3781 8.92332,-14.62638 -6.85163,-1.77163 -8.6396,-6.43974 -7.96824,-12.92843 -7.49825,-4.89418 -12.08255,3.36214 -18.93053,5.00074 -2.78268,-1.01782 -4.17852,-4.98804 -5.85372,-7.49817 z"
       id="16"/>

 </a>
        <a title="Deux-Sèvres">
        <path
    d="m 231.78519,36.203007 c -10.42082,-0.509449 -20.35163,3.052417 -30.74197,3.111535 2.26179,9.330629 -8.96428,9.8711 -15.04143,6.777696 -9.1297,-1.057184 -11.5542,4.092974 -6.73932,10.874566 3.32346,6.354288 10.65114,9.63599 8.67578,16.859806 6.09457,5.537509 1.53001,10.746161 6.09909,18.143819 -0.75906,7.657002 1.32906,12.741091 -1.11537,19.338241 -2.12529,4.09973 13.3399,2.8936 1.5248,8.90579 -3.68135,4.99986 -16.24888,3.50121 -10.6156,12.17238 3.86996,4.87991 6.50881,12.36882 14.67294,11.18265 6.59676,1.26665 8.61223,11.16391 17.47438,6.5157 5.78799,4.69442 13.12531,6.41926 15.34739,13.53223 7.46894,3.32584 3.5045,-11.57325 11.83729,-10.5251 3.79576,-4.26416 17.56317,-2.65264 14.37992,-8.87976 -8.32356,-0.0355 -9.07718,-9.89994 -3.04379,-14.04119 2.51089,-11.33731 -7.04629,-6.03637 -8.47231,-2.60419 -3.82353,-6.06001 -3.85175,-10.52659 -4.65837,-17.86815 -4.76607,-4.35957 3.71792,-11.068218 2.49247,-17.000912 -9.97833,-3.654857 2.90341,-9.387062 -0.31679,-16.290323 -5.72436,-5.409469 3.75584,-10.572822 -1.30444,-16.432657 0.67363,-10.075911 -6.11091,-9.453791 -5.58269,-17.967565 0.68224,-2.42149 -4.07782,-0.598948 -4.87198,-5.804566 z"
       id="79"/>
 </a>
</svg>
