<?xml version="1.0" encoding="UTF-8" standalone="no"?>
<svg
   xmlns:dc="http://purl.org/dc/elements/1.1/"
   xmlns:cc="http://creativecommons.org/ns#"
   xmlns:rdf="http://www.w3.org/1999/02/22-rdf-syntax-ns#"
   xmlns:svg="http://www.w3.org/2000/svg"
   xmlns="http://www.w3.org/2000/svg"
   xmlns:sodipodi="http://sodipodi.sourceforge.net/DTD/sodipodi-0.dtd"
   xmlns:inkscape="http://www.inkscape.org/namespaces/inkscape"
   width="364.48807"
   height="15"
   viewBox="0 0 480 20"
   id="friseCat"
   version="1.1"
   sodipodi:docname="antique.svg"
   inkscape:version="0.91 r13725">

  <path
     d="M 29.707031 1.0136719 C 27.624362 1.998366 25.539884 2.9806936 23.457031 3.9648438 C 23.458081 4.1258351 23.453134 4.2864584 23.458984 4.4472656 C 27.623042 4.4459948 31.787114 4.4477637 35.951172 4.4492188 C 35.957772 4.2884115 35.953803 4.125651 35.955078 3.9648438 C 33.872225 2.9805095 31.789332 1.9987343 29.707031 1.0136719 z M 24.662109 4.6679688 C 24.665034 4.9305743 24.662487 5.1946014 24.662109 5.4570312 C 25.991006 5.4614037 27.321495 5.4577094 28.650391 5.4589844 C 30.683341 5.4577059 32.715098 5.4612162 34.748047 5.4570312 C 34.748047 5.1944257 34.746925 4.9305827 34.75 4.6679688 C 31.387434 4.6668738 28.024859 4.6668738 24.662109 4.6679688 z M 33.126953 5.6777344 C 33.076874 7.723245 33.023232 9.770704 32.974609 11.816406 C 33.464136 11.816038 33.953648 11.814997 34.443359 11.814453 C 34.383983 9.7693024 34.323663 7.7248387 34.267578 5.6796875 C 33.886964 5.6778575 33.507392 5.6786494 33.126953 5.6777344 z M 25.123047 5.6796875 C 25.072783 7.7250226 25.021377 9.7691265 24.96875 11.814453 C 25.458276 11.814637 25.947789 11.814093 26.4375 11.814453 C 26.381412 9.7691182 26.321954 7.7250226 26.263672 5.6796875 C 25.883233 5.6791435 25.503301 5.6791435 25.123047 5.6796875 z M 27.791016 5.6796875 L 27.636719 11.8125 L 29.107422 11.814453 L 28.933594 5.6796875 L 27.791016 5.6796875 z M 30.466797 5.6796875 L 30.314453 11.814453 L 31.783203 11.814453 L 31.607422 5.6796875 L 30.466797 5.6796875 z M 24.046875 12.035156 C 24.049275 12.297586 24.0481 12.561604 24.048828 12.824219 C 23.822828 12.824934 23.597103 12.825344 23.371094 12.824219 C 23.371822 13.087377 23.371638 13.349939 23.371094 13.613281 C 23.15183 13.612913 22.932154 13.612913 22.712891 13.613281 C 22.711807 13.876623 22.712346 14.139001 22.712891 14.402344 C 27.37522 14.402704 32.036898 14.403072 36.699219 14.402344 C 36.699763 14.139002 36.699763 13.876615 36.699219 13.613281 C 36.479956 13.612729 36.260279 13.613281 36.041016 13.613281 C 36.040116 13.350123 36.040116 13.087377 36.041016 12.824219 C 35.815015 12.825119 35.589282 12.825119 35.363281 12.824219 C 35.364038 12.561789 35.362834 12.297586 35.365234 12.035156 C 31.592721 12.034256 27.819389 12.034256 24.046875 12.035156 z "
     transform="matrix(1.3333333,0,0,1.3333333,-2.9920451,0)"
     id="path5" />
</svg>
