<?xml version="1.0" encoding="UTF-8" standalone="no"?>
<svg
   xmlns:cc="http://creativecommons.org/ns#"
   xmlns:rdf="http://www.w3.org/1999/02/22-rdf-syntax-ns#"
   xmlns:svg="http://www.w3.org/2000/svg"
   xmlns="http://www.w3.org/2000/svg"
   width="76.62075"
   height="13.877121"
   viewBox="0 2 100.90306 13.877121"
   id="friseCat"
   version="1.1">

    <path id="religieux" name="01"
       d="M 108.16942,628.32155 108.3624,526.2519 163.73613,404.82155 c 24.36544,-53.43155 47.97476,-95.50139 48.25244,-95.50139 0.27768,0 21.99097,42.975 48.25175,95.5 l 53.13938,118.14857 15.6275,-12.96449 196.13724,1.42857 34.61272,20.54248 c 6.53682,3.87957 3.07494,7.69887 4.23142,42.14196 l -10e-6,86.45859 0,95.74432 -224,0 -231.81915,0 z m 151.81325,73.74861 c -0.007,-48.17113 -1.18508,-57.31922 -9.49696,-73.77248 -4.18406,-8.28229 -17.01569,-20.50347 -28.74714,-27.37951 l -9.75,-5.71468 -9.75,5.71468 c -11.73145,6.87604 -24.56308,19.09722 -28.74714,27.37951 -8.31188,16.45326 -9.48954,25.60135 -9.49696,73.77248 l -0.006,30.39286 48,0 48,0 z m 143.801,-48.5 c -0.32549,-37.98549 -0.37867,-38.86837 -2.69541,-44.75 -3.1079,-7.89019 -9.73784,-17.79998 -16.03156,-23.96241 l -5.06813,-4.96241 -5.06813,4.96241 c -6.29372,6.16243 -12.92366,16.07222 -16.03156,23.96241 -2.31674,5.88163 -2.36992,6.76451 -2.69541,44.75 l -0.33203,38.75 24.12713,0 24.12713,0 z m 96,0 c -0.32549,-37.98549 -0.37867,-38.86837 -2.69541,-44.75 -3.1079,-7.89019 -9.73784,-17.79998 -16.03156,-23.96241 l -5.06813,-4.96241 -5.06813,4.96241 c -6.29372,6.16243 -12.92366,16.07222 -16.03156,23.96241 -2.31674,5.88163 -2.36992,6.76451 -2.69541,44.75 l -0.33203,38.75 24.12713,0 24.12713,0 z M 220.9175,522.21863 l 0,-32 16,0 16,0 0,-5.89847 0,-9.18147 -16,0 -16,0 0,-16 0,-16 -8.92893,0 -8.67639,0 0,16 0,16 -16,0 -16,0 0,9.18147 0,5.89847 16,0 16,0 0,32 0,22.71429 8.67639,0 8.92893,0 z"
       transform="matrix(0.04139335,0,0,0.04139335,78.186656,-12.803798)"/>

  <path id="antique" name="02"
     d="M 8.6973276,0.6507104 C 5.9204357,1.9636359 3.1411317,3.273406 0.36399447,4.5856062 c 0.00133,0.214655 -0.0052,0.4288195 0.00267,0.6432291 5.55207723,-0.00169 11.10417353,6.641e-4 16.65624953,0.0026 0.0088,-0.2144098 0.0035,-0.4314239 0.0052,-0.6458333 C 14.250919,3.2731605 11.473729,1.964127 8.6973276,0.6507104 Z M 1.9707651,5.5231062 c 0.00387,0.3501407 5.04e-4,0.7021768 0,1.0520832 1.7718626,0.00583 3.5458479,9.042e-4 5.3177092,0.0026 2.7105999,-0.00171 5.4196087,0.00297 8.1302077,-0.0026 0,-0.3501407 -0.0015,-0.7019313 0.0027,-1.0520832 -4.483422,-0.00145 -8.9668547,-0.00145 -13.4505213,0 z M 13.257223,6.8694603 c -0.06677,2.7273474 -0.138294,5.4572917 -0.203125,8.1848947 0.652703,-4.91e-4 1.305385,-0.0019 1.958333,-0.0027 -0.07917,-2.726867 -0.159594,-5.452818 -0.234374,-8.1796862 -0.507486,-0.00244 -1.013582,-0.00139 -1.520834,-0.0026 z m -10.671874,0.0026 c -0.067013,2.7271134 -0.13556,5.4525847 -0.2057293,8.1796867 0.6527013,2.45e-4 1.3053853,-4.8e-4 1.9583333,0 C 4.263166,12.324634 4.1838917,9.5991737 4.1061824,6.8720603 c -0.507252,-7.253e-4 -1.013828,-7.253e-4 -1.5208334,0 z m 3.557292,0 -0.2057293,8.1770827 1.9609372,0.0027 -0.2317706,-8.179687 -1.5234373,0 z m 3.5677079,0 -0.2031253,8.1796867 1.9583334,0 -0.234375,-8.1796867 -1.5208331,0 z M 1.1504531,15.346018 c 0.0032,0.349906 0.0016,0.70193 0.00267,1.052084 -0.30133343,9.53e-4 -0.60230003,0.0015 -0.90364533,0 9.706e-4,0.350877 7.253e-4,0.70096 0,1.052082 -0.292352,-4.9e-4 -0.5852534,-4.9e-4 -0.877604,0 -0.00147,0.351123 -7.267e-4,0.70096 0,1.052084 6.21643853,4.8e-4 12.43200923,9.71e-4 18.64843623,0 7.25e-4,-0.351122 7.25e-4,-0.700972 0,-1.052084 -0.292351,-7.36e-4 -0.585253,0 -0.877604,0 -0.0012,-0.350877 -0.0012,-0.701205 0,-1.052082 -0.301334,0.0012 -0.602312,0.0012 -0.903646,0 0.001,-0.349907 -5.96e-4,-0.702178 0.0027,-1.052084 -5.030017,-0.0012 -10.0611257,-0.0012 -15.0911443,0 z" />

  <path id="ouvrages-d-art" name="04"
     d="m 22.610294,5.4199879 c -0.29389,0.41415 -0.51584,13.0828391 -0.51584,13.0828391 l 4.38035,0 0,-4.72846 c 0,-1.95279 1.54161,-3.52507 3.52483,-3.52507 1.98322,0 3.4832,1.99994 3.52926,3.52507 l 0,4.72846 2.21377,0 0,-5.6742 c 0,-1.95279 2.00201,-3.5250691 3.9548,-3.5250691 l 0.42997,0 c 1.9528,0 3.99759,1.5722791 3.99759,3.5250691 l 0,5.6742 2.17099,0 0,-4.72846 c 0,-1.95279 1.64568,-3.52507 3.52483,-3.52507 1.87916,0 3.4832,1.99994 3.52925,3.52507 l 0,4.72846 3.94874,0 c 0,0 0.40335,-12.3785791 -0.42987,-13.0828391 -0.83322,-0.70426 -33.88729,-0.52336 -34.25867,0 z m 1.63047,1.16061 0.0306,0 c 0.34464,0 0.62179,0.27776 0.62179,0.62297 l 0,1.11993 -1.27438,0 0,-1.11993 c 0,-0.34521 0.27739,-0.62297 0.62203,-0.62297 z m 1.47091,0 0.0303,0 c 0.34463,0 0.62226,0.27776 0.62226,0.62297 l 0,1.11993 -1.27462,0 0,-1.11993 c 0,-0.34521 0.2774,-0.62297 0.62203,-0.62297 z m 1.47115,0 0.0303,0 c 0.34463,0 0.62203,0.27776 0.62203,0.62297 l 0,1.11993 -1.27462,0 0,-1.11993 c 0,-0.34521 0.27762,-0.62297 0.62226,-0.62297 z m 1.47091,0 0.0303,0 c 0.34464,0 0.62203,0.27776 0.62203,0.62297 l 0,1.11993 -1.27438,0 0,-1.11993 c 0,-0.34521 0.27739,-0.62297 0.62202,-0.62297 z m 1.47092,0 0.0303,0 c 0.34463,0 0.62226,0.27776 0.62226,0.62297 l 0,1.11993 -1.27439,0 0,-1.11993 c 0,-0.34521 0.27716,-0.62297 0.6218,-0.62297 z m 1.47115,0 0.0303,0 c 0.34463,0 0.62202,0.27776 0.62202,0.62297 l 0,1.11993 -1.27462,0 0,-1.11993 c 0,-0.34521 0.27763,-0.62297 0.62227,-0.62297 z m 1.47091,-0.0752 0.0303,0 c 0.34464,0 0.62226,0.27776 0.62226,0.62297 l 0,1.11993 -1.27462,0 0,-1.11993 c 0,-0.34521 0.2774,-0.62297 0.62203,-0.62297 z m 1.47092,-0.0645 0.0306,0 c 0.34464,0 0.62179,0.27776 0.62179,0.62297 l 0,1.11994 -1.27415,0 0,-1.11994 c 0,-0.34521 0.27716,-0.62297 0.6218,-0.62297 z m 1.47115,-0.0752 0.0301,0 c 0.34463,0 0.62226,0.27776 0.62226,0.62297 l 0,1.11994 -1.27462,0 0,-1.11994 c 0,-0.34521 0.27763,-0.62297 0.62227,-0.62297 z m 1.47091,-0.0583 0.0303,0 c 0.34463,0 0.62226,0.27776 0.62226,0.62297 l 0,1.11993 -1.27462,0 0,-1.11993 c 0,-0.34521 0.27739,-0.62297 0.62203,-0.62297 z m 1.48635,-0.0304 0.0303,0 c 0.34464,0 0.62203,0.27776 0.62203,0.62297 l 0,1.11993 -1.27462,0 0,-1.11993 c 0,-0.34521 0.27763,-0.62297 0.62227,-0.62297 z m 1.47091,0 0.0303,0 c 0.34464,0 0.62202,0.27776 0.62203,0.62297 l 0,1.11993 -1.27439,0 0,-1.11993 c 0,-0.34521 0.2774,-0.62297 0.62203,-0.62297 z m 1.47092,0 0.0303,0 c 0.34464,0 0.62227,0.27776 0.62227,0.62297 l 0,1.11993 -1.27462,0 0,-1.11993 c 0,-0.34521 0.27739,-0.62297 0.62203,-0.62297 z m 1.45595,0.0304 0.0303,0 c 0.34464,0 0.62203,0.27776 0.62203,0.62297 l 0,1.11993 -1.27462,0 0,-1.11993 c 0,-0.34521 0.27763,-0.62297 0.62227,-0.62297 z m 1.47091,0.0583 0.0303,0 c 0.34463,0 0.62203,0.27776 0.62203,0.62297 l 0,1.11994 -1.27439,0 0,-1.11994 c 0,-0.34521 0.27739,-0.62297 0.62203,-0.62297 z m 1.47092,0.0752 0.0306,0 c 0.34463,0 0.62179,0.27776 0.62179,0.62297 l 0,1.11994 -1.27438,0 0,-1.11994 c 0,-0.34521 0.27739,-0.62297 0.62203,-0.62297 z m 1.47115,0.0645 0.0301,0 c 0.34463,0 0.62226,0.27776 0.62226,0.62297 l 0,1.11993 -1.27462,0 0,-1.11993 c 0,-0.34521 0.27763,-0.62297 0.62227,-0.62297 z m 1.47091,0.0752 0.0303,0 c 0.34463,0 0.62226,0.27776 0.62226,0.62297 l 0,1.11993 -1.27462,0 0,-1.11993 c 0,-0.34521 0.27739,-0.62297 0.62203,-0.62297 z m 1.47115,0 0.0303,0 c 0.34464,0 0.6218,0.27776 0.6218,0.62297 l 0,1.11993 -1.27439,0 0,-1.11993 c 0,-0.34521 0.27763,-0.62297 0.62227,-0.62297 z m 1.47068,0 0.0306,0 c 0.34464,0 0.62203,0.27776 0.62203,0.62297 l 0,1.11993 -1.27439,0 0,-1.11993 c 0,-0.34521 0.27716,-0.62297 0.6218,-0.62297 z m 1.47115,0 0.0303,0 c 0.34464,0 0.62203,0.27776 0.62203,0.62297 l 0,1.11993 -1.27462,0 0,-1.11993 c 0,-0.34521 0.27763,-0.62297 0.62227,-0.62297 z m 1.47115,0 0.0301,0 c 0.34463,0 0.62226,0.27776 0.62226,0.62297 l 0,1.11993 -1.27462,0 0,-1.11993 c 0,-0.34521 0.27763,-0.62297 0.62227,-0.62297 z" />

  <path id="pré-antique" name="19"
     d="m 69.699204,0.17991061 c -0.33722,0 -0.609376,0.27483334 -0.609375,0.61197924 0,0.33718365 0.272118,0.60937495 0.609375,0.60937495 l 0.111973,0 0.229167,1.2578125 0.190104,1.3515624 c -0.37894,0.1985666 -0.73756,0.4494085 -1.072916,0.7421875 l 1.476563,1.2838541 0.270833,0.1953126 -0.119787,0.25 -0.578125,1.3723958 1.914062,1.1614582 -3.562499,1.1328121 1.234374,1.640625 0.244792,2.320312 -1.510417,-2.645833 -1.359375,1.276041 c 0.416184,0.841356 1.032436,1.565298 1.796876,2.098959 0.806196,0.562631 1.255172,1.485367 1.236979,2.442708 l -0.309896,0 c -0.337184,0 -0.609375,0.274833 -0.609375,0.61198 0,0.337256 0.272191,0.609375 0.609375,0.609375 l 4.5,0 c 0.33722,0 0.609374,-0.272119 0.609374,-0.609375 0,-0.337147 -0.272154,-0.61198 -0.609374,-0.61198 l -0.309896,0 c -0.0182,-0.957377 0.430489,-1.87948 1.236978,-2.442708 0.35888,-0.25052 0.686594,-0.541036 0.976563,-0.867188 0.14498,-0.163073 -2.261383,-1.369183 -2.164061,-1.565104 l 1.125,-2.265625 0.08073,2.255209 1.48698,0.786459 c 0.41438,-0.776243 0.869791,-1.951063 0.869791,-2.89323 0,-0.6433835 -0.113814,-1.3141319 -0.315104,-1.9739578 l 0.92187,-1.8906251 C 78.806436,5.387204 78.64069,4.1542457 77.87889,3.2866814 77.11691,2.4190794 75.917844,2.097352 74.824204,2.4637648 l -0.58073,0.1953125 0.229167,-1.2578125 0.111973,0 c 0.337151,0 0.609376,-0.2721913 0.609375,-0.60937495 0,-0.3371459 -0.272195,-0.61197924 -0.609375,-0.61197924 l -4.885415,0 z m 5.989582,3.35677079 c 0.478032,-0.013352 0.94676,0.1849787 1.273438,0.5572916 0.4362,0.4970508 0.529113,1.2000992 0.239584,1.7942709 L 76.75389,6.8127231 C 76.105101,5.614835 75.157541,4.5869906 74.048162,4.0106397 l 1.164062,-0.3880208 c 0.156598,-0.052708 0.317218,-0.081487 0.476562,-0.085937 z m -11.408853,11.6640616 -2.809896,0.651042 2.354167,1.291667 0.427083,1.341145 2.130209,-0.385416 3.109375,-1.515625 -5.210938,-1.382813 z"/>

</svg>
