<?xml version="1.0" encoding="UTF-8" standalone="no"?>
  <svg  xmlns:svg="http://www.w3.org/2000/svg"
        xmlns="http://www.w3.org/2000/svg"
        version="1.1"
        viewBox="0 0 364.49 12.86"
        height="12.86"
        width="364.49"
        id="chronoFrise">

  <metadata>
    <rdf:RDF>
    <cc:Work rdf:about="">
    <dc:format>
      image/svg+xml
    </dc:format>
    <dc:type rdf:resource="http://purl.org/dc/dcmitype/StillImage"/>
    </cc:Work>
    </rdf:RDF>
  </metadata>
  <g
    transform="translate(227.30884,-227.29799)"
    id="layer1">
    <g id="matrix" transform="matrix(1,0,0,0.64285714,0,85.769689)">
      <a xlink:title="45000aJC <paléolithique> 10000aJC <mésolithique> 5000aJC" id="prehistoire" class="rose">
        <path id="path1_1" name="Préhistoire"
        style="opacity:1;fill-opacity:1;fill-rule:nonzero;stroke:none;stroke-width:30;stroke-linecap:round;stroke-miterlimit:4;stroke-dasharray:none;stroke-dashoffset:10;stroke-opacity:1"
        d="m -227.30884,220.15513 2.97078,0 10.88945,10 -10.88945,10 -2.97078,0 10.88945,-10 z" />
        <path id="path1_2" name="Préhistoire"
        style="opacity:1;fill-opacity:1;fill-rule:nonzero;stroke:none;stroke-width:30;stroke-linecap:round;stroke-miterlimit:4;stroke-dasharray:none;stroke-dashoffset:10;stroke-opacity:1"
        d="m -221.20352,220.15513 2.97078,0 10.88945,10 -10.88945,10 -2.97078,0 10.88945,-10 z" />
        <path id="1" name="Préhistoire"
        style="opacity:1;fill-opacity:1;fill-rule:nonzero;stroke:none;stroke-width:30;stroke-linecap:round;stroke-miterlimit:4;stroke-dasharray:none;stroke-dashoffset:10;stroke-opacity:1"
        d="m -215.09821,220.15513 76.26737,0 10.88945,10 -10.88945,10 -76.26737,0 10.88945,-10 z" />
      </a>

      <a xlink:title="5000 aJC <néolithique> 3300aJC <Chalcolithique> 1800aJC <âge du bronze> 850aJC <âge du fer> 55aJC" id="protohistoire" class="rouge">
        <path id="path2_1" name="Protohistoire"
        style="opacity:1;fill-opacity:1;fill-rule:nonzero;stroke:none;stroke-width:30;stroke-linecap:round;stroke-miterlimit:4;stroke-dasharray:none;stroke-dashoffset:10;stroke-opacity:1"
        d="m -129.59097,220.15513 2.97078,0 10.88945,10 -10.88945,10 -2.97078,0 10.88945,-10 z" />
        <path id="path2_2" name="Protohistoire"
        style="opacity:1;fill-opacity:1;fill-rule:nonzero;stroke:none;stroke-width:30;stroke-linecap:round;stroke-miterlimit:4;stroke-dasharray:none;stroke-dashoffset:10;stroke-opacity:1"
        d="m -135.69629,220.15513 2.97078,0 10.88945,10 -10.88945,10 -2.97078,0 10.88945,-10 z" />
        <path id="2" name="Protohistoire"
        style="opacity:1;fill-opacity:1;fill-rule:nonzero;stroke:none;stroke-width:30;stroke-linecap:round;stroke-miterlimit:4;stroke-dasharray:none;stroke-dashoffset:10;stroke-opacity:1"
        d="m -123.48565,220.15513 27.340707,0 10.889446,10 -10.889446,10 -27.340707,0 10.88945,-10 z" />
      </a>

      <a xlink:title="1e siècle aJC <gallo-romain> 4e siècle" id="romain">
        <path id="3" name="Antiquité" class="rose"
        style="opacity:1;fill-opacity:1;fill-rule:nonzero;stroke:none;stroke-width:30;stroke-linecap:round;stroke-miterlimit:4;stroke-dasharray:none;stroke-dashoffset:10;stroke-opacity:1"
        d="m -92.92112,220.15513 49.89046,0 10.889447,10 -10.889447,10 -49.979746,0 10.978732,-10 z" />
      </a>

      <a xlink:title="5e siècle <moyen-âge> 15e siècle" id="moyen">
        <path id="4" name="Moyen-Âge" class="rouge"
        style="opacity:1;fill-opacity:1;fill-rule:nonzero;stroke:none;stroke-width:30;stroke-linecap:round;stroke-miterlimit:4;stroke-dasharray:none;stroke-dashoffset:10;stroke-opacity:1"
        d="m -39.896125,220.15513 109.996215,0 10.889446,10 -10.889446,10 -109.996215,0 10.889447,-10 z" />
      </a>

      <a xlink:title="16e siècle <temps modernes> 18e siècle" id="moderne">
        <path id="5" name="Temps modernes" class="rose"
        style="opacity:1;fill-opacity:1;fill-rule:nonzero;stroke:none;stroke-width:30;stroke-linecap:round;stroke-miterlimit:4;stroke-dasharray:none;stroke-dashoffset:10;stroke-opacity:1"
        d="m 73.234627,220.15513 29.900293,0 10.88946,10 -10.88946,10 -29.900293,0 10.889443,-10 z" />
      </a>

      <a xlink:title="19e siècle <contemporain> à nos jours" id="contemporain">
        <path id="6" name="Contemporain" class="rouge"
        style="opacity:1;fill-opacity:1;fill-rule:nonzero;stroke:none;stroke-width:30;stroke-linecap:round;stroke-miterlimit:4;stroke-dasharray:none;stroke-dashoffset:10;stroke-opacity:1"
        d="m 106.26946,220.15513 20.02031,0 10.88945,10 -10.88945,10 -20.02031,0 10.88946,-10 z" />
      </a>

    </g>
  </g>
</svg>
