<?xml version="1.0" encoding="UTF-8" standalone="no"?>
<svg
   xmlns:dc="http://purl.org/dc/elements/1.1/"
   xmlns:cc="http://creativecommons.org/ns#"
   xmlns:rdf="http://www.w3.org/1999/02/22-rdf-syntax-ns#"
   xmlns:svg="http://www.w3.org/2000/svg"
   xmlns="http://www.w3.org/2000/svg"
   xmlns:xlink="http://www.w3.org/1999/xlink"
   xmlns:sodipodi="http://sodipodi.sourceforge.net/DTD/sodipodi-0.dtd"
   xmlns:inkscape="http://www.inkscape.org/namespaces/inkscape"
   width="364.48807"
   height="15"
   viewBox="0 0 480 20"
   id="friseCat"
   version="1.1"
   sodipodi:docname="friseCat.svg"
   inkscape:version="0.91 r13725">
  <metadata
     id="metadata4183">
    <rdf:RDF>
      <cc:Work
         rdf:about="">
        <dc:format>image/svg+xml</dc:format>
        <dc:type
           rdf:resource="http://purl.org/dc/dcmitype/StillImage" />
        <dc:title></dc:title>
      </cc:Work>
    </rdf:RDF>
  </metadata>
  <defs
     id="defs4181" />
  <sodipodi:namedview
     pagecolor="#ffffff"
     bordercolor="#666666"
     borderopacity="1"
     objecttolerance="10"
     gridtolerance="10"
     guidetolerance="10"
     inkscape:pageopacity="0"
     inkscape:pageshadow="2"
     inkscape:window-width="1855"
     inkscape:window-height="1056"
     id="namedview4179"
     showgrid="false"
     inkscape:zoom="9.3119991"
     inkscape:cx="51.015025"
     inkscape:cy="0.32316494"
     inkscape:window-x="65"
     inkscape:window-y="24"
     inkscape:window-maximized="1"
     inkscape:current-layer="friseCat" />
  <g
     id="categories"
     transform="translate(227.30884,-220.15513)">
    <path
       id="trait"
       style="stroke-width:1px;"
       d="m -220,239.66406 460,0.0893" />
    <g
       transform="matrix(0.04139335,0,0,0.04139335,-121.20219,207.76264)"
       id="greligieux">
      <path
         id="religieux"
         name="1"
         d="M 108.16942,628.32155 108.3624,526.2519 163.73613,404.82155 c 24.36544,-53.43155 47.97476,-95.50139 48.25244,-95.50139 0.27768,0 21.99097,42.975 48.25175,95.5 l 53.13938,118.14857 15.6275,-12.96449 196.13724,1.42857 34.61272,20.54248 c 6.53682,3.87957 3.07494,7.69887 4.23142,42.14196 l -10e-6,86.45859 0,95.74432 -224,0 -231.81915,0 z m 151.81325,73.74861 c -0.007,-48.17113 -1.18508,-57.31922 -9.49696,-73.77248 -4.18406,-8.28229 -17.01569,-20.50347 -28.74714,-27.37951 l -9.75,-5.71468 -9.75,5.71468 c -11.73145,6.87604 -24.56308,19.09722 -28.74714,27.37951 -8.31188,16.45326 -9.48954,25.60135 -9.49696,73.77248 l -0.006,30.39286 48,0 48,0 z m 143.801,-48.5 c -0.32549,-37.98549 -0.37867,-38.86837 -2.69541,-44.75 -3.1079,-7.89019 -9.73784,-17.79998 -16.03156,-23.96241 l -5.06813,-4.96241 -5.06813,4.96241 c -6.29372,6.16243 -12.92366,16.07222 -16.03156,23.96241 -2.31674,5.88163 -2.36992,6.76451 -2.69541,44.75 l -0.33203,38.75 24.12713,0 24.12713,0 z m 96,0 c -0.32549,-37.98549 -0.37867,-38.86837 -2.69541,-44.75 -3.1079,-7.89019 -9.73784,-17.79998 -16.03156,-23.96241 l -5.06813,-4.96241 -5.06813,4.96241 c -6.29372,6.16243 -12.92366,16.07222 -16.03156,23.96241 -2.31674,5.88163 -2.36992,6.76451 -2.69541,44.75 l -0.33203,38.75 24.12713,0 24.12713,0 z M 220.9175,522.21863 l 0,-32 16,0 16,0 0,-5.89847 0,-9.18147 -16,0 -16,0 0,-16 0,-16 -8.92893,0 -8.67639,0 0,16 0,16 -16,0 -16,0 0,9.18147 0,5.89847 16,0 16,0 0,32 0,22.71429 8.67639,0 8.92893,0 z" />
    </g>
    <path
       id="antique"
       name="2"
       d="M 29.707031 1.0136719 C 27.624362 1.998366 25.539884 2.9806936 23.457031 3.9648438 C 23.458081 4.1258351 23.453134 4.2864584 23.458984 4.4472656 C 27.623042 4.4459948 31.787114 4.4477637 35.951172 4.4492188 C 35.957772 4.2884115 35.953803 4.125651 35.955078 3.9648438 C 33.872225 2.9805095 31.789332 1.9987343 29.707031 1.0136719 z M 24.662109 4.6679688 C 24.665034 4.9305743 24.662487 5.1946014 24.662109 5.4570312 C 25.991006 5.4614037 27.321495 5.4577094 28.650391 5.4589844 C 30.683341 5.4577059 32.715098 5.4612162 34.748047 5.4570312 C 34.748047 5.1944257 34.746925 4.9305827 34.75 4.6679688 C 31.387434 4.6668738 28.024859 4.6668738 24.662109 4.6679688 z M 33.126953 5.6777344 C 33.076874 7.723245 33.023232 9.770704 32.974609 11.816406 C 33.464136 11.816038 33.953648 11.814997 34.443359 11.814453 C 34.383983 9.7693024 34.323663 7.7248387 34.267578 5.6796875 C 33.886964 5.6778575 33.507392 5.6786494 33.126953 5.6777344 z M 25.123047 5.6796875 C 25.072783 7.7250226 25.021377 9.7691265 24.96875 11.814453 C 25.458276 11.814637 25.947789 11.814093 26.4375 11.814453 C 26.381412 9.7691182 26.321954 7.7250226 26.263672 5.6796875 C 25.883233 5.6791435 25.503301 5.6791435 25.123047 5.6796875 z M 27.791016 5.6796875 L 27.636719 11.8125 L 29.107422 11.814453 L 28.933594 5.6796875 L 27.791016 5.6796875 z M 30.466797 5.6796875 L 30.314453 11.814453 L 31.783203 11.814453 L 31.607422 5.6796875 L 30.466797 5.6796875 z M 24.046875 12.035156 C 24.049275 12.297586 24.0481 12.561604 24.048828 12.824219 C 23.822828 12.824934 23.597103 12.825344 23.371094 12.824219 C 23.371822 13.087377 23.371638 13.349939 23.371094 13.613281 C 23.15183 13.612913 22.932154 13.612913 22.712891 13.613281 C 22.711807 13.876623 22.712346 14.139001 22.712891 14.402344 C 27.37522 14.402704 32.036898 14.403072 36.699219 14.402344 C 36.699763 14.139002 36.699763 13.876615 36.699219 13.613281 C 36.479956 13.612729 36.260279 13.613281 36.041016 13.613281 C 36.040116 13.350123 36.040116 13.087377 36.041016 12.824219 C 35.815015 12.825119 35.589282 12.825119 35.363281 12.824219 C 35.364038 12.561789 35.362834 12.297586 35.365234 12.035156 C 31.592721 12.034256 27.819389 12.034256 24.046875 12.035156 z "
       transform="matrix(0.01115845,0,0,0.01115845,-200.4454,221.09688)" />
    <g
       id="g4142"
       class="gallo"
       transform="matrix(0.01115845,0,0,0.01115845,-200.4454,221.09688)">
      <path
         class="gallo"
         name="2"
         d="M 127.3,389.426 C 376.182,271.829 625.15,154.341 874.01,36.679 c 248.816,117.706 497.763,235.15 746.645,352.769 -0.152,19.215 0.435,38.474 -0.348,57.689 -497.567,-0.174 -995.134,-0.174 -1492.701,-0.022 -0.697,-19.215 -0.175,-38.452 -0.306,-57.689 z"
         id="path4144" />
      <path
         class="gallo"
         name="2"
         d="m 271.293,473.446 c 401.818,-0.131 803.615,-0.131 1205.411,0 -0.37,31.38 -0.13,62.759 -0.13,94.138 -242.919,0.5 -485.86,0.065 -728.779,0.218 -158.791,-0.152 -317.603,0.283 -476.394,-0.239 0.045,-31.358 0.24,-62.738 -0.108,-94.117 z"
         id="path4146" />
      <path
         class="gallo"
         name="2"
         d="m 326.284,594.22 c 45.437,-0.065 90.874,-0.065 136.333,0 6.964,244.399 14.145,488.797 20.847,733.196 -58.516,-0.043 -117.031,0 -175.525,-0.022 6.289,-244.398 12.339,-488.775 18.345,-733.174 z"
         id="path4148" />
      <path
         class="gallo"
         name="2"
         d="m 1282.748,594.155 c 45.459,0.109 90.94,-0.109 136.42,0.109 6.702,244.377 13.796,488.754 20.891,733.131 -58.516,0.065 -117.009,0 -175.503,0.044 5.81,-244.443 12.208,-488.864 18.192,-733.284 z"
         id="path4150" />
      <path
         class="gallo"
         name="2"
         d="m 197.85,1353.769 c 450.781,-0.109 901.54,-0.109 1352.321,0 -0.283,31.358 -0.044,62.737 -0.13,94.095 27.005,0.109 54.011,0.109 81.016,0 -0.109,31.445 -0.109,62.911 0,94.356 26.2,0 52.401,-0.044 78.601,0.022 0.065,31.466 0.065,62.911 0,94.378 -557.105,0.087 -1114.189,0.065 -1671.295,0.022 -0.065,-31.467 -0.109,-62.933 0.022,-94.4 26.2,-0.044 52.401,-0.044 78.601,0 0.065,-31.467 0.065,-62.933 -0.022,-94.378 27.006,0.131 54.011,0.109 81.016,0.022 -0.087,-31.38 0.153,-62.759 -0.13,-94.117 z"
         id="path4152" />
      <polygon
         class="gallo"
         name="2"
         points="964.993,594.228 1101.261,594.185 1122.173,1327.403 946.605,1327.403 "
         id="polygon4154" />
      <polygon
         class="gallo"
         name="2"
         points="645.127,594.163 781.591,594.293 802.525,1327.424 626.739,1327.12 "
         id="polygon4156" />
    </g>
    <path
       id="pont"
       name="4"
       d="m -176.82361,226.6116 c -0.29389,0.41415 -0.51584,13.08284 -0.51584,13.08284 l 4.38035,0 0,-4.72846 c 0,-1.95279 1.54161,-3.52507 3.52483,-3.52507 1.98322,0 3.4832,1.99994 3.52926,3.52507 l 0,4.72846 2.21377,0 0,-5.6742 c 0,-1.95279 2.00201,-3.52507 3.9548,-3.52507 l 0.42997,0 c 1.9528,0 3.99759,1.57228 3.99759,3.52507 l 0,5.6742 2.17099,0 0,-4.72846 c 0,-1.95279 1.64568,-3.52507 3.52483,-3.52507 1.87916,0 3.4832,1.99994 3.52925,3.52507 l 0,4.72846 3.94874,0 c 0,0 0.40335,-12.37858 -0.42987,-13.08284 -0.83322,-0.70426 -33.88729,-0.52336 -34.25867,0 z m 1.63047,1.16061 0.0306,0 c 0.34464,0 0.62179,0.27776 0.62179,0.62297 l 0,1.11993 -1.27438,0 0,-1.11993 c 0,-0.34521 0.27739,-0.62297 0.62203,-0.62297 z m 1.47091,0 0.0303,0 c 0.34463,0 0.62226,0.27776 0.62226,0.62297 l 0,1.11993 -1.27462,0 0,-1.11993 c 0,-0.34521 0.2774,-0.62297 0.62203,-0.62297 z m 1.47115,0 0.0303,0 c 0.34463,0 0.62203,0.27776 0.62203,0.62297 l 0,1.11993 -1.27462,0 0,-1.11993 c 0,-0.34521 0.27762,-0.62297 0.62226,-0.62297 z m 1.47091,0 0.0303,0 c 0.34464,0 0.62203,0.27776 0.62203,0.62297 l 0,1.11993 -1.27438,0 0,-1.11993 c 0,-0.34521 0.27739,-0.62297 0.62202,-0.62297 z m 1.47092,0 0.0303,0 c 0.34463,0 0.62226,0.27776 0.62226,0.62297 l 0,1.11993 -1.27439,0 0,-1.11993 c 0,-0.34521 0.27716,-0.62297 0.6218,-0.62297 z m 1.47115,0 0.0303,0 c 0.34463,0 0.62202,0.27776 0.62202,0.62297 l 0,1.11993 -1.27462,0 0,-1.11993 c 0,-0.34521 0.27763,-0.62297 0.62227,-0.62297 z m 1.47091,-0.0752 0.0303,0 c 0.34464,0 0.62226,0.27776 0.62226,0.62297 l 0,1.11993 -1.27462,0 0,-1.11993 c 0,-0.34521 0.2774,-0.62297 0.62203,-0.62297 z m 1.47092,-0.0645 0.0306,0 c 0.34464,0 0.62179,0.27776 0.62179,0.62297 l 0,1.11994 -1.27415,0 0,-1.11994 c 0,-0.34521 0.27716,-0.62297 0.6218,-0.62297 z m 1.47115,-0.0752 0.0301,0 c 0.34463,0 0.62226,0.27776 0.62226,0.62297 l 0,1.11994 -1.27462,0 0,-1.11994 c 0,-0.34521 0.27763,-0.62297 0.62227,-0.62297 z m 1.47091,-0.0583 0.0303,0 c 0.34463,0 0.62226,0.27776 0.62226,0.62297 l 0,1.11993 -1.27462,0 0,-1.11993 c 0,-0.34521 0.27739,-0.62297 0.62203,-0.62297 z m 1.48635,-0.0304 0.0303,0 c 0.34464,0 0.62203,0.27776 0.62203,0.62297 l 0,1.11993 -1.27462,0 0,-1.11993 c 0,-0.34521 0.27763,-0.62297 0.62227,-0.62297 z m 1.47091,0 0.0303,0 c 0.34464,0 0.62202,0.27776 0.62203,0.62297 l 0,1.11993 -1.27439,0 0,-1.11993 c 0,-0.34521 0.2774,-0.62297 0.62203,-0.62297 z m 1.47092,0 0.0303,0 c 0.34464,0 0.62227,0.27776 0.62227,0.62297 l 0,1.11993 -1.27462,0 0,-1.11993 c 0,-0.34521 0.27739,-0.62297 0.62203,-0.62297 z m 1.45595,0.0304 0.0303,0 c 0.34464,0 0.62203,0.27776 0.62203,0.62297 l 0,1.11993 -1.27462,0 0,-1.11993 c 0,-0.34521 0.27763,-0.62297 0.62227,-0.62297 z m 1.47091,0.0583 0.0303,0 c 0.34463,0 0.62203,0.27776 0.62203,0.62297 l 0,1.11994 -1.27439,0 0,-1.11994 c 0,-0.34521 0.27739,-0.62297 0.62203,-0.62297 z m 1.47092,0.0752 0.0306,0 c 0.34463,0 0.62179,0.27776 0.62179,0.62297 l 0,1.11994 -1.27438,0 0,-1.11994 c 0,-0.34521 0.27739,-0.62297 0.62203,-0.62297 z m 1.47115,0.0645 0.0301,0 c 0.34463,0 0.62226,0.27776 0.62226,0.62297 l 0,1.11993 -1.27462,0 0,-1.11993 c 0,-0.34521 0.27763,-0.62297 0.62227,-0.62297 z m 1.47091,0.0752 0.0303,0 c 0.34463,0 0.62226,0.27776 0.62226,0.62297 l 0,1.11993 -1.27462,0 0,-1.11993 c 0,-0.34521 0.27739,-0.62297 0.62203,-0.62297 z m 1.47115,0 0.0303,0 c 0.34464,0 0.6218,0.27776 0.6218,0.62297 l 0,1.11993 -1.27439,0 0,-1.11993 c 0,-0.34521 0.27763,-0.62297 0.62227,-0.62297 z m 1.47068,0 0.0306,0 c 0.34464,0 0.62203,0.27776 0.62203,0.62297 l 0,1.11993 -1.27439,0 0,-1.11993 c 0,-0.34521 0.27716,-0.62297 0.6218,-0.62297 z m 1.47115,0 0.0303,0 c 0.34464,0 0.62203,0.27776 0.62203,0.62297 l 0,1.11993 -1.27462,0 0,-1.11993 c 0,-0.34521 0.27763,-0.62297 0.62227,-0.62297 z m 1.47115,0 0.0301,0 c 0.34463,0 0.62226,0.27776 0.62226,0.62297 l 0,1.11993 -1.27462,0 0,-1.11993 c 0,-0.34521 0.27763,-0.62297 0.62227,-0.62297 z" />
    <a
       xlink:title="preantique"
       id="a4159">
      <g
         id="gvase"
         transform="matrix(0.08584212,0,0,0.08584212,-141.34501,197.56956)">
        <path
           id="pré-antique"
           name="19"
           d="m 228.00956,314.20276 c -8.87653,-10.10695 -22.85279,-13.86812 -35.59299,-9.59967 l -6.76142,2.26756 2.67365,-14.63599 1.2999,0 c 3.92751,0 7.11278,-3.18526 7.11278,-7.11321 0,-3.92751 -3.18483,-7.11278 -7.11278,-7.11278 l -56.9044,0 c -3.92838,0 -7.11321,3.18527 -7.11321,7.11278 0,3.92795 3.1844,7.11321 7.11321,7.11321 l 1.29904,0 2.67364,14.63599 2.22239,15.75087 c -4.41438,2.31316 -8.60986,5.22655 -12.51652,8.63722 l 17.19444,14.95568 3.18483,2.29232 -1.39632,2.91338 -6.7463,15.97943 22.29436,13.53925 -41.50808,13.18604 c 0,0 0,0 14.37987,19.11787 l 2.85279,27.04331 -17.5932,-30.8374 -15.84222,14.86344 c 4.84825,9.80119 12.03791,18.2408 20.9431,24.45758 9.39163,6.55425 14.61862,17.30703 14.40667,28.45937 l -3.59135,0 c -3.92795,0 -7.11321,3.18527 -7.11321,7.11278 0,3.92881 3.18526,7.11321 7.11321,7.11321 l 52.39577,0 c 3.92838,0 7.11321,-3.1844 7.11321,-7.11321 0,-3.92751 -3.18483,-7.11278 -7.11321,-7.11278 l -3.59048,0 c -0.21195,-11.15278 5.00809,-21.90164 14.40319,-28.46284 4.18061,-2.91838 8.0003,-6.31706 11.37825,-10.11648 1.68897,-1.8997 -26.33678,-15.93463 -25.20307,-18.21697 l 13.10676,-26.38592 0.92275,26.27409 17.3432,9.16545 c 4.82725,-9.04267 10.12233,-22.72756 10.12233,-33.70314 0,-7.49497 -1.3403,-15.30917 -3.68517,-22.99568 l 10.74279,-22.04757 c 5.89061,-12.08612 3.96616,-26.43068 -4.9082,-36.53719 z m -44.6224,8.4357 13.5528,-4.54598 c 7.29693,-2.45605 15.3057,-0.28882 20.3798,5.49409 5.08149,5.79029 6.18291,14.00058 2.81002,20.92226 l -5.24088,10.75625 c -7.55795,-13.95455 -18.57826,-25.91254 -31.50174,-32.62662 z" />
      </g>
      <!-- écaille du vase -->
      <g
         id="g4" />
      <g
         id="g6" />
      <g
         id="g8" />
      <g
         id="g10" />
      <g
         id="g12" />
      <g
         id="g14" />
      <g
         id="g16" />
      <g
         id="g18" />
      <g
         id="g20" />
      <g
         id="g22" />
      <g
         id="g24" />
      <g
         id="g26" />
      <g
         id="g28" />
      <g
         id="g30" />
      <g
         id="g32" />
      <path
         id="préantique"
         style="opacity:1;fill-opacity:1;fill-rule:nonzero;stroke:none;stroke-width:30;stroke-linecap:round;stroke-miterlimit:4;stroke-dasharray:none;stroke-dashoffset:10;stroke-opacity:1"
         inkscape:transform-center-x="-1.1294299"
         inkscape:transform-center-y="0.098063112"
         d="m -130.15981,237.83661 -3.10971,1.5176 -2.13079,0.385 -0.42569,-1.34194 -2.35478,-1.29211 2.81072,-0.65136 z" />
    </a>
  </g>
</svg>
