<?xml version="1.0" encoding="UTF-8" standalone="no"?>
<!-- Created with Inkscape (http://www.inkscape.org/) -->

<svg
   xmlns:dc="http://purl.org/dc/elements/1.1/"
   xmlns:cc="http://creativecommons.org/ns#"
   xmlns:rdf="http://www.w3.org/1999/02/22-rdf-syntax-ns#"
   xmlns:svg="http://www.w3.org/2000/svg"
   xmlns="http://www.w3.org/2000/svg"
   xmlns:sodipodi="http://sodipodi.sourceforge.net/DTD/sodipodi-0.dtd"
   xmlns:inkscape="http://www.inkscape.org/namespaces/inkscape"
   version="1.0"
   width="557.97656"
   height="557.78125"
   id="svg2"
   xml:space="preserve"
   inkscape:version="0.91 r13725"
   sodipodi:docname="logoMH.svg"><metadata
     id="metadata5153"><rdf:RDF><cc:Work
         rdf:about=""><dc:format>image/svg+xml</dc:format><dc:type
           rdf:resource="http://purl.org/dc/dcmitype/StillImage" /><dc:title></dc:title></cc:Work></rdf:RDF></metadata><sodipodi:namedview
     pagecolor="#ffffff"
     bordercolor="#666666"
     borderopacity="1"
     objecttolerance="10"
     gridtolerance="10"
     guidetolerance="10"
     inkscape:pageopacity="0"
     inkscape:pageshadow="2"
     inkscape:window-width="1855"
     inkscape:window-height="1056"
     id="namedview5151"
     showgrid="false"
     inkscape:zoom="1.1967215"
     inkscape:cx="272.64437"
     inkscape:cy="270.6986"
     inkscape:window-x="65"
     inkscape:window-y="24"
     inkscape:window-maximized="1"
     inkscape:current-layer="svg2" /><defs
     id="defs5"><filter
       style="color-interpolation-filters:sRGB;"
       inkscape:label="Colorize"
       id="filter5695"><feComposite
         in2="SourceGraphic"
         operator="arithmetic"
         k1="0"
         k2="0.5"
         result="composite1"
         id="feComposite5697" /><feColorMatrix
         in="composite1"
         values="0"
         type="saturate"
         result="colormatrix1"
         id="feColorMatrix5699" /><feFlood
         flood-opacity="1"
         flood-color="rgb(144,24,38)"
         result="flood1"
         id="feFlood5701" /><feBlend
         in="flood1"
         in2="colormatrix1"
         mode="multiply"
         result="blend1"
         id="feBlend5703" /><feBlend
         in2="blend1"
         mode="screen"
         result="blend2"
         id="feBlend5705" /><feColorMatrix
         in="blend2"
         values="1"
         type="saturate"
         result="colormatrix2"
         id="feColorMatrix5707" /><feComposite
         in="colormatrix2"
         in2="SourceGraphic"
         operator="in"
         k2="1"
         result="composite2"
         id="feComposite5709" /></filter></defs><g
     transform="matrix(1.25,0,0,-1.25,-92.710937,805.41406)"
     id="g11"
     style="display:inline;filter:url(#filter5695)"><path
       d="m 276.57188,639.94375 -29.575,-29.45 0,-41.825 3.275,-3.275 -12.525,0 -84.5,-84.5 0,-12.65 -3.275,3.4 -41.825,0 -29.575001,-29.575 0,-41.7 29.575001,-29.575 41.825,0 3.275,3.4 0,-12.65 36.125,-36.125 16.375,16.35 -29.3,29.3 0,31.45 -27.6,0 -8.55,-8.55 -22.475,0 -16.075,15.95 0,22.6 16.075,15.95 22.475,0 8.55,-8.55 27.6,0 0,31.45 29.3,29.3 -2.15,2.125 -30.15,-30.15 0,-29.725 -23.325,0 -8.55,8.525 -25.025,0 -17.775001,-17.625 0,-25.2 17.775001,-17.625 25.025,0 8.55,8.525 23.325,0 0,-29.575 28.025,-28.175 -12.1,-12.1 -33.125,33.15 0,18.65 -7.55,-7.55 -39.275,0 -27.725001,27.75 0,39.1 27.725001,27.9 39.275,0 7.55,-7.7 0,18.65 82.65,82.65 18.775,0 -7.7,7.675 0,39.275 27.75,27.725 39.25,0 27.75,-27.725 0,-39.275 -7.55,-7.675 18.65,0 40.25,-40.275 -12.1,-12.075 -35.275,35.275 -29.575,0 0,23.325 8.525,8.55 0,25.025 -17.775,17.65 -25.05,0 -17.625,-17.65 0,-25.025 8.525,-8.55 0,-23.325 -29.725,0 -30.15,-30.3 2.125,-2.125 29.3,29.425 31.45,0 0,27.475 -8.55,8.675 0,22.475 15.95,15.925 22.6,0 15.95,-15.925 0,-22.475 -8.675,-8.675 0,-27.475 31.575,0 70.825,-70.825 0,-31.45 27.47503,0 8.67496,8.55 22.47504,0 15.92496,-15.95 0,-22.6 -15.92496,-15.95 -22.47504,0 -8.67496,8.55 -27.47503,0 0,-31.45 -29.425,-29.3 2.125,-2.125 30.3,30.3 0,29.575 23.17503,0 8.7,-8.525 25.02496,0 17.65,17.625 0,25.2 -17.65,17.625 -25.02496,0 -8.7,-8.525 -23.17503,0 0,29.725 -35.275,35.125 12.075,12.1 40.27503,-40.25 0,-18.65 7.67496,7.7 39.27504,0 27.72496,-27.9 0,-39.1 -27.72496,-27.75 -39.27504,0 -7.67496,7.55 0,-18.65 -82.65003,-82.65 -18.65,0 7.55,-7.675 0,-39.275 -27.75,-27.725 -39.25,0 -27.75,27.725 0,39.275 7.7,7.675 -18.775,0 -40.275,40.275 12.1,12.075 35.275,-35.275 29.725,0 0,-23.175 -8.525,-8.7 0,-25.025 17.625,-17.65 25.05,0 17.775,17.65 0,25.025 -8.525,8.7 0,23.175 29.575,0 30.3,30.3 -2.125,2.125 -29.3,-29.425 -31.575,0 0,-27.475 8.675,-8.525 0,-22.625 -15.95,-15.925 -22.6,0 -15.95,15.925 0,22.625 8.55,8.525 0,27.475 -31.45,0 -34.425,34.425 12.25,12.075 29.3,-29.3 41.525,0 0,-47.375 3,0 0,47.375 41.525,0 60.75,60.75 0,41.525 47.37503,0 0,3 -47.37503,0 0,41.525 -24.325,24.325 -2.125,-2.125 23.45,-23.475 0,-83.5 -59.025,-59.025 -83.5,0 -28.45,28.45 12.1,12.075 23.45,-23.475 69.3,0 18.475,18.5 -2.125,2.125 -17.65,-17.475 -66.85,0 -22.475,22.475 12.1,12.075 17.475,-17.5 52.65,0 37.275,37.275 0,52.5 -17.65,17.625 12.225,12.1 22.475,-22.625 0,-66.7 -17.475,-17.65 2.125,-2.125 18.35,18.475 0,69.3 -48.925,49.075 -69.3,0 -23.45,-23.475 -12.1,12.075 28.45,28.45 83.5,0 23.475,-23.45 2.125,2.125 -24.325,24.325 -41.525,0 0,47.375 -3,0 0,-47.375 -41.525,0 -60.9,-60.75 0,-34.425 3.15,0 0,33.15 28.45,28.45 12.075,-12.1 -23.475,-23.45 0,-69.3 18.5,-18.475 2.125,2.125 -17.625,17.65 0,66.7 47.225,47.225 66.85,0 22.625,-22.475 -12.225,-12.075 -17.5,17.5 -52.65,0 -37.125,-37.275 0,-52.5 12.525,-12.65 2.125,2.275 -11.65,11.525 0,50.2 16.65,16.65 12.075,-12.225 -11.525,-11.525 0,-36 6.55,-6.55 2.125,2.15 -5.675,5.675 0,33.45 23.6,23.6 33.45,0 5.675,-5.675 2.15,2.125 -6.55,6.55 -36,0 -11.65,-11.675 -12.1,12.225 16.65,16.65 50.075,0 35.4,-35.425 0,-50.2 -16.625,-16.65 -12.1,12.225 11.675,11.525 0,36 -6.7,6.55 -2.125,-2.15 5.825,-5.675 0,-33.45 -23.6,-23.6 -30.725,0 -3,-3 35,0 11.525,11.675 12.075,-12.225 -16.625,-16.65 -50.075,0 -16.65,16.65 21.325,21.475 -9.8,9.8 0,25.2 17.625,17.625 25.05,0 17.775,-17.625 0,-25.2 -17.775,-17.625 -25.05,0 -2.7,2.85 -16.5,-16.5 9.675,-9.55 44.25,0 9.525,9.55 -2.125,2.125 -8.675,-8.675 -41.7,0 -6.675,6.55 12.225,12.225 1.425,-1.575 27.6,0 19.5,19.5 0,27.45 -8.675,8.675 12.075,12.25 13.8,-13.8 0,-41.7 -8.825,-8.675 2.15,-2.125 9.675,9.525 0,44.25 -31.3,31.3 -44.25,0 -9.675,-9.55 2.15,-2.125 8.8,8.675 41.7,0 13.65,-13.65 -12.1,-12.225 -8.675,8.675 -27.6,0 -19.475,-19.5 0,-27.45 8.675,-8.675 -12.1,-12.1 -13.65,13.65 0,41.7 8.675,8.675 -2.125,2.125 -9.55,-9.525 0,-44.25 14.525,-14.5 -12.1,-12.25 -19.625,19.65 0,58.45 41.4,41.4 58.45,0 14.525,-14.65 2.125,2.125 -15.35,15.525 -61.05,0 -43.1,-43.1 0,-61.05 20.5,-20.475 -12.1,-12.1 -25.6,25.475 0,75.25 20.625,20.475 -2.125,2.15 -21.5,-21.475 0,-77.55 26.475,-26.45 -12.1,-12.1 -31.425,31.45 0,37.275 -41.825,0 -8.55,-8.55 -14.225,0 -10.1,10.1 0,14.1 10.1,10.1 14.225,0 8.55,-8.55 41.825,0 0,37.275 64.85,65 37.425,0 0,41.825 -8.55,8.55 0,14.225 9.975,9.95 14.225,0 10.1,-9.95 0,-14.225 -8.55,-8.55 0,-41.825 37.275,0 31.45,-31.425 -12.1,-12.1 -26.45,26.325 -77.675,0 -21.35,-21.35 2.15,-2.125 20.475,20.475 75.1,0 53.2,-53.05 0,-75.25 -25.45,-25.475 -12.1,12.1 20.5,20.475 0,61.05 -15.525,15.5 -2.125,-2.15 14.5,-14.65 0,-58.45 -41.25,-41.25 -58.45,0 -14.65,14.5 -2.15,-2.125 15.5,-15.525 61.05,0 20.475,20.5 12.1,-12.1 -25.625,-25.45 -75.1,0 -20.475,20.475 -2.15,-2.125 21.35,-21.35 77.675,0 54.9,54.9 0,77.55 -26.325,26.45 12.1,12.1 31.425,-31.45 0,-37.275 41.82503,0 8.55,8.55 14.22496,0 9.95,-10.1 0,-14.1 -9.95,-10.1 -14.22496,0 -8.55,8.55 -41.82503,0 0,-37.275 -65,-65 -37.275,0 0,-41.825 8.55,-8.55 0,-14.225 -10.1,-9.95 -14.225,0 -9.975,9.95 0,14.225 8.55,8.55 0,41.825 -37.425,0 -26.3,26.45 -2.15,-2.125 27.325,-27.325 35.55,0 0,-37.275 -8.525,-8.825 0,-16.625 11.8,-11.825 16.65,0 11.8,11.825 0,16.625 -8.525,8.825 0,37.275 35.55,0 32.3,32.3 12.1,-12.1 -37.275,-37.4 -25.6,0 0,-13.25 8.525,-8.525 0,-30.875 -21.775,-21.9 -30.85,0 -21.925,21.9 0,30.875 8.55,8.525 0,13.25 -25.475,0 -32.425,32.425 -2.15,-2.125 33.3,-33.3 23.75,0 0,-8.95 -8.525,-8.55 0,-33.425 23.6,-23.625 33.45,0 23.6,23.625 0,33.425 -8.525,8.55 0,8.95 23.75,0 78.52499,78.525 0,23.75 8.95,0 8.55,-8.525 33.42504,0 23.62496,23.6 0,33.45 -23.62496,23.6 -33.42504,0 -8.55,-8.525 -8.95,0 0,23.75 -33.29999,33.15 -2.125,-2.15 32.425,-32.275 0,-25.6 13.24999,0 8.52504,8.675 30.87496,0 21.9,-21.925 0,-30.85 -21.9,-21.925 -30.87496,0 -8.52504,8.675 -13.24999,0 0,-25.6 -37.4,-37.275 -12.1,12.1 32.3,32.3 0,35.55 37.54999,0 8.55,-8.525 16.62504,0 11.82496,11.8 0,16.65 -11.82496,11.8 -16.62504,0 -8.55,-8.525 -37.54999,0 0,35.55 -66.725,66.725 -35.55,0 0,37.55 8.525,8.55 0,16.625 -11.8,11.825 -16.65,0 -11.8,-11.825 0,-16.625 8.525,-8.55 0,-37.55 -35.55,0 -32.3,-32.3 -12.225,12.1 37.4,37.4 25.475,0 0,13.25 -8.55,8.525 0,30.875 21.925,21.9 30.85,0 21.775,-21.9 0,-30.875 -8.525,-8.525 0,-13.25 25.6,0 32.275,-32.425 2.15,2.125 -33.15,33.3 -23.75,0 0,8.95 8.525,8.55 0,33.425 -23.6,23.625 -33.45,0 -23.6,-23.625 0,-33.425 8.525,-8.55 0,-8.95 -23.75,0 -78.525,-78.525 0,-23.75 -9.1,0 -8.55,8.525 -33.425,0 -23.600001,-23.6 0,-33.45 23.600001,-23.6 33.425,0 8.55,8.525 9.1,0 0,-23.75 26.025,-26.025 2.15,2.125 -25.175,25.175 0,25.6 -13.25,0 -8.675,-8.675 -30.875,0 -21.750001,21.925 0,30.85 21.750001,21.925 30.875,0 8.675,-8.675 13.25,0 0,25.6 37.25,37.275 12.25,-12.1 -32.45,-32.3 0,-35.55 -37.4,0 -8.55,8.525 -16.775,0 -11.8,-11.8 0,-16.65 11.8,-11.8 16.775,0 8.55,8.525 37.4,0 0,-35.55 32.45,-32.3 -21.5,-21.325 43.4,-43.4 12.525,0 -3.275,-3.275 0,-41.675 29.575,-29.6 41.7,0 29.575,29.6 0,41.675 -3.4,3.275 12.65,0 84.49999,84.5 0,12.65 3.27504,-3.4 41.82496,0 29.45,29.575 0,41.7 -29.45,29.575 -41.82496,0 -3.27504,-3.4 0,12.65 -84.49999,84.5 -12.65,0 3.4,3.275 0,41.825 -29.575,29.45 z m -130.425,-217.225 0,-3 47.35,0 0,-41.525 24.475,-24.325 2.125,2.125 -23.45,23.475 0,43.25 z"
       id="path15"
       style="fill:#cc0000;fill-opacity:1;stroke:#cc0000;stroke-width:1.60000002;stroke-linecap:butt;stroke-linejoin:miter;stroke-miterlimit:10;stroke-dasharray:none;stroke-opacity:1"
       inkscape:connector-curvature="0"
       sodipodi:nodetypes="cccccccccccccccccccccccccccccccccccccccccccccccccccccccccccccccccccccccccccccccccccccccccccccccccccccccccccccccccccccccccccccccccccccccccccccccccccccccccccccccccccccccccccccccccccccccccccccccccccccccccccccccccccccccccccccccccccccccccccccccccccccccccccccccccccccccccccccccccccccccccccccccccccccccccccccccccccccccccccccccccccccccccccccccccccccccccccccccccccccccccccccccccccccccccccccccccccccccccccccccccccccccccccccccccccccccccccccccccccccccccccccccccccccccccccccccccccccccccccccccccccccccccccccccccccccccccccccccccccccccccccccccccccccccccccccccccccccccccccccccccccccccccccccccccccccccccccccccccccccccccccccccccccccccccccccccccccccccccccccccccc" /></g></svg>