<svg version="1.1" viewBox="-10 -10 580 580" id="france">
        <a title="Retour à la carte de le France" onclick="showMap('France')">
            <rect
              id="fond"
              width="580"
              height="580"
              x="-10"
              y="-10"
              style="fill:#fff;fill-opacity:1;" />
        </a>
        <a onclick="showMap('Bretagne')" title="Bretagne">
            <path d="m 140.3508,151.97568 c 1.38092,-7.93226 -3.72805,-16.1773 -10.996,-10.155 -6.99316,3.23473 -7.84354,-12.46237 -18.8508,-8.18097 1.54548,-8.36945 -7.57845,-2.11049 -12.022251,-0.0968 -4.355272,-0.0372 -6.435785,-8.29602 -13.001925,-1.18919 -8.660448,7.74647 -9.166215,4.00857 -13.168771,-3.9352 -5.027059,-3.98857 -4.800285,-14.30091 -11.834193,-9.9998 -2.106415,-0.60343 -17.260766,-2.183 -14.386,3.999 -6.114992,1.49854 -12.65097,6.21896 -15.310529,2.6483 0.163555,-6.49519 -11.990043,3.55204 -14.28914,-0.63278 -6.8253946,1.98949 -11.9647532,1.91886 -17.9699615,7.82137 1.23542429,3.47022 -3.6173091,14.99327 7.4499521,10.40355 8.8570104,-2.52946 4.6931224,2.57171 12.5156784,3.66956 -8.195059,-1.32214 -19.7020686,-5.07862 -12.2845611,4.53669 -1.7260994,-1.15644 18.0318161,1.871 4.9727601,5.44346 -9.8555594,-1.174 -17.5146959,4.81009 -4.4941998,5.69885 7.7843458,5.41934 -0.06244,16.73767 12.6230008,13.045 0.154544,-7.0414 9.660077,-1.46189 12.269325,2.07333 6.580977,-1.00552 11.932547,3.64724 17.441675,5.79867 8.38706,0.24307 4.659804,16.66933 10.738,12.757 -5.43224,-7.74525 8.818799,-4.55144 5.907063,-3.59491 -1.69054,8.77105 17.157642,0.0949 15.422873,6.70441 3.393969,1.06638 14.145409,-0.0392 17.121538,-5.26042 -0.964919,-11.73498 16.484516,-2.31149 19.153056,-10.54034 5.73319,-7.95506 14.65235,6.45698 16.3212,-6.45228 6.0529,-6.44995 7.87089,-8.59471 4.86603,-19.09466 -0.59395,-2.35729 -0.31028,-4.06368 1.80618,-5.4668 z"
                id="Bretagne" />
        </a>
        <a onclick="showMap('Pays-de-la-Loire')" title="Pays de la Loire">
            <path d="m 138.37686,164.66468 c 5.32769,7.25588 -8.29151,6.6306 -6.817,16.566 -5.56751,0.78701 -11.64424,-4.98802 -16.28204,3.85275 -7.19593,1.04943 -19.170142,0.64146 -19.109582,10.08735 -8.60393,5.01018 -13.60666,0.35287 -17.52238,8.2979 -0.63351,7.11176 6.63171,9.26433 13.12119,7.4211 9.059992,-5.4286 -8.53258,10.76624 0.77739,8.43152 13.094702,2.24129 -1.50219,9.31984 0.12445,16.31717 6.00013,6.14258 9.200732,10.2438 11.355972,19.24121 7.71689,5.55656 14.21186,7.42359 20.351,12.706 6.05285,4.2659 11.95415,-6.14073 18.28038,-1.24722 4.61883,4.97855 17.62363,-4.60945 9.23562,-5.42278 1.77895,-6.37937 0.92397,-15.13388 -3.079,-20.239 1.44788,-3.81064 -11.82422,-14.82292 1.23883,-12.25083 7.00338,-0.20529 10.8313,-7.16105 20.49877,-5.34051 5.12406,4.96771 11.04514,-7.40349 12.74349,-13.05549 5.3837,-4.87373 0.15016,-19.16961 9.91971,-12.75117 0.14426,-4.09854 9.32748,-5.34292 12.32632,-11.12043 4.00783,-5.7594 7.20005,-10.99578 4.79557,-17.51164 6.74501,-6.65632 -6.89722,-10.76081 -11.18261,-11.6866 -5.99046,-3.34932 -6.11096,-19.17206 -15.85857,-8.77309 -7.48587,8.06527 -8.07414,-14.57826 -14.18851,-6.53224 -7.74427,-1.07566 -15.47412,6.75035 -20.80726,1.28622 -10.12893,-6.88488 -8.37508,4.78853 -10.51474,10.75778 -0.17858,3.72042 1.10525,7.1855 0.593,10.966 z"
                id="Pays-de-la-Loire"  />
        </a>
        <a onclick="showMap('Ile-de-France')" title="Île-de-France">
            <path d="m 243.34886,104.79168 c 1.99321,8.72394 -11.69635,5.62562 -7.88,12.743 1.92466,2.76456 6.92053,10.36559 4.248,15.734 5.16273,5.67075 5.71512,13.13401 13.348,15.339 -1.27663,13.22459 8.54917,4.68759 15.28296,7.47255 10.85464,1.1042 -0.68371,14.05491 9.22897,10.00273 7.80296,-1.34077 11.83682,0.86134 17.68473,-7.43213 -4.94213,-10.47617 14.19583,-2.39871 13.53172,-10.14444 2.41981,-9.506 5.56629,-9.6369 2.28726,-16.03887 -1.54082,-7.05497 0.36878,-9.06506 -8.00395,-14.03072 -3.38104,-10.75421 -8.82821,-6.2499 -16.98841,-7.48097 -5.53276,3.17806 -11.64644,-1.16527 -18.06107,-4.80294 -7.1306,0.71305 -12.03047,-0.72148 -20.14834,0.33856 -2.29448,-0.74719 -2.27019,-6.688253 -4.52987,-1.69977 z"
                id="Ile-de-France"  />
        </a>
        <a onclick="showMap('Provence-Alpes-Cote-dAzur')" title="Provence-Alpes-Côte d'Azur">
            <path d="m 434.50586,335.95968 c -3.72279,-6.45183 -17.67216,0.46234 -6.213,4.08 7.41806,8.44904 -5.93712,8.13623 -11.14172,9.29633 -4.78131,4.98006 -7.38956,5.91891 -10.39827,10.85597 -10.23244,1.74808 -1.07348,13.08569 -12.18266,10.78226 -4.04789,7.46518 9.72686,7.30919 9.67255,14.77279 -0.89107,1.50036 -4.80565,7.74861 -10.44859,3.49783 -5.77325,-2.15553 -11.15159,-8.08765 -12.62131,-6.83018 -2.56672,-1.02151 -6.82241,-15.5654 -9.30194,-1.27839 5.09691,5.5108 -3.58008,3.02775 -6.5543,-0.44513 -6.74226,2.25385 1.67788,14.78371 5.93424,18.90952 -5.73052,3.75722 -8.03083,14.09042 -12.06623,16.52524 -1.82111,1.85989 -13.66089,13.00717 -8.35324,14.64382 16.16565,-1.67472 5.22077,4.05137 13.96193,6.77431 13.33242,5.2518 4.44601,-12.83993 13.68754,-0.54937 13.36722,-1.50192 10.88226,1.48173 15.603,3.67 -4.84309,7.07834 12.71776,0.49284 16.27465,7.43969 -0.51335,10.8963 17.76422,-4.95685 13.42635,4.29831 6.80883,0.85163 3.14542,-7.19271 12.418,-3.816 0.54686,-7.323 19.10046,-2.91202 11.58175,-11.75764 -2.43859,-2.95101 7.2836,-7.6367 11.21425,-10.86936 0.80855,-6.33247 9.33173,-3.9993 9.37666,-11.39039 7.61493,-2.54103 15.11165,-6.00706 13.36733,-13.73978 3.26355,-3.99186 10.71166,-12.82278 2.6785,-17.68016 -8.60561,4.49661 -15.27207,2.86726 -22.9779,-1.79099 -8.9057,-1.46668 -4.4726,-10.81212 -8.00594,-12.34086 -1.2676,-3.738 1.71855,-11.48298 5.98411,-12.74904 1.10538,-6.50247 -7.07766,-10.16524 -12.69945,-13.66929 -0.0138,-3.67476 -10.29716,-17.48755 -12.21631,-6.63949 z"
                id="Provence-Alpes-Cote-dAzur" />
        </a>
        <a onclick="showMap('Corse')" title="Corse">
            <path d="m 489.67698,510.03808 c -4.85832,-5.72031 1.15487,-15.7685 -6.441,-19.692 -0.71058,-7.32924 2.30355,-16.52005 -3.91795,-22.07364 -4.68677,1.44981 -4.83811,9.57751 -2.15005,13.77864 1.73513,10.40985 -12.41674,-3.27269 -12.664,8.39 -7.7248,2.6191 -11.75482,4.97215 -14.658,9.011 -3.5183,7.42892 -3.32323,10.67209 -0.12013,15.09301 -9.98915,2.46154 4.27791,9.29189 4.11513,12.43899 -11.31203,7.56854 5.23785,6.67088 2.46759,10.45448 -6.91829,7.82319 6.92322,7.03797 5.44541,10.91952 -6.5127,-0.58461 -1.59624,9.62224 3.54133,8.79674 8.82095,-0.49415 10.20935,11.31245 15.56402,3.35819 -3.80201,-3.50518 8.57818,-12.33549 0.0317,-11.72193 8.33011,-1.04809 3.16555,-13.76488 4.12395,-19.77735 3.63749,-5.63295 5.97441,-11.80053 4.66205,-18.97565 l 0,0 z"
                id="Corse" />
        </a>
        <a onclick="showMap('Normandie')" title="Normandie">
            <path d="m 132.92686,82.738677 c 9.0548,-6.279037 -3.56785,-14.469146 -10.76886,-7.264916 -7.88635,-4.184721 -18.14302,-7.40889 -9.97014,3.819524 -3.47025,6.308082 3.37049,13.060322 6.12512,19.461532 0.48196,7.437093 5.67226,15.247813 2.27636,22.599423 -4.13809,9.19488 12.19645,12.26879 0.68064,14.54328 0.77633,12.16876 9.5981,5.63329 13.98888,5.32416 6.63167,1.03972 12.20205,0.6909 16.97264,4.32003 5.43793,-2.32707 14.54501,-1.23799 19.61903,-5.4565 3.11094,6.13571 8.24701,15.89892 15.00733,5.62947 10.1318,-2.49289 5.30352,14.3999 15.82861,13.1 2.23332,0.39265 11.4354,7.20925 5.86939,-4.284 10.08488,-1.18457 9.04252,-12.17734 3.17285,-17.20045 0.18901,-6.5049 12.09112,-8.2878 18.25952,-7.24016 2.89079,-4.91725 10.6506,-10.82238 5.26574,-15.7154 8.64943,0.29584 6.76482,-13.54994 13.67689,-12.71299 -4.93199,-6.903653 -0.0751,-12.207327 -2.731,-16.896003 -2.83371,-7.806751 3.31007,-10.375559 -0.89521,-18.614958 -4.80897,-3.783131 -10.35828,-16.059935 -16.44263,-9.060993 -11.79035,11.662508 -34.06181,6.64668 -43.13051,22.026473 -9.49279,10.847495 14.1619,11.301109 -2.02217,14.801148 -8.51001,7.982623 -16.42125,2.1549 -25.80964,0.58051 -6.40837,-4.348392 -20.23868,1.94023 -19.92984,-5.78718 z"
                id="Normandie" />
        </a>
        <a onclick="showMap('Hauts-de-France')" title="Hauts-de-France">
            <path d="m 278.66586,12.742677 c -0.80234,-5.9457038 0.74754,-20.5639034 -9.645,-12.6769998 -10.3984,2.222615 -24.68244,1.4282057 -29.89594,11.9928038 -0.22137,10.784282 0.54918,21.609972 -0.60306,32.354196 12.77548,6.224069 -11.70898,2.098933 -5.36,11.464 5.86074,2.445418 13.01395,10.703222 13.407,17.505 -3.23306,3.711987 -1.07015,12.903164 0.0502,16.436644 -0.82658,7.830036 0.36008,11.731909 -0.97915,15.130359 5.7459,5.57018 13.96741,-1.20726 20.131,2.649 7.26092,-0.22998 12.20054,6.47585 19.162,5.474 3.63342,0.73017 9.9618,-3.68449 13.96929,-1.52822 0.20034,5.373 10.28588,16.94547 13.84171,10.47922 8.39826,-4.88191 3.69421,-9.067 3.253,-12.853 10.82559,0.20115 -6.5817,-13.369283 8.01161,-13.264003 5.54672,-1.86363 9.17845,-1.9764 9.16334,-13.271208 -3.54873,-3.063287 7.81192,-8.044947 5.76388,-15.413518 -0.22166,-9.103745 -6.52139,-6.531907 -1.59607,-14.596492 -6.65799,-2.885096 4.69429,-12.847459 -8.69836,-14.400304 -12.39117,2.443278 -10.16709,1.86594 -14.8784,-8.099478 -7.08806,0.686119 -15.20966,-0.508706 -12.513,-11.406 -3.71621,-9.5571528 -12.17056,1.958774 -17.209,-1.504 -0.41733,-2.617109 -2.34431,-5.477666 -5.375,-4.472 z"
                id="Hauts-de-France"/>
        </a>
        <a onclick="showMap('Grand-Est')" title="Grand Est">
            <path d="m 489.5138,110.67068 c -6.67273,-4.79559 -13.97555,-4.71203 -20.66007,-4.93418 -5.5998,2.55904 -7.77591,-8.815103 -14.11193,-5.26282 -6.3197,8.28238 -12.01877,-3.016245 -17.82921,-1.807433 -5.42047,8.056123 -9.56164,-5.353135 -11.73263,-10.244595 -5.64238,-2.342483 -12.69392,-6.810131 -17.98316,-2.729976 -6.02008,3.828709 -10.94775,-7.782887 -17.25588,-3.179788 -6.88499,6.197204 -5.78164,-1.772635 -11.38912,-3.110212 -1.44504,-7.933737 -12.75565,-7.17501 -16.91604,-11.662607 0.0884,-7.296518 -3.81483,-10.694582 -0.41696,-18.133393 -9.55368,-3.116144 -5.89605,13.316286 -16.658,11.933 -8.86033,-7.299394 -7.11606,6.258665 -6.589,11.068 -5.85991,6.932519 -7.92636,7.301772 -6.77761,16.654289 0.86247,8.798 -8.74509,1.505274 -14.02265,8.75401 1.89295,9.053675 1.41434,8.833505 -2.66374,14.237705 7.76531,3.25557 -3.34804,9.31673 -5.34332,14.67896 -2.96113,5.99542 7.088,10.78121 1.50432,12.40304 -4.62758,8.70996 -1.99138,13.28984 5.819,17.907 -2.04917,10.03106 9.74545,6.43462 10.605,16.798 5.87364,4.8682 14.30893,2.04517 19.69935,0.8668 6.33182,-0.6448 11.09708,-8.23685 16.83276,-0.12094 8.41151,5.59437 0.39965,13.68946 9.14451,16.04099 4.95468,-1.49702 12.29203,9.51959 13.49838,-0.68285 6.56333,1.39244 15.34258,-3.34152 10.172,-8.741 6.40512,-0.0322 7.08028,-10.40785 10.343,-8.243 6.0733,-9.68451 7.79852,4.89178 16.07161,-0.694 6.05328,4.67757 10.52727,-0.79397 17.70939,6.731 9.11493,1.34851 5.57907,11.50812 10.535,13.946 0.18918,7.29526 9.6187,10.18841 15.78,4.047 3.73863,-8.08358 -3.8444,-12.76382 0.39396,-21.42021 2.45747,-6.19233 0.34982,-9.87279 -0.018,-16.34679 6.19481,-6.97762 3.72838,-15.34707 6.839,-23.289 -0.82497,-8.88001 8.54384,-11.99957 10.77759,-18.41525 -0.39802,-3.02497 0.66275,-7.59318 4.64241,-7.04775 z"
                id="Grand-Est" />
        </a>
        <a onclick="showMap('Occitanie')" title="Occitanie">
            <path d="m 277.09186,355.84068 c 1.34365,11.41757 -10.95219,3.66451 -14.286,9.322 -1.78282,-5.3566 -1.44762,-11.6804 -4.804,-20.047 -7.25585,-2.5181 -11.28094,7.38486 -17.16668,-3.08378 -10.49518,-5.03464 -8.62429,5.32092 -11.2551,9.82503 -3.62512,4.90474 -5.88251,8.12051 -10.80513,13.41669 -11.09434,1.15183 3.0486,15.76918 -7.30775,13.42715 -6.78156,-1.056 2.6234,14.05978 -6.05534,14.08091 -3.94693,6.1063 -5.68389,2.36844 -13.99,2.715 -4.7621,7.49081 -13.65345,-0.82255 -16.41287,5.46926 -0.79178,6.50871 -7.6392,-5.10787 -13.04813,3.78874 6.74442,5.30608 -6.68972,14.46219 1.28517,18.20755 8.0402,0.79214 7.85958,11.5204 6.19782,17.05637 -3.68585,8.1827 -8.03455,11.7013 -10.8735,15.84282 -5.98657,8.96248 1.81057,9.48806 5.76551,16.15326 7.31713,2.98212 15.76466,1.99845 21.72088,2.40135 10.11437,3.41108 13.16357,-1.78486 14.15851,-8.46858 6.20872,4.23215 14.73749,3.25363 19.28967,8.48275 9.18234,-0.73392 11.16532,6.92118 21.63094,4.91048 0.0324,9.50532 10.39663,8.82888 13.228,16.271 6.02765,-6.51528 15.88963,-6.18729 21.823,1.672 5.98948,-1.72277 9.80081,-7.52726 17.9128,-9.31 12.79051,6.67654 5.58207,-2.26693 4.0578,-10.05724 -1.22892,-7.10692 1.38865,-18.62918 -1.70558,-23.07624 -7.14954,-5.58802 8.01122,-0.69724 8.75955,-9.57236 8.24485,-2.7879 14.9514,-5.52909 21.75619,-12.37334 6.09048,-7.36277 13.78116,-7.40972 17.13623,-2.28137 6.29701,-1.34969 13.11823,-7.39752 12.73401,-14.21045 9.82547,3.11094 5.1155,-14.13104 15.009,-15.7548 -6.86629,-5.35599 -4.66708,-16.96714 -14.46557,-20.05706 -4.45695,1.2807 -7.57311,0.32974 -12.62242,2.09655 -8.10038,-1.86524 -6.78929,-10.06743 -12.14349,-16.43872 -0.26022,-9.29834 -7.55254,-14.66003 -13.53952,-15.84597 -5.71388,12.56013 -7.38945,-13.87059 -15.01818,-1.69005 -6.54805,-3.98812 -6.18913,14.30859 -11.22282,12.84105 -0.78755,-7.24529 -5.83871,-14.70616 -10.80006,-13.30857 -5.45513,0.64628 -1.7021,7.54225 -4.94294,7.59557 z"
                id="Occitanie" />
        </a>
        <a onclick="showMap('Auvergne-Rhone-Alpes')" title="Auvergne-Rhône-Alpes">
            <path d="m 462.3298,315.04368 c -8.7808,-6.32658 -10.15736,-13.39377 -15.67586,-19.97626 2.67141,-5.10429 13.49307,-10.49938 2.59686,-17.34874 -5.18162,-3.71593 -1.98959,-11.16347 -6.612,-18.486 -8.42086,-0.35161 -16.3257,1.84602 -20.47224,5.47857 1.41394,6.14408 -2.68878,11.06848 -10.75776,9.96643 0.48032,-5.45641 12.8511,-8.74329 4.7035,-14.42748 -5.44072,3.65359 -12.19202,13.92061 -17.9005,4.50948 -6.39881,10.90306 -10.04892,-4.85152 -16.95849,-7.48584 -6.75962,-3.59775 -14.80978,-0.49433 -14.43459,10.10028 -2.52863,15.94314 -2.81663,-2.09547 -9.35392,2.77056 -6.62787,-5.03775 -8.26985,3.4276 -12.901,6.872 -5.03726,-2.93353 -19.48485,0.35343 -12.70251,-7.67651 5.94325,-7.51559 -1.94662,-12.79199 -8.29049,-13.68349 -0.29943,-15.05019 -8.98229,-6.53119 -13.17058,-9.501 -3.65966,0.89623 -12.33713,2.95465 -14.40242,-4.736 -8.24065,1.55001 -12.18724,3.34264 -18.336,8.376 4.9421,11.30516 -11.16415,3.05666 -12.695,13.25 2.8176,7.94823 9.53307,5.51786 11.4299,15.38481 1.86602,7.03356 3.78103,13.86509 -4.89512,17.05201 2.09671,5.33547 3.24606,12.46462 3.97371,20.03537 1.77975,12.47501 -8.4717,-0.67714 -6.98449,9.60581 -7.69677,3.0356 -5.74354,13.9226 -9.41213,17.07707 -4.37999,5.83598 4.88932,12.36921 0.22813,18.78193 1.38787,7.06022 9.038,1.88464 15.8469,1.51715 3.16457,-2.58585 5.59725,-20.11883 9.85029,-11.82757 6.89637,-1.69649 5.25403,13.10139 9.96842,12.32049 3.37845,-10.74547 5.27472,-12.72737 13.00171,-16.20377 4.33103,3.62501 8.47183,10.10484 13.53828,5.66248 5.02568,-0.23129 10.71728,6.88709 10.2684,13.68622 5.48288,5.13969 4.50659,15.56395 10.67169,15.74423 7.30947,2.88263 9.04352,0.2912 14.63945,-0.77122 6.68785,2.11009 11.93924,-0.83144 13.52709,5.10431 10.2877,-0.50978 -4.94433,-14.05012 8.07931,-9.12893 -3.38413,7.42547 4.39926,6.06238 9.73505,9.56925 6.04305,5.70678 13.44199,3.27579 16.09125,2.36027 7.04156,-10.21159 -15.20279,-9.25446 -7.31315,-16.01313 -1.40501,-3.47066 8.69293,-0.9321 5.40231,-11.66678 11.38697,1.91447 3.65272,-7.77661 11.02041,-6.227 1.14697,-6.87961 9.40588,-5.17959 15.15247,-7.55387 9.86295,-4.525 -10.11831,-8.16597 -2.67688,-14.14813 7.3979,4.51064 8.07244,0.49781 16.32953,-1.22886 7.52175,-0.0384 13.38653,-3.83098 17.9296,-10.15921 -1.97409,-2.73864 0.84749,-4.25895 1.96087,-6.97493 z"
                id="Auvergne-Rhone-Alpes" />
        </a>
        <a onclick="showMap('Centre-Val-de-Loire')" title="Centre-Val de Loire">
            <path d="m 239.54386,123.56968 c -3.75127,-10.6519 -5.9347,5.41163 -10.6988,5.919 -6.37631,-0.86223 -19.83369,1.62178 -17.63378,9.3189 9.99252,5.88002 0.96391,13.76646 -2.88442,17.2151 0.76227,6.3513 6.49927,8.40273 0.501,14.045 4.42482,6.49907 -1.64943,13.46905 -7.39484,17.87669 2.04597,7.54232 -13.38864,1.80142 -7.87816,8.74031 -8.37301,-6.2233 -7.87655,4.24937 -8.682,10.539 -6.39061,5.76187 -6.10139,15.02805 -0.59,18.296 5.28857,3.06866 8.50194,12.87347 15.80552,4.77153 4.59071,-1.50908 6.81805,11.93662 12.13048,15.43647 -3.31787,9.44658 8.61466,10.04442 11.288,16.634 -3.42421,6.54594 11.41161,3.6826 13.92742,1.67722 7.78236,1.34918 11.79971,-4.94194 20.88284,-0.57043 7.352,2.30812 8.81701,-6.3361 15.50174,-6.43579 8.43194,1.35139 3.433,-14.79368 13.248,-11.745 6.99653,-3.72616 12.04194,-2.53808 9.89839,-13.05679 -1.44239,-6.3877 -0.83644,-15.52771 -7.04939,-20.20921 4.32706,-4.66749 -4.65661,-12.17957 1.60846,-13.74808 -1.20912,-8.50925 -3.30247,-10.22842 3.70088,-16.24592 1.40211,-4.52883 5.75548,-12.27978 -2.40557,-17.94807 -6.24285,-0.8022 -10.93226,1.07418 -18.95377,2.64207 4.24158,-5.58738 -2.92529,-11.85211 -10.574,-13.302 -6.02748,6.64336 -10.76887,1.97011 -9.691,-5.326 -6.72401,-2.29451 -10.7601,-9.91672 -12.44924,-16.08407 -1.31117,-2.31464 0.77562,-6.45472 -1.60776,-8.43993 z"
                id="Centre-Val-de-Loire"/>
        </a>
        <a onclick="showMap('Nouvelle-Aquitaine')" title="Nouvelle-Aquitaine">
            <path d="m 278.8148,284.78368 c -1.83424,-6.55664 -4.63535,-17.55846 -10.523,-16.629 -0.80157,-9.8807 -14.69405,-3.59954 -21.74206,-7.12951 -2.43229,6.72299 -11.38114,-2.04351 -14.08394,5.52851 -7.04545,-1.06197 -8.96328,-3.0117 -13.20526,-10.07004 -9.15671,-2.12789 -5.53753,-11.46666 -10.36574,-17.26896 -5.39058,-7.15697 -6.32052,-13.7893 -13.6278,-6.86703 -8.64751,1.7899 -5.43143,-10.20161 -14.1642,-10.43597 -3.62286,-7.26105 -7.97691,6.66892 -15.145,0.739 -10.12581,0.42736 -11.77159,6.43411 -21.68058,5.66764 -3.34894,5.102 8.78725,11.83605 5.55458,17.68336 6.24986,5.80452 -2.61556,16.8632 4.962,17.146 -4.70236,5.25133 -13.18579,4.51024 -15.696,0.522 -10.54862,-1.42641 -7.5199,13.75646 -16.83295,8.13243 -7.98223,-7.10688 -10.93996,0.68464 -0.009,3.76979 7.07055,0.5528 13.40077,6.81782 8.69766,10.40121 0.41882,12.00579 -5.33809,-3.89611 -10.64637,-5.79395 -3.66709,7.7247 7.25801,12.26641 5.22489,21.64777 5.1228,3.62819 11.7249,8.21841 17.13338,13.92067 2.32021,3.85451 5.71016,23.12709 3.13517,17.76907 0.44076,-10.16959 -8.1902,-15.54838 -12.83097,-22.29462 -5.08174,-8.2563 -7.08627,12.76054 -6.52799,18.40063 2.62158,32.7984 -1.76286,41.31032 -11.64112,71.57338 -2.76636,11.18482 -4.50435,27.94904 -18.237874,30.34162 2.589224,8.15356 8.519904,6.29577 14.971694,7.94989 2.08841,3.82914 -7.40799,15.24323 2.63857,12.12412 0.77933,-4.63195 8.98744,5.20014 15.21754,5.48349 9.62849,-1.41759 10.50306,9.1614 18.13437,10.90088 8.22313,0.85061 11.65476,-6.57425 11.93882,-14.40138 5.00975,-0.0249 7.60377,-9.79211 12.02201,-15.8384 -1.90552,-5.18615 0.75585,-16.1521 -9.41701,-15.5376 -3.23575,-5.9451 6.23543,-11.92962 0.628,-17.389 5.82453,-8.54542 12.01654,5.52347 13.273,-4.522 4.43824,-0.97037 12.44893,-0.34934 18.8268,-4.51719 7.34677,4.29218 11.87116,-1.80878 14.92179,-6.91357 -4.10268,-11.10651 5.79257,-6.81379 6.47886,-12.3743 -5.14474,-7.32823 3.89091,-10.78042 7.41165,-15.07009 3.11482,-5.56036 7.30603,-7.33005 8.57541,-14.45641 -2.59804,-8.02808 12.28277,-6.47337 13.08895,1.09599 4.86733,-3.01821 13.92013,0.2176 14.58454,-5.88143 2.68978,-2.84326 2.17251,-12.7566 8.1609,-16.07673 0.62658,-8.65222 11.47387,0.96885 7.55654,-13.32981 2.00605,-6.43607 -4.44981,-14.01273 -2.09784,-17.7659 3.31447,-1.70083 7.12676,-6.51192 5.3374,-10.23456 z"
                id="Nouvelle-Aquitaine" />
        </a>
        <a onclick="showMap('Bourgogne-Franche-Comte')" title="Bourgogne-Franche-Comté">
            <path d="m 403.52986,175.52068 c -7.99037,3.21568 -4.56676,9.29799 -10.19957,13.49375 -7.4819,-4.43985 -9.028,10.8495 -14.65843,2.36556 -3.81609,-1.26939 -14.40388,-2.84607 -8.541,-9.22231 -3.09523,-5.72746 -13.40483,-17.50312 -17.853,-9.214 -8.67533,2.53448 -9.54253,1.38844 -16.13944,3.19602 -10.13458,3.07383 -9.4264,-7.76235 -14.37956,-12.78902 -7.45532,2.73134 -3.69322,-13.56089 -13.735,-13.043 -8.90125,0.42136 -14.91656,2.96031 -16.01048,11.24519 -1.14865,4.74961 12.59122,13.48696 1.34125,17.87684 3.52009,8.4689 -11.00941,6.0458 -2.03777,16.25097 -5.00279,3.40264 0.773,9.17571 -2.20761,15.58226 5.73671,5.14273 5.89555,13.85946 7.30921,20.44791 -0.31586,6.78781 -2.47992,16.16888 6.41679,16.28805 5.99823,-3.85573 10.09311,6.04126 14.56396,-3.46032 5.89121,3.74702 3.89061,13.51402 11.16065,14.2711 11.24243,1.196 -1.96953,12.02008 1.03958,15.99137 5.21587,2.19946 12.759,2.29219 18.15122,1.39063 0.63672,-10.34675 7.9825,-3.77224 13.3732,-7.199 2.56077,15.75506 7.10061,-2.40443 8.1631,-8.92118 2.9715,-6.32222 10.94856,-2.96549 15.6939,0.43718 5.06011,9.86231 8.69674,8.72348 16.122,6.375 2.79512,7.91278 15.62535,-4.31634 14.32989,-10.13486 1.63791,-6.35315 4.56466,-10.84619 12.24155,-16.73726 -0.35341,-8.36793 2.87227,-12.48535 10.68056,-16.44988 2.86731,-7.2009 9.18928,-12.48234 13.019,-18.911 -13.67927,-0.44711 3.5568,-5.6471 0.32679,-11.57939 -5.77947,-1.57124 0.57465,-13.26813 -9.86197,-12.78534 -4.23452,-3.30762 -10.72875,-10.80249 -14.94082,-5.10827 -6.96424,-2.3435 -12.7747,-6.8498 -18.18277,-4.5541 -2.75807,3.21749 -5.21453,-2.39128 -5.18523,4.8971 z"
                id="Bourgogne-Franche-Comte" />
        </a>
        <a title="Guyane" >
        <path d="m 14.902831,246.23794 c -0.30899,0.018 -0.541647,0.11616 -0.648719,0.21608 l -5.9825101,7.56818 -5.1896501,5.98253 -5.9825091,5.98255 0.8649562,16.00138 -0.4325274,14.77611 5.189692,7.20789 5.1175262,9.15389 2.9552693,5.62211 -2.9552693,3.60396 -3.4596704,9.58644 0.4324018,13.19039 -4.2526534,7.56817 -6.847423,5.62218 2.0902576,2.37856 5.18969193,3.17143 4.68508287,2.81106 6.8474789,-2.01823 7.279894,-4.39667 14.9923,-0.36042 5.62215,3.96434 5.982536,0.43251 5.982496,1.22529 8.577362,-6.84747 9.874726,-17.15469 7.279937,-14.77606 7.279904,-10.81175 7.712427,-9.94682 4.252629,-7.64035 -3.387697,-6.77536 -2.59485,-9.58643 -5.55,-2.01826 -6.342905,-4.32462 -5.261787,-4.82929 -6.847416,-4.39679 -4.685093,-1.58574 -13.694963,-9.58643 -9.009764,-3.24352 -8.577334,-1.15328 c 0,0 -3.840214,-1.57961 -5.98251,-2.37857 -1.874704,-0.69887 -8.36188,-2.37634 -10.523467,-2.23446 z"
              id="973" />
        </a>
        <a title="Réunion">
              <path d="m 24.695681,390.9375 -5.515695,0.10561 -2.002526,0.9837 -2.283582,1.75658 -0.421578,0.38646 -1.580948,0 -3.3375206,1.26475 -1.4404263,1.26475 -4.6022769,0.66751 -0.4215787,2.4241 -1.264745,5.05898 c 0,0 -1.76150456,1.17541 -2.28355905,1.37018 -0.52220003,0.19471 -3.44292725,1.75657 -3.44292725,1.75657 l -0.5269869,5.37519 1.2647428,3.197 3.44291859,4.07529 1.65120921,1.86198 1.3350171,-0.28103 -0.8080194,0.38646 0.1053414,7.30742 3.4429411,4.2861 3.5483267,3.30241 6.2534862,3.68887 0.4216,-0.24594 -0.491861,0.35132 7.412846,4.46175 5.7265,2.07278 6.148067,1.05393 4.91848,1.75663 3.126749,0.59725 c 0,0 4.81891,-0.98368 5.445456,-0.98368 0.626491,0 5.621103,-0.98372 5.621103,-0.98372 l 5.12923,-1.6512 3.442949,-3.12676 -0.316164,-5.5508 0.63235,-3.4781 1.370159,-1.96739 2.283585,-3.02134 1.15937,-3.79424 -0.316208,-3.68883 -2.424122,-1.37015 -3.126726,-1.44041 -1.440425,-0.10518 -2.318718,-3.30237 c -0.522089,-0.3893 -3.339445,-3.51827 -3.548326,-4.00505 -0.208928,-0.48679 -2.072743,-4.67256 -2.072743,-4.67256 L 51.95804,401.5478 48.409724,398.14 44.229046,395.82128 c 0,3e-5 -3.343392,-1.94017 -3.969927,-2.03766 -0.626524,-0.0973 -6.152037,-1.26474 -6.56969,-1.26474 -0.41773,0 -4.497842,0.2892 -4.602277,0.38644 l -0.526941,-0.21082 -3.864553,-1.7566 z"
                    id="974" />
        </a>
        <a title="Martinique">
              <path d="m 21.699946,478.60406 c 0,0 -9.74903,0.23697 -10.94015,0.68125 -1.1911796,0.44417 -5.9710094,3.76696 -5.9710394,3.76696 l -0.72131,0.20025 -2.84524,4.24784 0.96177,5.53017 8.3353494,8.21517 -1.4426396,2.24413 0,4.4482 3.5665596,4.88902 11.46115,10.21886 10.21885,0 0.96176,0 2.84524,-0.24047 0.4809,0 -0.4809,2.00373 0,1.56285 3.36621,0.88161 1.40257,0.88166 c 0,0 -0.46985,3.78527 0.72133,4.00738 l -3.56657,0.20025 -5.00924,-1.52281 -3.32613,-0.68124 -4.28789,1.76325 -2.40444,2.88533 -1.16216,3.32611 0.92172,3.36624 2.40442,3.32611 3.0857,1.76322 c 0,0 3.09677,-0.87833 4.28789,-1.32241 1.19117,-0.44436 2.16403,-2.44452 2.16398,-2.44449 0,0 3.54204,-0.21862 5.20962,-0.44083 1.6676,-0.22211 3.36621,2.00367 3.36621,2.0037 l 7.85449,1.08198 3.56659,2.00368 2.12389,-0.20023 0,-2.24414 1.92358,-1.082 1.92354,1.082 -0.96177,2.68496 -2.16399,2.00367 0.96177,3.96732 2.84525,1.56287 3.366201,-0.20025 3.32613,-2.68496 0.96178,-3.52648 3.32613,-3.56659 -2.16399,-4.44821 -1.40257,-4.0074 -1.68312,-5.3298 -1.68308,-3.76698 c 0,0 -4.047521,-4.00059 -4.047481,-4.88898 0,-0.88844 -3.80702,-2.8853 -3.80702,-2.88533 l -0.4809,-3.56656 c 0,0 0.97278,-1.07845 2.16401,-1.52284 1.19104,-0.44419 -0.72134,-2.44452 -0.72134,-2.4445 l -2.36438,0.44081 -3.60663,0.88161 -0.92172,-1.12205 -1.44264,-1.56289 0.24041,-2.00367 2.60483,0.48088 2.16398,-2.44453 -3.0857,-2.44447 -2.40441,-0.68127 -0.72135,-1.32246 0,0 0,-1.56286 2.64487,-1.12206 1.88348,1.56287 3.32613,1.32246 1.68311,-2.00373 0,-2.20406 1.44266,-1.76327 -1.20222,-1.36247 -2.6048,-1.08201 -1.68311,1.52281 -6.65226,0.68128 -2.16399,1.56285 -2.84524,-0.8816 -3.32613,-5.32984 -7.6541,-7.57396 -4.28793,-1.76326 -7.85448,-4.00738 z"
                    id="972" />
        </a>
        <a title="Saint-Pierre-et-Miquelon">
              <path d="m 135.5306,513.04697 0.22242,-0.4961 -1.07503,-0.15943 -0.0741,-0.51382 2.48368,-6.34276 -0.44484,-3.98638 -1.81642,-1.29338 -6.70965,-2.51585 -3.5031,-3.20683 -1.48279,-0.33662 -1.20477,0.77955 -1.44573,-0.74411 -1.03795,-1.7363 0.11121,-1.2402 1.87203,-0.63781 1.26037,-1.55914 1.76082,-0.85041 -0.20389,-2.28553 -3.24361,1.98435 -1.55693,0.0709 -1.64961,1.38195 -0.31509,1.66541 -0.79701,0.99215 0.22242,1.36423 1.27891,1.0276 0.7414,4.48248 -0.68579,4.53561 0.77847,5.72268 1.66814,1.98434 1.70521,1.27562 1.01942,0.14174 3.78113,10.59492 0.31509,6.18333 -1.98324,4.87224 0.11122,1.82487 -0.79701,0.35435 -1.26037,2.17923 -3.98501,1.71858 -2.42808,3.25996 0,2.53357 0.42631,0.44293 0.53751,-0.93902 0.92675,-0.30118 2.35393,0.65553 0.11121,3.0828 0.53751,0.3189 -1.01942,0.4961 0.3707,1.70085 2.22419,-0.19488 0.63019,2.17923 2.15005,-2.01979 1.1121,-0.15944 4.3001,-4.03955 5.93118,-3.61431 1.2233,-1.80715 0.11121,-4.46476 -0.77846,-1.00987 -0.20389,-1.87805 -1.63107,-0.47834 -0.55605,-0.86816 -3.28068,-0.0709 -3.79966,-1.8426 -0.53751,-1.22248 -0.12975,-4.1813 0.66726,-5.49232 1.01942,-2.19695 -0.12974,-2.2678 -0.40777,-0.0709 -0.98235,1.54142 -2.39101,0.0177 -1.87203,-4.02182 6.11653,0.74411 1.24184,1.0276 -1.4828,1.15162 0.3151,0.63784 2.74317,-1.8426 1.74228,-0.19488 0.77847,-1.43511 0,-0.40749"
                    id="975" />
        </a>

        <a title="Guadeloupe">
              <path d="m 209.78568,504.04821 -3.27761,0.77883 -3.01798,2.66103 0.12981,5.97108 2.3365,0.38943 0.12981,3.69947 -2.30405,1.78484 -0.42188,2.92064 0,0.51919 -2.04443,2.14182 -0.12981,0.38943 -4.51077,-0.25964 -0.55168,-2.17424 -3.27761,-1.8822 -5.84127,-3.05042 -6.42542,0 -2.98552,4.57566 0.12984,6.58767 0.81128,2.69348 0.12983,0.48676 0.42186,5.09487 1.91463,9.41098 1.91465,4.96509 c 1e-5,0 1.34977,1.27867 1.62258,1.91462 0.27283,0.63597 1.78484,2.66104 1.78484,2.66104 l 2.98552,0.3894 0.84375,-1.55769 0.12981,0.16244 2.98553,0 4.51075,-3.82926 2.85575,-3.92666 -0.12981,-9.15133 -1.65502,-4.83527 0.55167,-3.95909 3.11535,-0.61658 0.0324,0 0.94109,1.1358 2.59612,0.6166 2.04445,0.7788 0.1947,-0.0974 0.22717,0.74638 3.95907,0.22716 6.81483,-1.26563 3.82929,-2.79081 6.68501,-0.2596 5.71145,-1.91465 -3.53721,-2.01198 -0.42187,-1.91466 -4.51076,-2.92062 -8.56719,-0.12974 -2.59612,-4.44584 0,-4.9651 -1.78485,-3.82927 -4.34851,-1.91464 z"
                    id="Guadeloupe" />
        </a>
        <a title="Mayotte">
              <path  d="m 288.93002,555.30671 c -0.46301,-4.9e-4 -0.82241,0.0394 -1.0461,0.49668 -0.27186,0.55541 -0.78145,-0.0302 -1.09647,-0.12881 -0.60711,-0.18981 -1.05708,0.10991 -1.30383,0.67355 -0.0999,0.22858 -0.0427,0.43048 -0.10827,0.65869 -0.0894,0.31086 -0.4106,0.24261 -0.42499,-0.049 -0.0509,-1.03515 0.0652,-2.12259 -1.13462,-2.42102 -1.25178,-0.31148 -1.76161,0.27685 -1.51328,1.4623 0.0425,0.203 0.0819,0.41512 0.0558,0.62346 -0.16768,-0.002 -0.34574,0.0329 -0.45205,0.17532 -0.17986,0.24164 -0.11772,0.58555 -0.31829,0.81949 -0.20433,0.2382 -0.80864,0.543 -1.12256,0.56298 -0.57543,0.0372 -0.54518,-0.91116 -0.78535,-1.25592 -0.23358,-0.3349 -0.84094,-0.54872 -1.20314,-0.27224 -0.21285,0.16242 -0.13081,0.6309 -0.51786,0.48472 -0.19592,-0.40669 -0.15006,-1.01684 -0.28968,-1.47073 -0.14243,-0.46373 -0.81727,-0.6544 -1.26555,-0.6544 -0.48923,0 -0.83509,1.29006 -1.41903,1.61227 -0.1506,0.0999 -0.31015,-0.90702 -0.081,-1.1161 0.44996,-0.41011 0.21126,-0.68355 0.25078,-1.33016 0.0398,-0.65467 0.685,-2.56963 -0.72671,-2.18219 -0.39,0.10718 -0.4584,0.52786 -0.83777,0.64588 -0.41986,0.13062 -0.99552,0.29171 -1.42356,0.11427 -0.35903,-0.14879 -0.2282,-0.59394 -0.79168,-0.51508 -0.61834,0.0863 -0.62626,-0.22224 -0.12953,-0.50981 0.40059,-0.23188 0.79656,-0.44144 1.24958,-0.55214 0.54653,-0.13371 0.68843,-0.56712 1.07755,-0.91921 0.6025,-0.54494 0.81631,-1.83743 0.5308,-2.59243 -0.1239,-0.32781 -0.21102,-0.78461 -0.62697,-0.83593 -0.29479,-0.0365 -1.34335,1.06695 -1.34335,0.11536 0,-0.61808 -0.13461,-0.54885 -0.57979,-0.87459 -0.41059,-0.30099 -0.53873,-0.85373 -0.68625,-1.31298 -0.12553,-0.39034 -0.075,-1.02649 -0.44509,-1.27456 -0.29259,-0.19628 -0.9003,-0.20239 -0.79473,-0.69844 0.62577,-0.0796 1.32445,-0.19152 1.95447,-0.17913 0.25174,0.005 0.46922,0.14952 0.72086,0.16659 0.26784,0.0182 0.47507,-0.0968 0.72684,-0.14824 0.24954,-0.0512 0.84837,0.36549 0.95443,0.57359 0.12953,0.25467 0.0318,0.56055 0.0558,0.82925 0.0352,0.39632 0.13063,0.76778 0.15025,1.16899 0.0258,0.5252 0.43011,0.76767 0.70416,1.16668 0.32892,0.47911 0.8402,0.40902 1.31237,0.63504 0.48813,0.23345 0.91347,0.4346 1.43696,0.58566 0.59052,0.17059 1.00405,0.67111 1.63945,0.71379 0.35244,0.0238 0.96224,-0.0985 1.22543,-0.36427 0.24675,-0.24908 0.83559,-0.81766 0.82912,-1.09476 -0.005,-0.24882 0.0205,-0.50838 -0.007,-0.75585 0.0843,-0.18725 0.27455,-0.0109 0.22577,-0.32307 -0.0916,-0.58517 -0.6911,-0.91859 -0.86544,-1.45402 -0.058,-0.17731 0.0543,-0.37172 -0.16586,-0.48472 -0.19116,-0.0977 -0.39098,-0.0723 -0.43803,-0.34683 -0.10356,-0.6009 0.0145,-0.63273 -0.47557,-0.9887 -0.38048,-0.276 -0.26284,-0.79961 -0.5313,-1.14572 -0.13716,-0.17658 -0.34523,-0.13607 -0.51701,-0.25101 -0.29796,-0.19957 -0.52336,-0.48178 -0.80351,-0.70282 -0.7873,-0.62063 -1.90582,-1.05403 -2.10528,-2.17012 -0.075,-0.4195 -0.0977,-0.84825 -0.65697,-0.85008 -0.53226,-0.002 -1.15778,-0.36073 -1.4656,-0.79217 -0.1695,-0.23773 -0.71234,-0.4512 -0.56288,-0.84143 0.0714,-0.18738 0.37001,-0.15515 0.51192,-0.24579 0.21224,-0.13516 0.20979,-0.2855 0.29075,-0.49762 0.3211,-0.84203 2.36201,-0.48047 2.43443,-0.95029 0.0668,-0.43327 -0.31441,-0.46474 -0.636,-0.52336 -0.4445,-0.0812 -0.77645,-0.37123 -1.26361,-0.41974 -0.5347,-0.0534 -0.25834,-0.65369 -0.0683,-0.93274 0.35268,-0.51775 0.35428,-1.17279 0.35428,-1.7732 0,-0.90469 -1.32835,-1.46621 -0.75792,-2.56963 0.25674,-0.49666 0.85105,-0.0928 1.12864,-0.46045 0.56897,-0.75414 -0.85994,-0.44875 -1.1078,-0.47166 -0.4663,-0.0431 -0.6326,-0.66345 -0.58895,-1.04563 0.0512,-0.44668 0.44352,-0.62249 0.65528,-0.9887 0.1417,-0.24406 0.48496,-1.03808 0.38048,-1.30603 -0.19944,-0.51166 -0.41365,-0.77438 -0.89739,-0.39023 -0.94225,0.74633 -1.5313,-0.94432 -2.39787,-0.4812 -0.44569,0.23846 -0.89798,0.14588 -1.13436,-0.35072 -0.12281,-0.25834 -0.3166,-0.21261 -0.51508,-0.3672 -0.18022,-0.14079 -0.35208,-0.39292 -0.51409,-0.56116 -0.29564,-0.30696 -0.60443,-0.59565 -1.0488,-0.63673 -0.37036,-0.0342 -0.91665,0.50276 -1.24337,0.33697 -0.19432,-0.099 -0.24382,-0.37879 -0.39023,-0.52398 -0.19566,-0.19396 -0.44425,-0.20128 -0.6794,-0.30625 -0.61358,-0.27429 0.27879,-0.98612 0.44508,-1.18094 0.50617,-0.59335 1.25594,-1.20606 1.52327,-1.88377 0.47509,-1.20507 -1.70284,-0.65013 -2.15842,-0.92395 -0.40182,-0.24151 1.05025,-1.36332 1.13547,-1.73259 0.0996,-0.43217 -0.13643,-0.91202 0.0765,-1.32394 0.25796,-0.49911 0.47129,-0.24164 0.89323,-0.14807 0.43523,0.0968 1.06416,0.13408 1.29323,-0.31525 0.12463,-0.24468 0.47399,-0.86996 0.6983,-1.02758 0.27185,-0.19068 0.68209,-0.69953 0.33684,-1.04491 -0.53421,-0.53457 -0.26503,-0.43703 0.41461,-0.52846 0.30405,-0.0409 0.99504,0.0283 1.04295,-0.38818 0.0402,-0.34769 3.8e-4,-1.18569 0.2999,-1.4211 0.32709,-0.257 0.56822,-0.55812 0.89494,-0.80694 0.1497,-0.11427 0.37439,-0.21163 0.47546,-0.3806 0.15133,-0.25309 -0.12445,-0.64185 0.31672,-0.6911 0.46948,-0.0529 0.49777,0.15133 0.85594,-0.30674 0.13353,-0.17059 0.94993,-1.01515 0.91921,-0.34341 -0.0145,0.33111 -0.83401,0.60041 -0.38951,0.93298 0.48338,0.36194 -0.0974,0.42289 -0.3672,0.4902 -0.77083,0.19261 -2.57134,0.8708 -1.19582,1.62628 0.42853,0.23541 0.87886,0.34002 1.34309,0.43583 0.76024,0.15806 -0.56262,0.63346 0.30148,0.79962 0.27431,0.0525 0.35635,-0.0145 0.50654,0.21297 0.0738,0.11137 0.18022,0.36537 0.29515,0.43607 0.43777,0.26931 0.26662,0.64467 0.48643,1.0527 0.19688,0.36549 0.75973,0.64027 1.10925,0.8446 0.26821,0.15678 0.55569,0.30417 0.87568,0.30417 0.27126,2.4e-4 0.66296,-0.0939 0.82071,0.21114 0.15878,0.30649 -1.38978,0.80997 -0.89605,1.58521 0.257,0.40353 0.76866,0.60882 0.96151,1.07988 0.1606,0.39305 -0.1061,1.21764 0.47752,1.14256 0.21836,-0.028 0.49582,-0.15334 0.7038,-0.007 0.16787,0.11863 0.19201,0.22762 0.43266,0.23737 0.56458,0.0231 0.56189,-0.35855 1.0438,0.15315 1.07597,1.1423 1.65055,-0.60235 2.4682,-0.91835 0.52823,-0.20408 0.58164,-0.10392 0.91896,0.27479 0.19884,0.22333 0.50594,0.80498 0.89495,0.63539 0.51641,-0.22528 0.90384,0.0778 1.36514,-0.0127 0.53739,-0.10519 0.74123,-0.0358 1.19546,0.25527 0.33501,0.21421 0.93177,-0.07 1.32725,0.1159 0.16405,0.0769 0.43887,0.0705 0.55566,0.23151 0.0767,0.10537 -0.0182,0.25578 0.21189,0.25394 0.28417,-0.002 0.3483,-0.39474 0.50129,0.0839 0.0536,0.16768 0.17368,0.20383 0.063,0.34804 -0.15315,0.20006 0.30772,0.53092 0.40182,0.65662 0.30625,0.40864 0.84106,0.38377 1.31371,0.4267 0.37147,0.0336 0.73683,0.56931 0.90421,0.86263 0.14097,0.24748 0.34854,0.2354 0.50692,0.42851 0.22028,0.26795 0.56053,0.64185 0.67707,0.97139 0.30222,0.85252 -1.5557,1.73319 -0.84227,2.77808 0.25881,0.38099 0.58334,0.53178 0.62894,1.06026 0.0658,0.76245 -0.68148,0.11537 -0.97737,0.29113 -0.64733,0.38377 -1.96262,0.8468 -2.1044,1.69456 -0.13953,0.83276 -0.54349,0.77011 -1.06807,1.25861 -0.30563,0.28417 -1.0583,0.62588 -1.0516,1.14095 0.007,0.62053 -0.0247,0.7617 -0.55105,1.1267 -0.44228,0.30636 -0.77314,0.28174 -0.98697,0.82071 -0.0807,0.20322 0.0678,0.31709 0.1903,0.44313 0.24455,0.25175 -0.005,0.2754 -0.0696,0.52373 -0.12862,0.49228 -0.3689,0.97335 -0.0381,1.45903 0.14679,0.21579 0.17659,0.38097 0.25956,0.62161 0.0612,0.17949 -0.0832,0.3555 0.0469,0.50496 0.13425,0.15497 0.27249,0.3622 0.43023,0.49241 0.15152,0.12462 0.51227,0.0754 0.60334,0.25868 0.26978,0.54324 0.004,0.77353 0.7395,0.88251 0.2587,0.0383 1.19973,0.42352 0.51569,0.51265 -0.1586,0.51518 0.21078,1.17326 0.76839,1.17411 0.16841,2.5e-4 0.35379,-0.0868 0.52069,-0.0265 0.25223,0.0912 -0.23688,0.3973 -0.26321,0.47057 -0.19421,0.54166 -0.007,1.20277 -0.46789,1.62519 -0.41206,0.37843 -1.01319,0.63139 -1.50011,0.91445 -0.37828,0.2197 -0.86008,0.6521 -1.08842,1.03564 -0.24041,0.40364 0.0383,1.53229 0.0772,2.00701 0.0183,0.22517 0.87813,1.21607 -0.12445,0.80461 -0.85217,-0.34964 -1.25726,-0.0543 -1.61677,0.65027 -0.22493,0.43948 -0.81535,0.36196 -1.20522,0.68209 -0.34294,0.2815 -0.16332,1.20997 0.0109,1.55253 0.32685,0.6404 0.12445,0.73976 -0.57627,0.70135 -0.67685,-0.0372 -0.85349,0.98674 -0.66001,1.47562 0.22858,0.57699 0.85093,0.7161 0.89664,1.39964 0.0411,0.61578 0.6449,0.86385 1.15072,1.09463 0.32915,0.15007 0.64381,0.24639 0.93797,0.46912 0.19152,0.1457 0.35074,0.39425 0.60199,0.42876 0.29186,0.0398 0.6237,-0.0886 0.8791,0.10447 0.4261,0.32232 0.11336,0.45496 0.17749,0.86567"
             id="976" />
        </a>
</svg>
