<?xml version="1.0" encoding="UTF-8" standalone="no"?>
<!-- Created with Inkscape (http://www.inkscape.org/) -->

<svg
   xmlns:dc="http://purl.org/dc/elements/1.1/"
   xmlns:cc="http://creativecommons.org/ns#"
   xmlns:rdf="http://www.w3.org/1999/02/22-rdf-syntax-ns#"
   xmlns:svg="http://www.w3.org/2000/svg"
   xmlns="http://www.w3.org/2000/svg"
   xmlns:sodipodi="http://sodipodi.sourceforge.net/DTD/sodipodi-0.dtd"
   xmlns:inkscape="http://www.inkscape.org/namespaces/inkscape"
   width="44.264786mm"
   height="44.162251mm"
   viewBox="0 0 156.84373 156.48041"
   id="svg2"
   version="1.1"
   inkscape:version="0.91 r13725"
   sodipodi:docname="MH.svg">
  <defs
     id="defs4">
    <filter
       id="filter5695"
       inkscape:label="Colorize"
       style="color-interpolation-filters:sRGB">
      <feComposite
         id="feComposite5697"
         result="composite1"
         k2="0.5"
         k1="0"
         operator="arithmetic"
         in2="SourceGraphic"
         k3="0"
         k4="0" />
      <feColorMatrix
         id="feColorMatrix5699"
         result="colormatrix1"
         type="saturate"
         values="0"
         in="composite1" />
      <feFlood
         id="feFlood5701"
         result="flood1"
         flood-color="rgb(144,24,38)"
         flood-opacity="1" />
      <feBlend
         id="feBlend5703"
         result="blend1"
         mode="multiply"
         in2="colormatrix1"
         in="flood1" />
      <feBlend
         id="feBlend5705"
         result="blend2"
         mode="screen"
         in2="blend1" />
      <feColorMatrix
         id="feColorMatrix5707"
         result="colormatrix2"
         type="saturate"
         values="1"
         in="blend2" />
      <feComposite
         id="feComposite5709"
         result="composite2"
         operator="in"
         in2="SourceGraphic"
         in="colormatrix2" />
    </filter>
  </defs>
  <sodipodi:namedview
     id="base"
     pagecolor="#ffffff"
     bordercolor="#666666"
     borderopacity="1.0"
     inkscape:pageopacity="0.0"
     inkscape:pageshadow="2"
     inkscape:zoom="1.4142136"
     inkscape:cx="143.35234"
     inkscape:cy="-30.149932"
     inkscape:document-units="px"
     inkscape:current-layer="layer1"
     showgrid="false"
     inkscape:window-width="1855"
     inkscape:window-height="1056"
     inkscape:window-x="65"
     inkscape:window-y="24"
     inkscape:window-maximized="1"
     fit-margin-top="0"
     fit-margin-left="0"
     fit-margin-right="0"
     fit-margin-bottom="0" />
  <metadata
     id="metadata7">
    <rdf:RDF>
      <cc:Work
         rdf:about="">
        <dc:format>image/svg+xml</dc:format>
        <dc:type
           rdf:resource="http://purl.org/dc/dcmitype/StillImage" />
        <dc:title />
      </cc:Work>
    </rdf:RDF>
  </metadata>
  <g
     inkscape:label="Calque 1"
     inkscape:groupmode="layer"
     id="layer1"
     transform="translate(-24.857089,-205.42157)">
    <path
       style="opacity:1;fill:#61858d;fill-opacity:1;fill-rule:nonzero;stroke:none;stroke-width:3;stroke-linecap:round;stroke-miterlimit:4;stroke-dasharray:none;stroke-dashoffset:10;stroke-opacity:1"
       d="m 24.857089,277.20865 0.177705,13.17968 9.445342,9.19532 13.181628,-0.17581 5.253907,-5.39842 2.474626,-0.0879 0.287077,-2.27736 -5.259741,0.0566 -4.472677,4.39064 -10.298822,0.13671 -7.378895,-7.1836 -0.138686,-10.29882 7.185545,-7.37891 10.296917,-0.13867 4.660117,4.40428 5.218765,-0.004 -1.73e-4,-0.006 0.0029,2e-5 -0.0052,-10e-4 -0.07619,-2.13084 -2.111307,0.002 -6.064463,-5.90624 -13.185527,0.17771 z m 5.771468,2.53319 0.109361,8.23828 5.904316,5.74802 8.238297,-0.10934 4.089833,-4.09767 14.835951,0.006 -0.339787,-2.04687 -15.525377,-0.043 -4.123046,3.70896 -6.179689,0.082 -4.427739,-4.31056 -0.08199,-6.17967 4.310543,-4.42579 6.177736,-0.084 3.990226,3.7168 17.125499,0.0827 0.01121,-1.99087 -15.742218,-0.0918 -4.386737,-4.2168 -8.238253,0.11136 z m 56.296884,59.77929 0.17772,13.18555 9.447274,9.1953 13.179705,-0.17772 9.19529,-9.4453 -0.17576,-13.18165 -5.36134,-5.21874 0.002,-2.56641 -2.28708,0.18943 0.0489,4.81245 4.4981,4.80079 -0.1387,10.29686 -7.37889,7.18556 -10.298836,-0.13868 -7.183633,-7.3789 0.136732,-10.29883 4.328137,-4.47264 0.11916,-5.24417 -2.279317,0.27152 -0.07231,2.06835 z m 0.250014,-111.71875 5.654278,5.80666 -0.008,2.50976 2.374869,0.16308 0.0176,-4.91404 -4.427554,-4.64944 -0.136729,-10.29882 7.183598,-7.37891 10.298823,-0.13866 7.3789,7.18554 0.13868,10.29687 -4.40821,4.66541 0.004,5.21876 2.14451,-0.0814 -0.002,-2.5 5.61135,-5.46096 0.17577,-13.18161 -9.19533,-9.44533 -13.179671,-0.17772 -9.447268,9.19531 z m 5.974604,122.28125 5.748029,5.90428 8.238292,0.10939 5.90234,-5.74803 0.11134,-8.2383 -4.21681,-4.38671 -0.0918,-15.74022 -1.96876,0.0977 0.0606,17.0371 3.71679,3.99024 -0.084,6.17776 -4.42576,4.31053 -6.1797,-0.082 -4.310546,-4.42777 0.08199,-6.17969 3.70899,-4.12303 -0.043,-15.5254 -2.046862,-0.33991 0.006,14.83596 -4.097667,4.08985 z m -9e-6,-132.66796 0.109364,8.23825 4.097641,4.08988 -0.006,14.83596 2.057912,-0.6824 0.0319,-15.18285 -3.70897,-4.12304 -0.082,-6.17971 4.310545,-4.42772 6.179648,-0.082 4.4258,4.31056 0.084,6.17771 -3.71677,3.99026 -0.0606,17.03705 1.96874,0.0977 0.0918,-15.74023 4.21678,-4.38674 -0.11133,-8.23825 -5.90235,-5.74807 -8.238299,0.10939 z m 48.27929,60.6211 0.0977,1.96875 17.03711,-0.0606 3.99025,-3.71681 6.17773,0.084 4.31054,4.42576 -0.082,6.1797 -4.42774,4.31055 -6.17967,-0.082 -4.12306,-3.70896 -15.52539,0.043 -0.3398,2.04689 14.83592,-0.006 4.08986,4.09765 8.23826,0.10938 5.90431,-5.74807 0.10938,-8.23829 -5.74807,-5.90232 -8.23826,-0.11134 -4.38672,4.21682 z m 9.08011,13.60739 0.27145,2.27737 2.74024,0.0977 5.37502,5.52148 13.18164,0.17579 9.44528,-9.19531 0.17774,-13.17972 -9.19529,-9.44725 -13.18554,-0.17772 -5.92777,5.77344 -2.63476,-0.002 -1.15237,2.25725 6.23247,-0.019 4.72263,-4.49802 10.2969,0.13865 7.18555,7.37892 -0.13868,10.29881 -7.37891,7.1836 -10.29882,-0.13671 -4.47267,-4.32812 z"
       id="path4305-4-2-4-0-6-9-0-2"
       inkscape:connector-curvature="0"
       sodipodi:nodetypes="ccccccccccccccccccccccccccccccccccccccccccccccccccccccccccccccccccccccccccccccccccccccccccccccccccccccccccccccccccccccccccccccccccccccccccccccccccccccccccccccccccccccccccc" />
    <path
       style="opacity:1;fill:#901826;fill-opacity:1;fill-rule:nonzero;stroke:none;stroke-width:3;stroke-linecap:round;stroke-miterlimit:4;stroke-dasharray:none;stroke-dashoffset:10;stroke-opacity:1"
       d="m 76.980469,22.988281 0,25.31836 L 66.273438,48.164062 48.5625,65.40625 l -0.332031,24.714844 17.242187,17.710936 11.507813,0.1543 0,25.33594 2.5,0 0,-25.30274 10.708984,0.14453 17.710937,-17.242185 0.33008,-24.716797 -17.242189,-17.710937 -11.507812,-0.154297 0,-25.351563 z m -19.201172,3.851563 -30.267578,29.466797 -0.242188,13.893113 4.615979,0.04689 0.294137,-11.934149 27.480468,-26.753906 10.744141,0.142578 -0.111328,-4.556641 z m 28.626953,0.384765 -0.08008,4.689453 11.683594,0.158204 26.753906,27.480468 -0.14258,10.792126 4.63672,-0.0059 0.22657,-12.667126 -29.4668,-30.265625 z m -24.119141,10.939453 -23.615234,22.990235 -0.177734,13.414445 2.486328,0.04419 0.164062,-12.396139 22.138672,-21.552735 11.228516,0.150391 0,-2.486328 z m 19.671875,0.263672 0,2.486328 12.21875,0.164063 21.552736,22.138672 -0.15039,11.377336 2.48633,0 0.16406,-12.37343 -22.990236,-23.615234 z m -17.679687,4.736328 -20.662109,20.117188 -0.183594,13.632812 -20.259766,-0.0039 -0.0332,2.501953 20.259766,0.002 -0.169922,12.701172 20.117187,20.662103 11.138672,0.15039 0,-2.48828 -10.076172,-0.13476 -18.679687,-19.185546 0.359375,-26.775391 19.1875,-18.679688 9.199218,0.123047 0,-2.486328 z m 17.697265,0.236329 0,2.488281 10.076172,0.134766 18.677736,19.185546 -0.35742,26.775391 -19.187503,18.679685 -9.207031,-0.12304 0,2.48632 10.203125,0.13672 20.662109,-20.115232 0.18359,-13.634766 20.31641,0 0,-2.5 -20.2832,0 0.16992,-12.701171 -20.115236,-20.66211 z m -14.707031,7.263671 22.65625,0.302735 15.804689,16.234375 -0.12891,9.71289 -7.460935,0 0.08984,-6.720703 -11.496094,-11.808593 -4.753906,-0.06445 0,2.486329 3.691406,0.05078 10.058594,10.332031 -0.19336,14.417969 -10.332031,10.05664 -3.228516,-0.04297 0,2.486328 4.22461,0.05664 11.808594,-11.49414 0.09766,-7.25586 7.458988,0 -0.13868,10.44336 -16.234371,15.806637 -22.65625,-0.30468 -15.80664,-16.234379 0.130859,-9.710938 7.458984,0 -0.08984,6.722657 11.49414,11.80664 4.751953,0.06445 0,-2.486328 -3.689453,-0.05078 -10.05664,-10.330078 0.193359,-14.417969 10.330078,-10.058594 3.214844,0.04297 0,-2.486328 -4.210938,-0.05664 -11.80664,11.496094 -0.09766,7.253906 -7.458985,0 0.140625,-10.445312 z m 0.996094,2.5 -14.757813,14.367188 -0.09375,6.880859 2.486329,0 0.07813,-5.816406 13.283203,-12.933594 7.71875,0.103516 0,7.462891 -4.730469,-0.06445 -8.855469,8.621094 -0.164062,12.357422 8.621093,8.855469 5.128907,0.06836 0,7.458979 -8.31836,-0.11133 -12.93164,-13.283196 0.07031,-5.230468 -2.486328,0 -0.08398,6.228515 14.36914,14.757809 20.595703,0.27539 14.759771,-14.367183 0.0918,-6.888672 -2.48633,0 -0.0781,5.824219 -13.283204,12.933586 -7.71875,-0.10351 0,-7.460936 4.728515,0.06445 8.855469,-8.621093 0.166016,-12.357422 -8.621094,-8.855469 -5.128906,-0.06836 0,-7.460938 8.318359,0.111328 12.931645,13.283203 -0.0703,5.222657 2.48632,0 0.084,-6.220703 -14.369145,-14.757813 z m 5.658203,14.158204 8.923828,0.117187 6.226563,6.396485 -0.117188,8.923828 -6.394531,6.228515 -8.925781,-0.117187 -6.22461,-6.396485 0.115235,-8.923828 z m -35.529297,14.714614 -0.164062,12.070542 22.990234,23.615238 13.277344,0.17773 0,-2.48633 L 62.283203,115.25 40.730469,93.111328 40.880859,82.03688 Z m 77.085939,0 -0.16406,12.074448 -22.138676,21.552732 -11.232422,-0.15039 0,2.48633 12.230469,0.16406 23.613279,-22.990232 0.17774,-13.136948 z m -88.312501,4.17379 -0.222657,12.334252 29.46875,30.267578 13.830079,0.16602 0.128906,-4.67188 -11.953125,-0.16211 -26.75586,-27.480468 0.201172,-10.446882 z m 97.242191,0.0081 -0.15821,11.6875 -27.482419,26.75195 -10.615234,-0.14062 0.125,4.7207 12.371094,0.13867 30.267579,-29.464841 0.18164,-13.65625 z"
       transform="translate(24.857089,205.42157)"
       id="path4305"
       inkscape:connector-curvature="0"
       sodipodi:nodetypes="cccccccccccccccccccccccccccccccccccccccccccccccccccccccccccccccccccccccccccccccccccccccccccccccccccccccccccccccccccccccccccccccccccccccccccccccccccccccccccccccccccccccccccccccccccccccccccccccccccccccccccccccccccccc" />
  </g>
</svg>
